%TF.GenerationSoftware,KiCad,Pcbnew,5.0.0*%
%TF.CreationDate,2018-10-12T22:56:55+01:00*%
%TF.ProjectId,ESP8266_home_battery_controller,455350383236365F686F6D655F626174,rev?*%
%TF.SameCoordinates,Original*%
%TF.FileFunction,Copper,L2,Bot,Signal*%
%TF.FilePolarity,Positive*%
%FSLAX46Y46*%
G04 Gerber Fmt 4.6, Leading zero omitted, Abs format (unit mm)*
G04 Created by KiCad (PCBNEW 5.0.0) date Fri Oct 12 22:56:55 2018*
%MOMM*%
%LPD*%
G01*
G04 APERTURE LIST*
%ADD10C,0.150000*%
%ADD11O,1.200000X1.750000*%
%ADD12C,0.100000*%
%ADD13C,1.200000*%
%ADD14C,1.800000*%
%ADD15C,1.600000*%
%ADD16R,1.600000X1.600000*%
%ADD17O,1.510000X3.010000*%
%ADD18R,1.200000X1.700000*%
%ADD19O,1.200000X1.700000*%
%ADD20C,3.500000*%
%ADD21O,1.750000X1.200000*%
%ADD22C,0.600000*%
%ADD23C,0.600000*%
%ADD24C,0.400000*%
%ADD25C,0.250000*%
%ADD26C,0.254000*%
G04 APERTURE END LIST*
D10*
X150000000Y-55000000D02*
X195000000Y-55000000D01*
X150000000Y-120000000D02*
X150000000Y-55000000D01*
X195000000Y-120000000D02*
X150000000Y-120000000D01*
X195000000Y-55000000D02*
X195000000Y-120000000D01*
D11*
X181000000Y-60000000D03*
X183000000Y-60000000D03*
D12*
G36*
X185374505Y-59126204D02*
X185398773Y-59129804D01*
X185422572Y-59135765D01*
X185445671Y-59144030D01*
X185467850Y-59154520D01*
X185488893Y-59167132D01*
X185508599Y-59181747D01*
X185526777Y-59198223D01*
X185543253Y-59216401D01*
X185557868Y-59236107D01*
X185570480Y-59257150D01*
X185580970Y-59279329D01*
X185589235Y-59302428D01*
X185595196Y-59326227D01*
X185598796Y-59350495D01*
X185600000Y-59374999D01*
X185600000Y-60625001D01*
X185598796Y-60649505D01*
X185595196Y-60673773D01*
X185589235Y-60697572D01*
X185580970Y-60720671D01*
X185570480Y-60742850D01*
X185557868Y-60763893D01*
X185543253Y-60783599D01*
X185526777Y-60801777D01*
X185508599Y-60818253D01*
X185488893Y-60832868D01*
X185467850Y-60845480D01*
X185445671Y-60855970D01*
X185422572Y-60864235D01*
X185398773Y-60870196D01*
X185374505Y-60873796D01*
X185350001Y-60875000D01*
X184649999Y-60875000D01*
X184625495Y-60873796D01*
X184601227Y-60870196D01*
X184577428Y-60864235D01*
X184554329Y-60855970D01*
X184532150Y-60845480D01*
X184511107Y-60832868D01*
X184491401Y-60818253D01*
X184473223Y-60801777D01*
X184456747Y-60783599D01*
X184442132Y-60763893D01*
X184429520Y-60742850D01*
X184419030Y-60720671D01*
X184410765Y-60697572D01*
X184404804Y-60673773D01*
X184401204Y-60649505D01*
X184400000Y-60625001D01*
X184400000Y-59374999D01*
X184401204Y-59350495D01*
X184404804Y-59326227D01*
X184410765Y-59302428D01*
X184419030Y-59279329D01*
X184429520Y-59257150D01*
X184442132Y-59236107D01*
X184456747Y-59216401D01*
X184473223Y-59198223D01*
X184491401Y-59181747D01*
X184511107Y-59167132D01*
X184532150Y-59154520D01*
X184554329Y-59144030D01*
X184577428Y-59135765D01*
X184601227Y-59129804D01*
X184625495Y-59126204D01*
X184649999Y-59125000D01*
X185350001Y-59125000D01*
X185374505Y-59126204D01*
X185374505Y-59126204D01*
G37*
D13*
X185000000Y-60000000D03*
D11*
X171500000Y-60000000D03*
X173500000Y-60000000D03*
D12*
G36*
X175874505Y-59126204D02*
X175898773Y-59129804D01*
X175922572Y-59135765D01*
X175945671Y-59144030D01*
X175967850Y-59154520D01*
X175988893Y-59167132D01*
X176008599Y-59181747D01*
X176026777Y-59198223D01*
X176043253Y-59216401D01*
X176057868Y-59236107D01*
X176070480Y-59257150D01*
X176080970Y-59279329D01*
X176089235Y-59302428D01*
X176095196Y-59326227D01*
X176098796Y-59350495D01*
X176100000Y-59374999D01*
X176100000Y-60625001D01*
X176098796Y-60649505D01*
X176095196Y-60673773D01*
X176089235Y-60697572D01*
X176080970Y-60720671D01*
X176070480Y-60742850D01*
X176057868Y-60763893D01*
X176043253Y-60783599D01*
X176026777Y-60801777D01*
X176008599Y-60818253D01*
X175988893Y-60832868D01*
X175967850Y-60845480D01*
X175945671Y-60855970D01*
X175922572Y-60864235D01*
X175898773Y-60870196D01*
X175874505Y-60873796D01*
X175850001Y-60875000D01*
X175149999Y-60875000D01*
X175125495Y-60873796D01*
X175101227Y-60870196D01*
X175077428Y-60864235D01*
X175054329Y-60855970D01*
X175032150Y-60845480D01*
X175011107Y-60832868D01*
X174991401Y-60818253D01*
X174973223Y-60801777D01*
X174956747Y-60783599D01*
X174942132Y-60763893D01*
X174929520Y-60742850D01*
X174919030Y-60720671D01*
X174910765Y-60697572D01*
X174904804Y-60673773D01*
X174901204Y-60649505D01*
X174900000Y-60625001D01*
X174900000Y-59374999D01*
X174901204Y-59350495D01*
X174904804Y-59326227D01*
X174910765Y-59302428D01*
X174919030Y-59279329D01*
X174929520Y-59257150D01*
X174942132Y-59236107D01*
X174956747Y-59216401D01*
X174973223Y-59198223D01*
X174991401Y-59181747D01*
X175011107Y-59167132D01*
X175032150Y-59154520D01*
X175054329Y-59144030D01*
X175077428Y-59135765D01*
X175101227Y-59129804D01*
X175125495Y-59126204D01*
X175149999Y-59125000D01*
X175850001Y-59125000D01*
X175874505Y-59126204D01*
X175874505Y-59126204D01*
G37*
D13*
X175500000Y-60000000D03*
D11*
X160000000Y-60000000D03*
X162000000Y-60000000D03*
X164000000Y-60000000D03*
D12*
G36*
X166374505Y-59126204D02*
X166398773Y-59129804D01*
X166422572Y-59135765D01*
X166445671Y-59144030D01*
X166467850Y-59154520D01*
X166488893Y-59167132D01*
X166508599Y-59181747D01*
X166526777Y-59198223D01*
X166543253Y-59216401D01*
X166557868Y-59236107D01*
X166570480Y-59257150D01*
X166580970Y-59279329D01*
X166589235Y-59302428D01*
X166595196Y-59326227D01*
X166598796Y-59350495D01*
X166600000Y-59374999D01*
X166600000Y-60625001D01*
X166598796Y-60649505D01*
X166595196Y-60673773D01*
X166589235Y-60697572D01*
X166580970Y-60720671D01*
X166570480Y-60742850D01*
X166557868Y-60763893D01*
X166543253Y-60783599D01*
X166526777Y-60801777D01*
X166508599Y-60818253D01*
X166488893Y-60832868D01*
X166467850Y-60845480D01*
X166445671Y-60855970D01*
X166422572Y-60864235D01*
X166398773Y-60870196D01*
X166374505Y-60873796D01*
X166350001Y-60875000D01*
X165649999Y-60875000D01*
X165625495Y-60873796D01*
X165601227Y-60870196D01*
X165577428Y-60864235D01*
X165554329Y-60855970D01*
X165532150Y-60845480D01*
X165511107Y-60832868D01*
X165491401Y-60818253D01*
X165473223Y-60801777D01*
X165456747Y-60783599D01*
X165442132Y-60763893D01*
X165429520Y-60742850D01*
X165419030Y-60720671D01*
X165410765Y-60697572D01*
X165404804Y-60673773D01*
X165401204Y-60649505D01*
X165400000Y-60625001D01*
X165400000Y-59374999D01*
X165401204Y-59350495D01*
X165404804Y-59326227D01*
X165410765Y-59302428D01*
X165419030Y-59279329D01*
X165429520Y-59257150D01*
X165442132Y-59236107D01*
X165456747Y-59216401D01*
X165473223Y-59198223D01*
X165491401Y-59181747D01*
X165511107Y-59167132D01*
X165532150Y-59154520D01*
X165554329Y-59144030D01*
X165577428Y-59135765D01*
X165601227Y-59129804D01*
X165625495Y-59126204D01*
X165649999Y-59125000D01*
X166350001Y-59125000D01*
X166374505Y-59126204D01*
X166374505Y-59126204D01*
G37*
D13*
X166000000Y-60000000D03*
D14*
X169570000Y-92840000D03*
X169570000Y-95380000D03*
X169570000Y-97920000D03*
X169570000Y-100460000D03*
X169570000Y-103000000D03*
X169570000Y-105540000D03*
X169570000Y-108080000D03*
X169570000Y-110620000D03*
X192430000Y-110620000D03*
X192430000Y-108080000D03*
X192430000Y-105540000D03*
X192430000Y-103000000D03*
X192430000Y-100460000D03*
X192430000Y-97920000D03*
X192430000Y-95380000D03*
X192430000Y-92840000D03*
D15*
X156000000Y-79500000D03*
D16*
X156000000Y-82000000D03*
D17*
X155000000Y-102000000D03*
X157540000Y-102000000D03*
D18*
X161000000Y-113030000D03*
D19*
X163000000Y-113030000D03*
X165000000Y-113030000D03*
D20*
X154000000Y-59000000D03*
X191000000Y-59000000D03*
X191000000Y-116000000D03*
X154000000Y-116000000D03*
D12*
G36*
X192649505Y-65401204D02*
X192673773Y-65404804D01*
X192697572Y-65410765D01*
X192720671Y-65419030D01*
X192742850Y-65429520D01*
X192763893Y-65442132D01*
X192783599Y-65456747D01*
X192801777Y-65473223D01*
X192818253Y-65491401D01*
X192832868Y-65511107D01*
X192845480Y-65532150D01*
X192855970Y-65554329D01*
X192864235Y-65577428D01*
X192870196Y-65601227D01*
X192873796Y-65625495D01*
X192875000Y-65649999D01*
X192875000Y-66350001D01*
X192873796Y-66374505D01*
X192870196Y-66398773D01*
X192864235Y-66422572D01*
X192855970Y-66445671D01*
X192845480Y-66467850D01*
X192832868Y-66488893D01*
X192818253Y-66508599D01*
X192801777Y-66526777D01*
X192783599Y-66543253D01*
X192763893Y-66557868D01*
X192742850Y-66570480D01*
X192720671Y-66580970D01*
X192697572Y-66589235D01*
X192673773Y-66595196D01*
X192649505Y-66598796D01*
X192625001Y-66600000D01*
X191374999Y-66600000D01*
X191350495Y-66598796D01*
X191326227Y-66595196D01*
X191302428Y-66589235D01*
X191279329Y-66580970D01*
X191257150Y-66570480D01*
X191236107Y-66557868D01*
X191216401Y-66543253D01*
X191198223Y-66526777D01*
X191181747Y-66508599D01*
X191167132Y-66488893D01*
X191154520Y-66467850D01*
X191144030Y-66445671D01*
X191135765Y-66422572D01*
X191129804Y-66398773D01*
X191126204Y-66374505D01*
X191125000Y-66350001D01*
X191125000Y-65649999D01*
X191126204Y-65625495D01*
X191129804Y-65601227D01*
X191135765Y-65577428D01*
X191144030Y-65554329D01*
X191154520Y-65532150D01*
X191167132Y-65511107D01*
X191181747Y-65491401D01*
X191198223Y-65473223D01*
X191216401Y-65456747D01*
X191236107Y-65442132D01*
X191257150Y-65429520D01*
X191279329Y-65419030D01*
X191302428Y-65410765D01*
X191326227Y-65404804D01*
X191350495Y-65401204D01*
X191374999Y-65400000D01*
X192625001Y-65400000D01*
X192649505Y-65401204D01*
X192649505Y-65401204D01*
G37*
D13*
X192000000Y-66000000D03*
D21*
X192000000Y-68000000D03*
X192000000Y-70000000D03*
D22*
X189000000Y-98000000D03*
X181000000Y-93000000D03*
X163000000Y-94000000D03*
X164000000Y-82000000D03*
X176000000Y-82000000D03*
X178000000Y-74000000D03*
X190000000Y-77000000D03*
X191000000Y-80000000D03*
X186000000Y-98000000D03*
X184000000Y-108000000D03*
X190000000Y-107000000D03*
X188000000Y-110000000D03*
X173000000Y-113000000D03*
X169000000Y-113000000D03*
X183000000Y-98125000D03*
X183000000Y-96875000D03*
X190000000Y-102000000D03*
X177000000Y-90000000D03*
X188000000Y-90000000D03*
X162000000Y-64000000D03*
X152000000Y-98000000D03*
X152000000Y-76000000D03*
X156000000Y-71000000D03*
X161000000Y-70000000D03*
X173000000Y-98000000D03*
X179000000Y-83000000D03*
X178000000Y-81000000D03*
X176000000Y-79000000D03*
X174000000Y-77000000D03*
X168000000Y-76000000D03*
X168000000Y-72000000D03*
X184000000Y-71000000D03*
X183000000Y-72000000D03*
X177000000Y-92000000D03*
X177000000Y-95000000D03*
X170000000Y-78000000D03*
X165000000Y-79000000D03*
X179000000Y-71000000D03*
X179000000Y-74000000D03*
X179000000Y-77999954D03*
X179000000Y-68000000D03*
X184000000Y-76000000D03*
X186000000Y-69000000D03*
X183000000Y-76000000D03*
X177000000Y-101000000D03*
X182000000Y-95000000D03*
X183000000Y-101000000D03*
X184000000Y-98000000D03*
D23*
X161000000Y-113030000D02*
X161000000Y-116000000D01*
X161000000Y-116000000D02*
X163000000Y-118000000D01*
X163000000Y-118000000D02*
X172000000Y-118000000D01*
X172000000Y-118000000D02*
X174000000Y-116000000D01*
X174000000Y-116000000D02*
X174000000Y-110000000D01*
X174000000Y-110000000D02*
X172000000Y-108000000D01*
X171920000Y-108080000D02*
X169570000Y-108080000D01*
X172000000Y-108000000D02*
X171920000Y-108080000D01*
X189000000Y-98000000D02*
X189000000Y-107000000D01*
X189000000Y-107000000D02*
X186000000Y-110000000D01*
X181000000Y-93000000D02*
X183000000Y-93000000D01*
X183000000Y-93000000D02*
X183000000Y-95000000D01*
X183000000Y-95000000D02*
X186000000Y-98000000D01*
X186000000Y-98000000D02*
X189000000Y-98000000D01*
X159800000Y-113030000D02*
X155770000Y-109000000D01*
X161000000Y-113030000D02*
X159800000Y-113030000D01*
X155770000Y-109000000D02*
X153000000Y-109000000D01*
X153000000Y-109000000D02*
X152000000Y-108000000D01*
X152000000Y-108000000D02*
X152000000Y-100000000D01*
X152000000Y-100000000D02*
X156000000Y-96000000D01*
X156000000Y-96000000D02*
X161000000Y-96000000D01*
X161000000Y-96000000D02*
X163000000Y-94000000D01*
X163000000Y-94000000D02*
X163000000Y-90000000D01*
X163000000Y-90000000D02*
X160000000Y-87000000D01*
X159500000Y-79500000D02*
X156000000Y-79500000D01*
X160000000Y-80000000D02*
X159500000Y-79500000D01*
X164000000Y-82000000D02*
X160000000Y-82000000D01*
X160000000Y-87000000D02*
X160000000Y-82000000D01*
X160000000Y-82000000D02*
X160000000Y-80000000D01*
X164000000Y-82000000D02*
X176000000Y-82000000D01*
X154000000Y-66800000D02*
X154000000Y-77500000D01*
X154000000Y-77500000D02*
X156000000Y-79500000D01*
X158800000Y-62000000D02*
X154000000Y-66800000D01*
D24*
X176000000Y-82000000D02*
X178000000Y-80000000D01*
X178000000Y-80000000D02*
X178000000Y-74000000D01*
D23*
X178000000Y-80000000D02*
X185000000Y-80000000D01*
X185000000Y-80000000D02*
X187000000Y-80000000D01*
X187000000Y-80000000D02*
X190000000Y-77000000D01*
X190000000Y-71815998D02*
X189000000Y-70815998D01*
X190000000Y-77000000D02*
X190000000Y-71815998D01*
X189000000Y-70815998D02*
X189000000Y-67000000D01*
X190000000Y-66000000D02*
X192000000Y-66000000D01*
X189000000Y-67000000D02*
X190000000Y-66000000D01*
X190000000Y-77000000D02*
X190000000Y-79000000D01*
X190000000Y-79000000D02*
X191000000Y-80000000D01*
X160000000Y-60275000D02*
X160000000Y-60000000D01*
X158800000Y-61475000D02*
X160000000Y-60275000D01*
X158800000Y-62000000D02*
X158800000Y-61475000D01*
D25*
X184000000Y-108000000D02*
X184000000Y-110000000D01*
D23*
X186000000Y-110000000D02*
X184000000Y-110000000D01*
X184000000Y-110000000D02*
X174000000Y-110000000D01*
D25*
X190000000Y-107000000D02*
X190000000Y-108000000D01*
X190000000Y-108000000D02*
X188000000Y-110000000D01*
X173000000Y-113000000D02*
X169000000Y-113000000D01*
X183000000Y-98125000D02*
X183000000Y-96875000D01*
D23*
X190000000Y-102000000D02*
X190000000Y-92000000D01*
X190000000Y-92000000D02*
X189000000Y-91000000D01*
X189000000Y-91000000D02*
X188000000Y-90000000D01*
X188000000Y-90000000D02*
X183000000Y-90000000D01*
D25*
X157540000Y-101250000D02*
X157540000Y-102000000D01*
D23*
X168790000Y-90000000D02*
X157540000Y-101250000D01*
X171000000Y-90000000D02*
X168790000Y-90000000D01*
X171000000Y-90000000D02*
X177000000Y-90000000D01*
X177000000Y-90000000D02*
X183000000Y-90000000D01*
D24*
X162000000Y-64000000D02*
X163000000Y-63000000D01*
X163000000Y-63000000D02*
X165000000Y-63000000D01*
X166000000Y-62000000D02*
X166000000Y-60000000D01*
X165000000Y-63000000D02*
X166000000Y-62000000D01*
D23*
X152000000Y-98000000D02*
X152000000Y-76000000D01*
X156000000Y-71000000D02*
X157000000Y-70000000D01*
X157000000Y-70000000D02*
X161000000Y-70000000D01*
D25*
X170469999Y-99560001D02*
X171439999Y-99560001D01*
X169570000Y-100460000D02*
X170469999Y-99560001D01*
X171439999Y-99560001D02*
X173000000Y-98000000D01*
X179000000Y-83000000D02*
X179000000Y-82000000D01*
X179000000Y-82000000D02*
X178000000Y-81000000D01*
X176000000Y-79000000D02*
X174000000Y-77000000D01*
X168000000Y-76000000D02*
X168000000Y-72000000D01*
X183000000Y-70000000D02*
X183000000Y-60000000D01*
X184000000Y-71000000D02*
X184000000Y-71000000D01*
X184000000Y-71000000D02*
X183000000Y-70000000D01*
X183000000Y-72000000D02*
X183000000Y-72000000D01*
X181000000Y-70000000D02*
X181000000Y-63000000D01*
X181000000Y-63000000D02*
X181000000Y-60000000D01*
X183000000Y-72000000D02*
X181000000Y-70000000D01*
X177000000Y-92000000D02*
X177000000Y-95000000D01*
D24*
X170000000Y-78000000D02*
X167000000Y-78000000D01*
X167000000Y-78000000D02*
X166000000Y-78000000D01*
X166000000Y-78000000D02*
X165000000Y-79000000D01*
D25*
X179000000Y-74000000D02*
X179000000Y-71000000D01*
X179000000Y-74000000D02*
X179000000Y-77999954D01*
X179000000Y-70000000D02*
X179000000Y-68000000D01*
X179000000Y-70000000D02*
X181000000Y-72000000D01*
X181000000Y-72000000D02*
X181000000Y-75000000D01*
X183374999Y-76625001D02*
X184000000Y-76000000D01*
X181000000Y-75000000D02*
X182625001Y-76625001D01*
X182625001Y-76625001D02*
X183374999Y-76625001D01*
X186000000Y-69000000D02*
X186000000Y-73000000D01*
X186000000Y-73000000D02*
X183000000Y-76000000D01*
X177000000Y-101000000D02*
X179000000Y-101000000D01*
X179000000Y-101000000D02*
X182000000Y-98000000D01*
X182000000Y-98000000D02*
X182000000Y-95000000D01*
X183000000Y-101000000D02*
X184000000Y-100000000D01*
X184000000Y-98424264D02*
X184000000Y-98000000D01*
X184000000Y-100000000D02*
X184000000Y-98424264D01*
X193655001Y-68530001D02*
X193125000Y-68000000D01*
X193655001Y-94344999D02*
X193655001Y-68530001D01*
X193519999Y-94480001D02*
X193655001Y-94344999D01*
X193329999Y-94480001D02*
X193519999Y-94480001D01*
X193125000Y-68000000D02*
X192000000Y-68000000D01*
X192430000Y-95380000D02*
X193329999Y-94480001D01*
D26*
G36*
X194290000Y-68112382D02*
X194202930Y-67982072D01*
X194139473Y-67939672D01*
X193715331Y-67515530D01*
X193672929Y-67452071D01*
X193421537Y-67284096D01*
X193260576Y-67252079D01*
X193195436Y-67154590D01*
X193234699Y-67138327D01*
X193413327Y-66959698D01*
X193510000Y-66726309D01*
X193510000Y-66285750D01*
X193351250Y-66127000D01*
X192127000Y-66127000D01*
X192127000Y-66147000D01*
X191873000Y-66147000D01*
X191873000Y-66127000D01*
X190648750Y-66127000D01*
X190490000Y-66285750D01*
X190490000Y-66726309D01*
X190586673Y-66959698D01*
X190765301Y-67138327D01*
X190804564Y-67154590D01*
X190561656Y-67518127D01*
X190465805Y-68000000D01*
X190561656Y-68481873D01*
X190834615Y-68890385D01*
X190998665Y-69000000D01*
X190834615Y-69109615D01*
X190561656Y-69518127D01*
X190465805Y-70000000D01*
X190561656Y-70481873D01*
X190834615Y-70890385D01*
X191243127Y-71163344D01*
X191603364Y-71235000D01*
X192396636Y-71235000D01*
X192756873Y-71163344D01*
X192895002Y-71071049D01*
X192895002Y-73873000D01*
X186201802Y-73873000D01*
X186484473Y-73590329D01*
X186547929Y-73547929D01*
X186611979Y-73452071D01*
X186715904Y-73296538D01*
X186725480Y-73248395D01*
X186760000Y-73074852D01*
X186760000Y-73074848D01*
X186774888Y-73000000D01*
X186760000Y-72925152D01*
X186760000Y-69562290D01*
X186792655Y-69529635D01*
X186935000Y-69185983D01*
X186935000Y-68814017D01*
X186792655Y-68470365D01*
X186529635Y-68207345D01*
X186185983Y-68065000D01*
X185814017Y-68065000D01*
X185470365Y-68207345D01*
X185207345Y-68470365D01*
X185065000Y-68814017D01*
X185065000Y-69185983D01*
X185207345Y-69529635D01*
X185240000Y-69562290D01*
X185240001Y-72685197D01*
X184052198Y-73873000D01*
X181760000Y-73873000D01*
X181760000Y-72074846D01*
X181774888Y-71999999D01*
X181760000Y-71925152D01*
X181760000Y-71925148D01*
X181737567Y-71812368D01*
X182065000Y-72139802D01*
X182065000Y-72185983D01*
X182207345Y-72529635D01*
X182470365Y-72792655D01*
X182814017Y-72935000D01*
X183185983Y-72935000D01*
X183529635Y-72792655D01*
X183792655Y-72529635D01*
X183935000Y-72185983D01*
X183935000Y-71935000D01*
X184185983Y-71935000D01*
X184529635Y-71792655D01*
X184792655Y-71529635D01*
X184935000Y-71185983D01*
X184935000Y-70814017D01*
X184792655Y-70470365D01*
X184529635Y-70207345D01*
X184185983Y-70065000D01*
X184139802Y-70065000D01*
X183760000Y-69685199D01*
X183760000Y-65273691D01*
X190490000Y-65273691D01*
X190490000Y-65714250D01*
X190648750Y-65873000D01*
X191873000Y-65873000D01*
X191873000Y-64923750D01*
X192127000Y-64923750D01*
X192127000Y-65873000D01*
X193351250Y-65873000D01*
X193510000Y-65714250D01*
X193510000Y-65273691D01*
X193413327Y-65040302D01*
X193234699Y-64861673D01*
X193001310Y-64765000D01*
X192285750Y-64765000D01*
X192127000Y-64923750D01*
X191873000Y-64923750D01*
X191714250Y-64765000D01*
X190998690Y-64765000D01*
X190765301Y-64861673D01*
X190586673Y-65040302D01*
X190490000Y-65273691D01*
X183760000Y-65273691D01*
X183760000Y-61252505D01*
X183890385Y-61165385D01*
X183921428Y-61118926D01*
X184015414Y-61259586D01*
X184306564Y-61454127D01*
X184649999Y-61522440D01*
X185350001Y-61522440D01*
X185693436Y-61454127D01*
X185984586Y-61259586D01*
X186179127Y-60968436D01*
X186247440Y-60625001D01*
X186247440Y-59374999D01*
X186179127Y-59031564D01*
X185984586Y-58740414D01*
X185693436Y-58545873D01*
X185591486Y-58525594D01*
X188615000Y-58525594D01*
X188615000Y-59474406D01*
X188978095Y-60350994D01*
X189649006Y-61021905D01*
X190525594Y-61385000D01*
X191474406Y-61385000D01*
X192350994Y-61021905D01*
X193021905Y-60350994D01*
X193385000Y-59474406D01*
X193385000Y-58525594D01*
X193021905Y-57649006D01*
X192350994Y-56978095D01*
X191474406Y-56615000D01*
X190525594Y-56615000D01*
X189649006Y-56978095D01*
X188978095Y-57649006D01*
X188615000Y-58525594D01*
X185591486Y-58525594D01*
X185350001Y-58477560D01*
X184649999Y-58477560D01*
X184306564Y-58545873D01*
X184015414Y-58740414D01*
X183921428Y-58881074D01*
X183890385Y-58834615D01*
X183481873Y-58561656D01*
X183000000Y-58465805D01*
X182518128Y-58561656D01*
X182109616Y-58834615D01*
X182000000Y-58998666D01*
X181890385Y-58834615D01*
X181481873Y-58561656D01*
X181000000Y-58465805D01*
X180518128Y-58561656D01*
X180109616Y-58834615D01*
X179836656Y-59243127D01*
X179765000Y-59603364D01*
X179765000Y-60396635D01*
X179836656Y-60756872D01*
X180109615Y-61165385D01*
X180240001Y-61252506D01*
X180240000Y-63074851D01*
X180240001Y-63074856D01*
X180240000Y-69925153D01*
X180225112Y-70000000D01*
X180240000Y-70074847D01*
X180240000Y-70074851D01*
X180262434Y-70187632D01*
X179760000Y-69685199D01*
X179760000Y-68562290D01*
X179792655Y-68529635D01*
X179935000Y-68185983D01*
X179935000Y-67814017D01*
X179792655Y-67470365D01*
X179529635Y-67207345D01*
X179185983Y-67065000D01*
X178814017Y-67065000D01*
X178470365Y-67207345D01*
X178207345Y-67470365D01*
X178065000Y-67814017D01*
X178065000Y-68185983D01*
X178207345Y-68529635D01*
X178240001Y-68562291D01*
X178240000Y-69925153D01*
X178225112Y-70000000D01*
X178240000Y-70074847D01*
X178240000Y-70074851D01*
X178284096Y-70296536D01*
X178322980Y-70354730D01*
X178207345Y-70470365D01*
X178065000Y-70814017D01*
X178065000Y-71185983D01*
X178207345Y-71529635D01*
X178240001Y-71562291D01*
X178240000Y-73437710D01*
X178207345Y-73470365D01*
X178065000Y-73814017D01*
X178065000Y-73873000D01*
X168760000Y-73873000D01*
X168760000Y-72562290D01*
X168792655Y-72529635D01*
X168935000Y-72185983D01*
X168935000Y-71814017D01*
X168792655Y-71470365D01*
X168529635Y-71207345D01*
X168185983Y-71065000D01*
X167814017Y-71065000D01*
X167470365Y-71207345D01*
X167207345Y-71470365D01*
X167065000Y-71814017D01*
X167065000Y-72185983D01*
X167207345Y-72529635D01*
X167240001Y-72562291D01*
X167240001Y-73873000D01*
X166000000Y-73873000D01*
X165951399Y-73882667D01*
X165910197Y-73910197D01*
X165882667Y-73951399D01*
X165873000Y-74000000D01*
X165873000Y-77173904D01*
X165674199Y-77213448D01*
X165397999Y-77397999D01*
X165351415Y-77467718D01*
X164711788Y-78107344D01*
X164470365Y-78207345D01*
X164207345Y-78470365D01*
X164065000Y-78814017D01*
X164065000Y-79185983D01*
X164207345Y-79529635D01*
X164470365Y-79792655D01*
X164814017Y-79935000D01*
X165185983Y-79935000D01*
X165529635Y-79792655D01*
X165792655Y-79529635D01*
X165873000Y-79335666D01*
X165873000Y-91594711D01*
X157619190Y-99848521D01*
X157540000Y-99832769D01*
X156997649Y-99940649D01*
X156537866Y-100247867D01*
X156270000Y-100648757D01*
X156002133Y-100247866D01*
X155542350Y-99940649D01*
X155000000Y-99832769D01*
X154457649Y-99940649D01*
X153997866Y-100247867D01*
X153690649Y-100707650D01*
X153610000Y-101113101D01*
X153610000Y-102886900D01*
X153690650Y-103292351D01*
X153997867Y-103752134D01*
X154457650Y-104059351D01*
X155000000Y-104167231D01*
X155542351Y-104059351D01*
X156002134Y-103752134D01*
X156270001Y-103351243D01*
X156537867Y-103752134D01*
X156997650Y-104059351D01*
X157540000Y-104167231D01*
X158082351Y-104059351D01*
X158542134Y-103752134D01*
X158849351Y-103292351D01*
X158930000Y-102886900D01*
X158930000Y-101182289D01*
X165873000Y-94239289D01*
X165873000Y-96000000D01*
X165882667Y-96048601D01*
X165910197Y-96089803D01*
X165951399Y-96117333D01*
X166000000Y-96127000D01*
X168217946Y-96127000D01*
X168268690Y-96249507D01*
X168669183Y-96650000D01*
X168268690Y-97050493D01*
X168035000Y-97614670D01*
X168035000Y-98225330D01*
X168268690Y-98789507D01*
X168669183Y-99190000D01*
X168268690Y-99590493D01*
X168035000Y-100154670D01*
X168035000Y-100765330D01*
X168268690Y-101329507D01*
X168669183Y-101730000D01*
X168268690Y-102130493D01*
X168035000Y-102694670D01*
X168035000Y-103305330D01*
X168268690Y-103869507D01*
X168669183Y-104270000D01*
X168268690Y-104670493D01*
X168035000Y-105234670D01*
X168035000Y-105845330D01*
X168268690Y-106409507D01*
X168700493Y-106841310D01*
X168720115Y-106849438D01*
X168669446Y-106999841D01*
X169570000Y-107900395D01*
X170470554Y-106999841D01*
X170419885Y-106849438D01*
X170439507Y-106841310D01*
X170871310Y-106409507D01*
X171105000Y-105845330D01*
X171105000Y-105234670D01*
X170871310Y-104670493D01*
X170470817Y-104270000D01*
X170871310Y-103869507D01*
X171105000Y-103305330D01*
X171105000Y-102694670D01*
X170871310Y-102130493D01*
X170470817Y-101730000D01*
X170871310Y-101329507D01*
X171105000Y-100765330D01*
X171105000Y-100320001D01*
X171365152Y-100320001D01*
X171439999Y-100334889D01*
X171514846Y-100320001D01*
X171514851Y-100320001D01*
X171736536Y-100275905D01*
X171987928Y-100107930D01*
X172030330Y-100044471D01*
X173139802Y-98935000D01*
X173185983Y-98935000D01*
X173529635Y-98792655D01*
X173792655Y-98529635D01*
X173935000Y-98185983D01*
X173935000Y-97814017D01*
X173792655Y-97470365D01*
X173529635Y-97207345D01*
X173185983Y-97065000D01*
X172814017Y-97065000D01*
X172470365Y-97207345D01*
X172207345Y-97470365D01*
X172065000Y-97814017D01*
X172065000Y-97860198D01*
X171125198Y-98800001D01*
X170860816Y-98800001D01*
X170871310Y-98789507D01*
X171105000Y-98225330D01*
X171105000Y-97614670D01*
X170871310Y-97050493D01*
X170470817Y-96650000D01*
X170871310Y-96249507D01*
X170922054Y-96127000D01*
X181240001Y-96127000D01*
X181240000Y-97685198D01*
X178685199Y-100240000D01*
X177562290Y-100240000D01*
X177529635Y-100207345D01*
X177185983Y-100065000D01*
X176814017Y-100065000D01*
X176470365Y-100207345D01*
X176207345Y-100470365D01*
X176065000Y-100814017D01*
X176065000Y-101185983D01*
X176207345Y-101529635D01*
X176470365Y-101792655D01*
X176814017Y-101935000D01*
X177185983Y-101935000D01*
X177529635Y-101792655D01*
X177562290Y-101760000D01*
X178925153Y-101760000D01*
X179000000Y-101774888D01*
X179074847Y-101760000D01*
X179074852Y-101760000D01*
X179296537Y-101715904D01*
X179547929Y-101547929D01*
X179590331Y-101484470D01*
X182313756Y-98761046D01*
X182470365Y-98917655D01*
X182814017Y-99060000D01*
X183185983Y-99060000D01*
X183240001Y-99037625D01*
X183240000Y-99685198D01*
X182860199Y-100065000D01*
X182814017Y-100065000D01*
X182470365Y-100207345D01*
X182207345Y-100470365D01*
X182065000Y-100814017D01*
X182065000Y-101185983D01*
X182207345Y-101529635D01*
X182470365Y-101792655D01*
X182814017Y-101935000D01*
X183185983Y-101935000D01*
X183529635Y-101792655D01*
X183792655Y-101529635D01*
X183935000Y-101185983D01*
X183935000Y-101139801D01*
X184484473Y-100590329D01*
X184547929Y-100547929D01*
X184715904Y-100296537D01*
X184760000Y-100074852D01*
X184760000Y-100074848D01*
X184774888Y-100000000D01*
X184760000Y-99925152D01*
X184760000Y-98562290D01*
X184792655Y-98529635D01*
X184935000Y-98185983D01*
X184935000Y-97814017D01*
X184792655Y-97470365D01*
X184529635Y-97207345D01*
X184185983Y-97065000D01*
X183933336Y-97065000D01*
X183935000Y-97060983D01*
X183935000Y-96689017D01*
X183792655Y-96345365D01*
X183574290Y-96127000D01*
X189065001Y-96127000D01*
X189065000Y-101814017D01*
X189065000Y-102185983D01*
X189100933Y-102272734D01*
X189119250Y-102364818D01*
X189171411Y-102442883D01*
X189207345Y-102529635D01*
X189273741Y-102596031D01*
X189325903Y-102674097D01*
X189403969Y-102726259D01*
X189470365Y-102792655D01*
X189557115Y-102828588D01*
X189635181Y-102880750D01*
X189727267Y-102899067D01*
X189814017Y-102935000D01*
X189907914Y-102935000D01*
X190000000Y-102953317D01*
X190092086Y-102935000D01*
X190185983Y-102935000D01*
X190272734Y-102899067D01*
X190364818Y-102880750D01*
X190442883Y-102828589D01*
X190529635Y-102792655D01*
X190596031Y-102726259D01*
X190674097Y-102674097D01*
X190726259Y-102596031D01*
X190792655Y-102529635D01*
X190828588Y-102442885D01*
X190880750Y-102364819D01*
X190899067Y-102272733D01*
X190935000Y-102185983D01*
X190935000Y-100861898D01*
X191128690Y-101329507D01*
X191529183Y-101730000D01*
X191128690Y-102130493D01*
X190895000Y-102694670D01*
X190895000Y-103305330D01*
X191128690Y-103869507D01*
X191529183Y-104270000D01*
X191128690Y-104670493D01*
X190895000Y-105234670D01*
X190895000Y-105845330D01*
X191128690Y-106409507D01*
X191529183Y-106810000D01*
X191128690Y-107210493D01*
X190895000Y-107774670D01*
X190895000Y-108385330D01*
X191128690Y-108949507D01*
X191529183Y-109350000D01*
X191128690Y-109750493D01*
X190895000Y-110314670D01*
X190895000Y-110925330D01*
X191128690Y-111489507D01*
X191560493Y-111921310D01*
X192124670Y-112155000D01*
X192735330Y-112155000D01*
X193299507Y-111921310D01*
X193731310Y-111489507D01*
X193965000Y-110925330D01*
X193965000Y-110314670D01*
X193731310Y-109750493D01*
X193330817Y-109350000D01*
X193731310Y-108949507D01*
X193965000Y-108385330D01*
X193965000Y-107774670D01*
X193731310Y-107210493D01*
X193330817Y-106810000D01*
X193731310Y-106409507D01*
X193965000Y-105845330D01*
X193965000Y-105234670D01*
X193731310Y-104670493D01*
X193330817Y-104270000D01*
X193731310Y-103869507D01*
X193965000Y-103305330D01*
X193965000Y-102694670D01*
X193731310Y-102130493D01*
X193330817Y-101730000D01*
X193731310Y-101329507D01*
X193965000Y-100765330D01*
X193965000Y-100154670D01*
X193731310Y-99590493D01*
X193330817Y-99190000D01*
X193731310Y-98789507D01*
X193965000Y-98225330D01*
X193965000Y-97614670D01*
X193731310Y-97050493D01*
X193330817Y-96650000D01*
X193731310Y-96249507D01*
X193782054Y-96127000D01*
X194290001Y-96127000D01*
X194290001Y-119290000D01*
X150710000Y-119290000D01*
X150710000Y-115525594D01*
X151615000Y-115525594D01*
X151615000Y-116474406D01*
X151978095Y-117350994D01*
X152649006Y-118021905D01*
X153525594Y-118385000D01*
X154474406Y-118385000D01*
X155350994Y-118021905D01*
X156021905Y-117350994D01*
X156385000Y-116474406D01*
X156385000Y-115525594D01*
X188615000Y-115525594D01*
X188615000Y-116474406D01*
X188978095Y-117350994D01*
X189649006Y-118021905D01*
X190525594Y-118385000D01*
X191474406Y-118385000D01*
X192350994Y-118021905D01*
X193021905Y-117350994D01*
X193385000Y-116474406D01*
X193385000Y-115525594D01*
X193021905Y-114649006D01*
X192350994Y-113978095D01*
X191474406Y-113615000D01*
X190525594Y-113615000D01*
X189649006Y-113978095D01*
X188978095Y-114649006D01*
X188615000Y-115525594D01*
X156385000Y-115525594D01*
X156021905Y-114649006D01*
X155350994Y-113978095D01*
X154474406Y-113615000D01*
X153525594Y-113615000D01*
X152649006Y-113978095D01*
X151978095Y-114649006D01*
X151615000Y-115525594D01*
X150710000Y-115525594D01*
X150710000Y-113315750D01*
X159765000Y-113315750D01*
X159765000Y-114006310D01*
X159861673Y-114239699D01*
X160040302Y-114418327D01*
X160273691Y-114515000D01*
X160714250Y-114515000D01*
X160873000Y-114356250D01*
X160873000Y-113157000D01*
X159923750Y-113157000D01*
X159765000Y-113315750D01*
X150710000Y-113315750D01*
X150710000Y-112053690D01*
X159765000Y-112053690D01*
X159765000Y-112744250D01*
X159923750Y-112903000D01*
X160873000Y-112903000D01*
X160873000Y-111703750D01*
X161127000Y-111703750D01*
X161127000Y-112903000D01*
X161147000Y-112903000D01*
X161147000Y-113157000D01*
X161127000Y-113157000D01*
X161127000Y-114356250D01*
X161285750Y-114515000D01*
X161726309Y-114515000D01*
X161959698Y-114418327D01*
X162138327Y-114239699D01*
X162154590Y-114200436D01*
X162518128Y-114443344D01*
X163000000Y-114539195D01*
X163481873Y-114443344D01*
X163890385Y-114170385D01*
X164000000Y-114006334D01*
X164109616Y-114170385D01*
X164518128Y-114443344D01*
X165000000Y-114539195D01*
X165481873Y-114443344D01*
X165890385Y-114170385D01*
X166163344Y-113761872D01*
X166235000Y-113401635D01*
X166235000Y-112658364D01*
X166163344Y-112298127D01*
X165890385Y-111889615D01*
X165481872Y-111616656D01*
X165000000Y-111520805D01*
X164518127Y-111616656D01*
X164109615Y-111889615D01*
X164000000Y-112053666D01*
X163890385Y-111889615D01*
X163481872Y-111616656D01*
X163000000Y-111520805D01*
X162518127Y-111616656D01*
X162154590Y-111859564D01*
X162138327Y-111820301D01*
X161959698Y-111641673D01*
X161726309Y-111545000D01*
X161285750Y-111545000D01*
X161127000Y-111703750D01*
X160873000Y-111703750D01*
X160714250Y-111545000D01*
X160273691Y-111545000D01*
X160040302Y-111641673D01*
X159861673Y-111820301D01*
X159765000Y-112053690D01*
X150710000Y-112053690D01*
X150710000Y-110314670D01*
X168035000Y-110314670D01*
X168035000Y-110925330D01*
X168268690Y-111489507D01*
X168700493Y-111921310D01*
X169047391Y-112065000D01*
X168814017Y-112065000D01*
X168470365Y-112207345D01*
X168207345Y-112470365D01*
X168065000Y-112814017D01*
X168065000Y-113185983D01*
X168207345Y-113529635D01*
X168470365Y-113792655D01*
X168814017Y-113935000D01*
X169185983Y-113935000D01*
X169529635Y-113792655D01*
X169562290Y-113760000D01*
X172437710Y-113760000D01*
X172470365Y-113792655D01*
X172814017Y-113935000D01*
X173185983Y-113935000D01*
X173529635Y-113792655D01*
X173792655Y-113529635D01*
X173935000Y-113185983D01*
X173935000Y-112814017D01*
X173792655Y-112470365D01*
X173529635Y-112207345D01*
X173185983Y-112065000D01*
X172814017Y-112065000D01*
X172470365Y-112207345D01*
X172437710Y-112240000D01*
X169562290Y-112240000D01*
X169529635Y-112207345D01*
X169403263Y-112155000D01*
X169875330Y-112155000D01*
X170439507Y-111921310D01*
X170871310Y-111489507D01*
X171105000Y-110925330D01*
X171105000Y-110314670D01*
X170897623Y-109814017D01*
X187065000Y-109814017D01*
X187065000Y-110185983D01*
X187207345Y-110529635D01*
X187470365Y-110792655D01*
X187814017Y-110935000D01*
X188185983Y-110935000D01*
X188529635Y-110792655D01*
X188792655Y-110529635D01*
X188935000Y-110185983D01*
X188935000Y-110139801D01*
X190484473Y-108590329D01*
X190547929Y-108547929D01*
X190715904Y-108296537D01*
X190760000Y-108074852D01*
X190760000Y-108074848D01*
X190774888Y-108000001D01*
X190760000Y-107925154D01*
X190760000Y-107562290D01*
X190792655Y-107529635D01*
X190935000Y-107185983D01*
X190935000Y-106814017D01*
X190792655Y-106470365D01*
X190529635Y-106207345D01*
X190185983Y-106065000D01*
X189814017Y-106065000D01*
X189470365Y-106207345D01*
X189207345Y-106470365D01*
X189065000Y-106814017D01*
X189065000Y-107185983D01*
X189207345Y-107529635D01*
X189240001Y-107562291D01*
X189240001Y-107685197D01*
X187860199Y-109065000D01*
X187814017Y-109065000D01*
X187470365Y-109207345D01*
X187207345Y-109470365D01*
X187065000Y-109814017D01*
X170897623Y-109814017D01*
X170871310Y-109750493D01*
X170439507Y-109318690D01*
X170419885Y-109310562D01*
X170470554Y-109160159D01*
X169570000Y-108259605D01*
X168669446Y-109160159D01*
X168720115Y-109310562D01*
X168700493Y-109318690D01*
X168268690Y-109750493D01*
X168035000Y-110314670D01*
X150710000Y-110314670D01*
X150710000Y-107839336D01*
X168023542Y-107839336D01*
X168049161Y-108449460D01*
X168233357Y-108894148D01*
X168489841Y-108980554D01*
X169390395Y-108080000D01*
X169749605Y-108080000D01*
X170650159Y-108980554D01*
X170906643Y-108894148D01*
X171116458Y-108320664D01*
X171090839Y-107710540D01*
X170906643Y-107265852D01*
X170650159Y-107179446D01*
X169749605Y-108080000D01*
X169390395Y-108080000D01*
X168489841Y-107179446D01*
X168233357Y-107265852D01*
X168023542Y-107839336D01*
X150710000Y-107839336D01*
X150710000Y-75814017D01*
X151065000Y-75814017D01*
X151065000Y-76185983D01*
X151065001Y-76185985D01*
X151065000Y-97814017D01*
X151065000Y-98185983D01*
X151100933Y-98272734D01*
X151119250Y-98364818D01*
X151171411Y-98442883D01*
X151207345Y-98529635D01*
X151273741Y-98596031D01*
X151325903Y-98674097D01*
X151403969Y-98726259D01*
X151470365Y-98792655D01*
X151557115Y-98828588D01*
X151635181Y-98880750D01*
X151727267Y-98899067D01*
X151814017Y-98935000D01*
X151907914Y-98935000D01*
X152000000Y-98953317D01*
X152092086Y-98935000D01*
X152185983Y-98935000D01*
X152272734Y-98899067D01*
X152364818Y-98880750D01*
X152442883Y-98828589D01*
X152529635Y-98792655D01*
X152596031Y-98726259D01*
X152674097Y-98674097D01*
X152726259Y-98596031D01*
X152792655Y-98529635D01*
X152828588Y-98442885D01*
X152880750Y-98364819D01*
X152899067Y-98272733D01*
X152935000Y-98185983D01*
X152935000Y-81200000D01*
X154552560Y-81200000D01*
X154552560Y-82800000D01*
X154601843Y-83047765D01*
X154742191Y-83257809D01*
X154952235Y-83398157D01*
X155200000Y-83447440D01*
X156800000Y-83447440D01*
X157047765Y-83398157D01*
X157257809Y-83257809D01*
X157398157Y-83047765D01*
X157447440Y-82800000D01*
X157447440Y-81200000D01*
X157398157Y-80952235D01*
X157257809Y-80742191D01*
X157047765Y-80601843D01*
X156813813Y-80555307D01*
X156828139Y-80507745D01*
X156000000Y-79679605D01*
X155171861Y-80507745D01*
X155186187Y-80555307D01*
X154952235Y-80601843D01*
X154742191Y-80742191D01*
X154601843Y-80952235D01*
X154552560Y-81200000D01*
X152935000Y-81200000D01*
X152935000Y-79283223D01*
X154553035Y-79283223D01*
X154580222Y-79853454D01*
X154746136Y-80254005D01*
X154992255Y-80328139D01*
X155820395Y-79500000D01*
X156179605Y-79500000D01*
X157007745Y-80328139D01*
X157253864Y-80254005D01*
X157446965Y-79716777D01*
X157419778Y-79146546D01*
X157253864Y-78745995D01*
X157007745Y-78671861D01*
X156179605Y-79500000D01*
X155820395Y-79500000D01*
X154992255Y-78671861D01*
X154746136Y-78745995D01*
X154553035Y-79283223D01*
X152935000Y-79283223D01*
X152935000Y-78492255D01*
X155171861Y-78492255D01*
X156000000Y-79320395D01*
X156828139Y-78492255D01*
X156754005Y-78246136D01*
X156216777Y-78053035D01*
X155646546Y-78080222D01*
X155245995Y-78246136D01*
X155171861Y-78492255D01*
X152935000Y-78492255D01*
X152935000Y-75814017D01*
X152899067Y-75727267D01*
X152880750Y-75635181D01*
X152828588Y-75557115D01*
X152792655Y-75470365D01*
X152726259Y-75403969D01*
X152674097Y-75325903D01*
X152596031Y-75273741D01*
X152529635Y-75207345D01*
X152442885Y-75171412D01*
X152364819Y-75119250D01*
X152272733Y-75100933D01*
X152185983Y-75065000D01*
X152092086Y-75065000D01*
X152000000Y-75046683D01*
X151907914Y-75065000D01*
X151814017Y-75065000D01*
X151727266Y-75100933D01*
X151635182Y-75119250D01*
X151557118Y-75171411D01*
X151470365Y-75207345D01*
X151403967Y-75273743D01*
X151325904Y-75325903D01*
X151273744Y-75403966D01*
X151207345Y-75470365D01*
X151171410Y-75557119D01*
X151119251Y-75635181D01*
X151100935Y-75727262D01*
X151065000Y-75814017D01*
X150710000Y-75814017D01*
X150710000Y-71000000D01*
X155046683Y-71000000D01*
X155065000Y-71092086D01*
X155065000Y-71185983D01*
X155100933Y-71272734D01*
X155119250Y-71364818D01*
X155171411Y-71442881D01*
X155207345Y-71529635D01*
X155273745Y-71596035D01*
X155325904Y-71674096D01*
X155403965Y-71726255D01*
X155470365Y-71792655D01*
X155557119Y-71828589D01*
X155635182Y-71880750D01*
X155727266Y-71899067D01*
X155814017Y-71935000D01*
X155907914Y-71935000D01*
X156000000Y-71953317D01*
X156092086Y-71935000D01*
X156185983Y-71935000D01*
X156272734Y-71899067D01*
X156364818Y-71880750D01*
X156442882Y-71828589D01*
X156529635Y-71792655D01*
X156792655Y-71529635D01*
X156792656Y-71529633D01*
X157387289Y-70935000D01*
X161185983Y-70935000D01*
X161272733Y-70899067D01*
X161364819Y-70880750D01*
X161442885Y-70828588D01*
X161529635Y-70792655D01*
X161596031Y-70726259D01*
X161674097Y-70674097D01*
X161726260Y-70596030D01*
X161792655Y-70529635D01*
X161828588Y-70442885D01*
X161880750Y-70364819D01*
X161899067Y-70272733D01*
X161935000Y-70185983D01*
X161935000Y-70092086D01*
X161953317Y-70000000D01*
X161935000Y-69907914D01*
X161935000Y-69814017D01*
X161899067Y-69727267D01*
X161880750Y-69635181D01*
X161828588Y-69557115D01*
X161792655Y-69470365D01*
X161726259Y-69403969D01*
X161674097Y-69325903D01*
X161596031Y-69273741D01*
X161529635Y-69207345D01*
X161442885Y-69171412D01*
X161364819Y-69119250D01*
X161272733Y-69100933D01*
X161185983Y-69065000D01*
X157092086Y-69065000D01*
X157000000Y-69046683D01*
X156907914Y-69065000D01*
X156635181Y-69119250D01*
X156325903Y-69325903D01*
X156273739Y-69403972D01*
X155470367Y-70207344D01*
X155470365Y-70207345D01*
X155207345Y-70470365D01*
X155171411Y-70557118D01*
X155119250Y-70635182D01*
X155100933Y-70727266D01*
X155065000Y-70814017D01*
X155065000Y-70907914D01*
X155046683Y-71000000D01*
X150710000Y-71000000D01*
X150710000Y-58525594D01*
X151615000Y-58525594D01*
X151615000Y-59474406D01*
X151978095Y-60350994D01*
X152649006Y-61021905D01*
X153525594Y-61385000D01*
X154474406Y-61385000D01*
X155350994Y-61021905D01*
X156021905Y-60350994D01*
X156114686Y-60127000D01*
X158765000Y-60127000D01*
X158765000Y-60402000D01*
X158907610Y-60864947D01*
X159216526Y-61238080D01*
X159644719Y-61464592D01*
X159682391Y-61468462D01*
X159873000Y-61343731D01*
X159873000Y-60127000D01*
X158765000Y-60127000D01*
X156114686Y-60127000D01*
X156333805Y-59598000D01*
X158765000Y-59598000D01*
X158765000Y-59873000D01*
X159873000Y-59873000D01*
X159873000Y-58656269D01*
X160127000Y-58656269D01*
X160127000Y-59873000D01*
X160147000Y-59873000D01*
X160147000Y-60127000D01*
X160127000Y-60127000D01*
X160127000Y-61343731D01*
X160317609Y-61468462D01*
X160355281Y-61464592D01*
X160783474Y-61238080D01*
X160990833Y-60987615D01*
X161109615Y-61165385D01*
X161518127Y-61438344D01*
X162000000Y-61534195D01*
X162481872Y-61438344D01*
X162890385Y-61165385D01*
X163000000Y-61001334D01*
X163109615Y-61165385D01*
X163518127Y-61438344D01*
X164000000Y-61534195D01*
X164481872Y-61438344D01*
X164890385Y-61165385D01*
X164921428Y-61118926D01*
X165015414Y-61259586D01*
X165165000Y-61359537D01*
X165165000Y-61654132D01*
X164654133Y-62165000D01*
X163082237Y-62165000D01*
X163000000Y-62148642D01*
X162917763Y-62165000D01*
X162674199Y-62213448D01*
X162397999Y-62397999D01*
X162351415Y-62467717D01*
X161711788Y-63107344D01*
X161470365Y-63207345D01*
X161207345Y-63470365D01*
X161065000Y-63814017D01*
X161065000Y-64185983D01*
X161207345Y-64529635D01*
X161470365Y-64792655D01*
X161814017Y-64935000D01*
X162185983Y-64935000D01*
X162529635Y-64792655D01*
X162792655Y-64529635D01*
X162892656Y-64288212D01*
X163345868Y-63835000D01*
X164917767Y-63835000D01*
X165000000Y-63851357D01*
X165082233Y-63835000D01*
X165082237Y-63835000D01*
X165325801Y-63786552D01*
X165602001Y-63602001D01*
X165648587Y-63532280D01*
X166532283Y-62648585D01*
X166602001Y-62602001D01*
X166786552Y-62325801D01*
X166835000Y-62082237D01*
X166835000Y-62082236D01*
X166851358Y-62000000D01*
X166835000Y-61917763D01*
X166835000Y-61359537D01*
X166984586Y-61259586D01*
X167179127Y-60968436D01*
X167247440Y-60625001D01*
X167247440Y-59603364D01*
X170265000Y-59603364D01*
X170265000Y-60396635D01*
X170336656Y-60756872D01*
X170609615Y-61165385D01*
X171018127Y-61438344D01*
X171500000Y-61534195D01*
X171981872Y-61438344D01*
X172390385Y-61165385D01*
X172500000Y-61001334D01*
X172609615Y-61165385D01*
X173018127Y-61438344D01*
X173500000Y-61534195D01*
X173981872Y-61438344D01*
X174390385Y-61165385D01*
X174421428Y-61118926D01*
X174515414Y-61259586D01*
X174806564Y-61454127D01*
X175149999Y-61522440D01*
X175850001Y-61522440D01*
X176193436Y-61454127D01*
X176484586Y-61259586D01*
X176679127Y-60968436D01*
X176747440Y-60625001D01*
X176747440Y-59374999D01*
X176679127Y-59031564D01*
X176484586Y-58740414D01*
X176193436Y-58545873D01*
X175850001Y-58477560D01*
X175149999Y-58477560D01*
X174806564Y-58545873D01*
X174515414Y-58740414D01*
X174421428Y-58881074D01*
X174390385Y-58834615D01*
X173981873Y-58561656D01*
X173500000Y-58465805D01*
X173018128Y-58561656D01*
X172609616Y-58834615D01*
X172500000Y-58998666D01*
X172390385Y-58834615D01*
X171981873Y-58561656D01*
X171500000Y-58465805D01*
X171018128Y-58561656D01*
X170609616Y-58834615D01*
X170336656Y-59243127D01*
X170265000Y-59603364D01*
X167247440Y-59603364D01*
X167247440Y-59374999D01*
X167179127Y-59031564D01*
X166984586Y-58740414D01*
X166693436Y-58545873D01*
X166350001Y-58477560D01*
X165649999Y-58477560D01*
X165306564Y-58545873D01*
X165015414Y-58740414D01*
X164921428Y-58881074D01*
X164890385Y-58834615D01*
X164481873Y-58561656D01*
X164000000Y-58465805D01*
X163518128Y-58561656D01*
X163109616Y-58834615D01*
X163000000Y-58998666D01*
X162890385Y-58834615D01*
X162481873Y-58561656D01*
X162000000Y-58465805D01*
X161518128Y-58561656D01*
X161109616Y-58834615D01*
X160990833Y-59012385D01*
X160783474Y-58761920D01*
X160355281Y-58535408D01*
X160317609Y-58531538D01*
X160127000Y-58656269D01*
X159873000Y-58656269D01*
X159682391Y-58531538D01*
X159644719Y-58535408D01*
X159216526Y-58761920D01*
X158907610Y-59135053D01*
X158765000Y-59598000D01*
X156333805Y-59598000D01*
X156385000Y-59474406D01*
X156385000Y-58525594D01*
X156021905Y-57649006D01*
X155350994Y-56978095D01*
X154474406Y-56615000D01*
X153525594Y-56615000D01*
X152649006Y-56978095D01*
X151978095Y-57649006D01*
X151615000Y-58525594D01*
X150710000Y-58525594D01*
X150710000Y-55710000D01*
X194290000Y-55710000D01*
X194290000Y-68112382D01*
X194290000Y-68112382D01*
G37*
X194290000Y-68112382D02*
X194202930Y-67982072D01*
X194139473Y-67939672D01*
X193715331Y-67515530D01*
X193672929Y-67452071D01*
X193421537Y-67284096D01*
X193260576Y-67252079D01*
X193195436Y-67154590D01*
X193234699Y-67138327D01*
X193413327Y-66959698D01*
X193510000Y-66726309D01*
X193510000Y-66285750D01*
X193351250Y-66127000D01*
X192127000Y-66127000D01*
X192127000Y-66147000D01*
X191873000Y-66147000D01*
X191873000Y-66127000D01*
X190648750Y-66127000D01*
X190490000Y-66285750D01*
X190490000Y-66726309D01*
X190586673Y-66959698D01*
X190765301Y-67138327D01*
X190804564Y-67154590D01*
X190561656Y-67518127D01*
X190465805Y-68000000D01*
X190561656Y-68481873D01*
X190834615Y-68890385D01*
X190998665Y-69000000D01*
X190834615Y-69109615D01*
X190561656Y-69518127D01*
X190465805Y-70000000D01*
X190561656Y-70481873D01*
X190834615Y-70890385D01*
X191243127Y-71163344D01*
X191603364Y-71235000D01*
X192396636Y-71235000D01*
X192756873Y-71163344D01*
X192895002Y-71071049D01*
X192895002Y-73873000D01*
X186201802Y-73873000D01*
X186484473Y-73590329D01*
X186547929Y-73547929D01*
X186611979Y-73452071D01*
X186715904Y-73296538D01*
X186725480Y-73248395D01*
X186760000Y-73074852D01*
X186760000Y-73074848D01*
X186774888Y-73000000D01*
X186760000Y-72925152D01*
X186760000Y-69562290D01*
X186792655Y-69529635D01*
X186935000Y-69185983D01*
X186935000Y-68814017D01*
X186792655Y-68470365D01*
X186529635Y-68207345D01*
X186185983Y-68065000D01*
X185814017Y-68065000D01*
X185470365Y-68207345D01*
X185207345Y-68470365D01*
X185065000Y-68814017D01*
X185065000Y-69185983D01*
X185207345Y-69529635D01*
X185240000Y-69562290D01*
X185240001Y-72685197D01*
X184052198Y-73873000D01*
X181760000Y-73873000D01*
X181760000Y-72074846D01*
X181774888Y-71999999D01*
X181760000Y-71925152D01*
X181760000Y-71925148D01*
X181737567Y-71812368D01*
X182065000Y-72139802D01*
X182065000Y-72185983D01*
X182207345Y-72529635D01*
X182470365Y-72792655D01*
X182814017Y-72935000D01*
X183185983Y-72935000D01*
X183529635Y-72792655D01*
X183792655Y-72529635D01*
X183935000Y-72185983D01*
X183935000Y-71935000D01*
X184185983Y-71935000D01*
X184529635Y-71792655D01*
X184792655Y-71529635D01*
X184935000Y-71185983D01*
X184935000Y-70814017D01*
X184792655Y-70470365D01*
X184529635Y-70207345D01*
X184185983Y-70065000D01*
X184139802Y-70065000D01*
X183760000Y-69685199D01*
X183760000Y-65273691D01*
X190490000Y-65273691D01*
X190490000Y-65714250D01*
X190648750Y-65873000D01*
X191873000Y-65873000D01*
X191873000Y-64923750D01*
X192127000Y-64923750D01*
X192127000Y-65873000D01*
X193351250Y-65873000D01*
X193510000Y-65714250D01*
X193510000Y-65273691D01*
X193413327Y-65040302D01*
X193234699Y-64861673D01*
X193001310Y-64765000D01*
X192285750Y-64765000D01*
X192127000Y-64923750D01*
X191873000Y-64923750D01*
X191714250Y-64765000D01*
X190998690Y-64765000D01*
X190765301Y-64861673D01*
X190586673Y-65040302D01*
X190490000Y-65273691D01*
X183760000Y-65273691D01*
X183760000Y-61252505D01*
X183890385Y-61165385D01*
X183921428Y-61118926D01*
X184015414Y-61259586D01*
X184306564Y-61454127D01*
X184649999Y-61522440D01*
X185350001Y-61522440D01*
X185693436Y-61454127D01*
X185984586Y-61259586D01*
X186179127Y-60968436D01*
X186247440Y-60625001D01*
X186247440Y-59374999D01*
X186179127Y-59031564D01*
X185984586Y-58740414D01*
X185693436Y-58545873D01*
X185591486Y-58525594D01*
X188615000Y-58525594D01*
X188615000Y-59474406D01*
X188978095Y-60350994D01*
X189649006Y-61021905D01*
X190525594Y-61385000D01*
X191474406Y-61385000D01*
X192350994Y-61021905D01*
X193021905Y-60350994D01*
X193385000Y-59474406D01*
X193385000Y-58525594D01*
X193021905Y-57649006D01*
X192350994Y-56978095D01*
X191474406Y-56615000D01*
X190525594Y-56615000D01*
X189649006Y-56978095D01*
X188978095Y-57649006D01*
X188615000Y-58525594D01*
X185591486Y-58525594D01*
X185350001Y-58477560D01*
X184649999Y-58477560D01*
X184306564Y-58545873D01*
X184015414Y-58740414D01*
X183921428Y-58881074D01*
X183890385Y-58834615D01*
X183481873Y-58561656D01*
X183000000Y-58465805D01*
X182518128Y-58561656D01*
X182109616Y-58834615D01*
X182000000Y-58998666D01*
X181890385Y-58834615D01*
X181481873Y-58561656D01*
X181000000Y-58465805D01*
X180518128Y-58561656D01*
X180109616Y-58834615D01*
X179836656Y-59243127D01*
X179765000Y-59603364D01*
X179765000Y-60396635D01*
X179836656Y-60756872D01*
X180109615Y-61165385D01*
X180240001Y-61252506D01*
X180240000Y-63074851D01*
X180240001Y-63074856D01*
X180240000Y-69925153D01*
X180225112Y-70000000D01*
X180240000Y-70074847D01*
X180240000Y-70074851D01*
X180262434Y-70187632D01*
X179760000Y-69685199D01*
X179760000Y-68562290D01*
X179792655Y-68529635D01*
X179935000Y-68185983D01*
X179935000Y-67814017D01*
X179792655Y-67470365D01*
X179529635Y-67207345D01*
X179185983Y-67065000D01*
X178814017Y-67065000D01*
X178470365Y-67207345D01*
X178207345Y-67470365D01*
X178065000Y-67814017D01*
X178065000Y-68185983D01*
X178207345Y-68529635D01*
X178240001Y-68562291D01*
X178240000Y-69925153D01*
X178225112Y-70000000D01*
X178240000Y-70074847D01*
X178240000Y-70074851D01*
X178284096Y-70296536D01*
X178322980Y-70354730D01*
X178207345Y-70470365D01*
X178065000Y-70814017D01*
X178065000Y-71185983D01*
X178207345Y-71529635D01*
X178240001Y-71562291D01*
X178240000Y-73437710D01*
X178207345Y-73470365D01*
X178065000Y-73814017D01*
X178065000Y-73873000D01*
X168760000Y-73873000D01*
X168760000Y-72562290D01*
X168792655Y-72529635D01*
X168935000Y-72185983D01*
X168935000Y-71814017D01*
X168792655Y-71470365D01*
X168529635Y-71207345D01*
X168185983Y-71065000D01*
X167814017Y-71065000D01*
X167470365Y-71207345D01*
X167207345Y-71470365D01*
X167065000Y-71814017D01*
X167065000Y-72185983D01*
X167207345Y-72529635D01*
X167240001Y-72562291D01*
X167240001Y-73873000D01*
X166000000Y-73873000D01*
X165951399Y-73882667D01*
X165910197Y-73910197D01*
X165882667Y-73951399D01*
X165873000Y-74000000D01*
X165873000Y-77173904D01*
X165674199Y-77213448D01*
X165397999Y-77397999D01*
X165351415Y-77467718D01*
X164711788Y-78107344D01*
X164470365Y-78207345D01*
X164207345Y-78470365D01*
X164065000Y-78814017D01*
X164065000Y-79185983D01*
X164207345Y-79529635D01*
X164470365Y-79792655D01*
X164814017Y-79935000D01*
X165185983Y-79935000D01*
X165529635Y-79792655D01*
X165792655Y-79529635D01*
X165873000Y-79335666D01*
X165873000Y-91594711D01*
X157619190Y-99848521D01*
X157540000Y-99832769D01*
X156997649Y-99940649D01*
X156537866Y-100247867D01*
X156270000Y-100648757D01*
X156002133Y-100247866D01*
X155542350Y-99940649D01*
X155000000Y-99832769D01*
X154457649Y-99940649D01*
X153997866Y-100247867D01*
X153690649Y-100707650D01*
X153610000Y-101113101D01*
X153610000Y-102886900D01*
X153690650Y-103292351D01*
X153997867Y-103752134D01*
X154457650Y-104059351D01*
X155000000Y-104167231D01*
X155542351Y-104059351D01*
X156002134Y-103752134D01*
X156270001Y-103351243D01*
X156537867Y-103752134D01*
X156997650Y-104059351D01*
X157540000Y-104167231D01*
X158082351Y-104059351D01*
X158542134Y-103752134D01*
X158849351Y-103292351D01*
X158930000Y-102886900D01*
X158930000Y-101182289D01*
X165873000Y-94239289D01*
X165873000Y-96000000D01*
X165882667Y-96048601D01*
X165910197Y-96089803D01*
X165951399Y-96117333D01*
X166000000Y-96127000D01*
X168217946Y-96127000D01*
X168268690Y-96249507D01*
X168669183Y-96650000D01*
X168268690Y-97050493D01*
X168035000Y-97614670D01*
X168035000Y-98225330D01*
X168268690Y-98789507D01*
X168669183Y-99190000D01*
X168268690Y-99590493D01*
X168035000Y-100154670D01*
X168035000Y-100765330D01*
X168268690Y-101329507D01*
X168669183Y-101730000D01*
X168268690Y-102130493D01*
X168035000Y-102694670D01*
X168035000Y-103305330D01*
X168268690Y-103869507D01*
X168669183Y-104270000D01*
X168268690Y-104670493D01*
X168035000Y-105234670D01*
X168035000Y-105845330D01*
X168268690Y-106409507D01*
X168700493Y-106841310D01*
X168720115Y-106849438D01*
X168669446Y-106999841D01*
X169570000Y-107900395D01*
X170470554Y-106999841D01*
X170419885Y-106849438D01*
X170439507Y-106841310D01*
X170871310Y-106409507D01*
X171105000Y-105845330D01*
X171105000Y-105234670D01*
X170871310Y-104670493D01*
X170470817Y-104270000D01*
X170871310Y-103869507D01*
X171105000Y-103305330D01*
X171105000Y-102694670D01*
X170871310Y-102130493D01*
X170470817Y-101730000D01*
X170871310Y-101329507D01*
X171105000Y-100765330D01*
X171105000Y-100320001D01*
X171365152Y-100320001D01*
X171439999Y-100334889D01*
X171514846Y-100320001D01*
X171514851Y-100320001D01*
X171736536Y-100275905D01*
X171987928Y-100107930D01*
X172030330Y-100044471D01*
X173139802Y-98935000D01*
X173185983Y-98935000D01*
X173529635Y-98792655D01*
X173792655Y-98529635D01*
X173935000Y-98185983D01*
X173935000Y-97814017D01*
X173792655Y-97470365D01*
X173529635Y-97207345D01*
X173185983Y-97065000D01*
X172814017Y-97065000D01*
X172470365Y-97207345D01*
X172207345Y-97470365D01*
X172065000Y-97814017D01*
X172065000Y-97860198D01*
X171125198Y-98800001D01*
X170860816Y-98800001D01*
X170871310Y-98789507D01*
X171105000Y-98225330D01*
X171105000Y-97614670D01*
X170871310Y-97050493D01*
X170470817Y-96650000D01*
X170871310Y-96249507D01*
X170922054Y-96127000D01*
X181240001Y-96127000D01*
X181240000Y-97685198D01*
X178685199Y-100240000D01*
X177562290Y-100240000D01*
X177529635Y-100207345D01*
X177185983Y-100065000D01*
X176814017Y-100065000D01*
X176470365Y-100207345D01*
X176207345Y-100470365D01*
X176065000Y-100814017D01*
X176065000Y-101185983D01*
X176207345Y-101529635D01*
X176470365Y-101792655D01*
X176814017Y-101935000D01*
X177185983Y-101935000D01*
X177529635Y-101792655D01*
X177562290Y-101760000D01*
X178925153Y-101760000D01*
X179000000Y-101774888D01*
X179074847Y-101760000D01*
X179074852Y-101760000D01*
X179296537Y-101715904D01*
X179547929Y-101547929D01*
X179590331Y-101484470D01*
X182313756Y-98761046D01*
X182470365Y-98917655D01*
X182814017Y-99060000D01*
X183185983Y-99060000D01*
X183240001Y-99037625D01*
X183240000Y-99685198D01*
X182860199Y-100065000D01*
X182814017Y-100065000D01*
X182470365Y-100207345D01*
X182207345Y-100470365D01*
X182065000Y-100814017D01*
X182065000Y-101185983D01*
X182207345Y-101529635D01*
X182470365Y-101792655D01*
X182814017Y-101935000D01*
X183185983Y-101935000D01*
X183529635Y-101792655D01*
X183792655Y-101529635D01*
X183935000Y-101185983D01*
X183935000Y-101139801D01*
X184484473Y-100590329D01*
X184547929Y-100547929D01*
X184715904Y-100296537D01*
X184760000Y-100074852D01*
X184760000Y-100074848D01*
X184774888Y-100000000D01*
X184760000Y-99925152D01*
X184760000Y-98562290D01*
X184792655Y-98529635D01*
X184935000Y-98185983D01*
X184935000Y-97814017D01*
X184792655Y-97470365D01*
X184529635Y-97207345D01*
X184185983Y-97065000D01*
X183933336Y-97065000D01*
X183935000Y-97060983D01*
X183935000Y-96689017D01*
X183792655Y-96345365D01*
X183574290Y-96127000D01*
X189065001Y-96127000D01*
X189065000Y-101814017D01*
X189065000Y-102185983D01*
X189100933Y-102272734D01*
X189119250Y-102364818D01*
X189171411Y-102442883D01*
X189207345Y-102529635D01*
X189273741Y-102596031D01*
X189325903Y-102674097D01*
X189403969Y-102726259D01*
X189470365Y-102792655D01*
X189557115Y-102828588D01*
X189635181Y-102880750D01*
X189727267Y-102899067D01*
X189814017Y-102935000D01*
X189907914Y-102935000D01*
X190000000Y-102953317D01*
X190092086Y-102935000D01*
X190185983Y-102935000D01*
X190272734Y-102899067D01*
X190364818Y-102880750D01*
X190442883Y-102828589D01*
X190529635Y-102792655D01*
X190596031Y-102726259D01*
X190674097Y-102674097D01*
X190726259Y-102596031D01*
X190792655Y-102529635D01*
X190828588Y-102442885D01*
X190880750Y-102364819D01*
X190899067Y-102272733D01*
X190935000Y-102185983D01*
X190935000Y-100861898D01*
X191128690Y-101329507D01*
X191529183Y-101730000D01*
X191128690Y-102130493D01*
X190895000Y-102694670D01*
X190895000Y-103305330D01*
X191128690Y-103869507D01*
X191529183Y-104270000D01*
X191128690Y-104670493D01*
X190895000Y-105234670D01*
X190895000Y-105845330D01*
X191128690Y-106409507D01*
X191529183Y-106810000D01*
X191128690Y-107210493D01*
X190895000Y-107774670D01*
X190895000Y-108385330D01*
X191128690Y-108949507D01*
X191529183Y-109350000D01*
X191128690Y-109750493D01*
X190895000Y-110314670D01*
X190895000Y-110925330D01*
X191128690Y-111489507D01*
X191560493Y-111921310D01*
X192124670Y-112155000D01*
X192735330Y-112155000D01*
X193299507Y-111921310D01*
X193731310Y-111489507D01*
X193965000Y-110925330D01*
X193965000Y-110314670D01*
X193731310Y-109750493D01*
X193330817Y-109350000D01*
X193731310Y-108949507D01*
X193965000Y-108385330D01*
X193965000Y-107774670D01*
X193731310Y-107210493D01*
X193330817Y-106810000D01*
X193731310Y-106409507D01*
X193965000Y-105845330D01*
X193965000Y-105234670D01*
X193731310Y-104670493D01*
X193330817Y-104270000D01*
X193731310Y-103869507D01*
X193965000Y-103305330D01*
X193965000Y-102694670D01*
X193731310Y-102130493D01*
X193330817Y-101730000D01*
X193731310Y-101329507D01*
X193965000Y-100765330D01*
X193965000Y-100154670D01*
X193731310Y-99590493D01*
X193330817Y-99190000D01*
X193731310Y-98789507D01*
X193965000Y-98225330D01*
X193965000Y-97614670D01*
X193731310Y-97050493D01*
X193330817Y-96650000D01*
X193731310Y-96249507D01*
X193782054Y-96127000D01*
X194290001Y-96127000D01*
X194290001Y-119290000D01*
X150710000Y-119290000D01*
X150710000Y-115525594D01*
X151615000Y-115525594D01*
X151615000Y-116474406D01*
X151978095Y-117350994D01*
X152649006Y-118021905D01*
X153525594Y-118385000D01*
X154474406Y-118385000D01*
X155350994Y-118021905D01*
X156021905Y-117350994D01*
X156385000Y-116474406D01*
X156385000Y-115525594D01*
X188615000Y-115525594D01*
X188615000Y-116474406D01*
X188978095Y-117350994D01*
X189649006Y-118021905D01*
X190525594Y-118385000D01*
X191474406Y-118385000D01*
X192350994Y-118021905D01*
X193021905Y-117350994D01*
X193385000Y-116474406D01*
X193385000Y-115525594D01*
X193021905Y-114649006D01*
X192350994Y-113978095D01*
X191474406Y-113615000D01*
X190525594Y-113615000D01*
X189649006Y-113978095D01*
X188978095Y-114649006D01*
X188615000Y-115525594D01*
X156385000Y-115525594D01*
X156021905Y-114649006D01*
X155350994Y-113978095D01*
X154474406Y-113615000D01*
X153525594Y-113615000D01*
X152649006Y-113978095D01*
X151978095Y-114649006D01*
X151615000Y-115525594D01*
X150710000Y-115525594D01*
X150710000Y-113315750D01*
X159765000Y-113315750D01*
X159765000Y-114006310D01*
X159861673Y-114239699D01*
X160040302Y-114418327D01*
X160273691Y-114515000D01*
X160714250Y-114515000D01*
X160873000Y-114356250D01*
X160873000Y-113157000D01*
X159923750Y-113157000D01*
X159765000Y-113315750D01*
X150710000Y-113315750D01*
X150710000Y-112053690D01*
X159765000Y-112053690D01*
X159765000Y-112744250D01*
X159923750Y-112903000D01*
X160873000Y-112903000D01*
X160873000Y-111703750D01*
X161127000Y-111703750D01*
X161127000Y-112903000D01*
X161147000Y-112903000D01*
X161147000Y-113157000D01*
X161127000Y-113157000D01*
X161127000Y-114356250D01*
X161285750Y-114515000D01*
X161726309Y-114515000D01*
X161959698Y-114418327D01*
X162138327Y-114239699D01*
X162154590Y-114200436D01*
X162518128Y-114443344D01*
X163000000Y-114539195D01*
X163481873Y-114443344D01*
X163890385Y-114170385D01*
X164000000Y-114006334D01*
X164109616Y-114170385D01*
X164518128Y-114443344D01*
X165000000Y-114539195D01*
X165481873Y-114443344D01*
X165890385Y-114170385D01*
X166163344Y-113761872D01*
X166235000Y-113401635D01*
X166235000Y-112658364D01*
X166163344Y-112298127D01*
X165890385Y-111889615D01*
X165481872Y-111616656D01*
X165000000Y-111520805D01*
X164518127Y-111616656D01*
X164109615Y-111889615D01*
X164000000Y-112053666D01*
X163890385Y-111889615D01*
X163481872Y-111616656D01*
X163000000Y-111520805D01*
X162518127Y-111616656D01*
X162154590Y-111859564D01*
X162138327Y-111820301D01*
X161959698Y-111641673D01*
X161726309Y-111545000D01*
X161285750Y-111545000D01*
X161127000Y-111703750D01*
X160873000Y-111703750D01*
X160714250Y-111545000D01*
X160273691Y-111545000D01*
X160040302Y-111641673D01*
X159861673Y-111820301D01*
X159765000Y-112053690D01*
X150710000Y-112053690D01*
X150710000Y-110314670D01*
X168035000Y-110314670D01*
X168035000Y-110925330D01*
X168268690Y-111489507D01*
X168700493Y-111921310D01*
X169047391Y-112065000D01*
X168814017Y-112065000D01*
X168470365Y-112207345D01*
X168207345Y-112470365D01*
X168065000Y-112814017D01*
X168065000Y-113185983D01*
X168207345Y-113529635D01*
X168470365Y-113792655D01*
X168814017Y-113935000D01*
X169185983Y-113935000D01*
X169529635Y-113792655D01*
X169562290Y-113760000D01*
X172437710Y-113760000D01*
X172470365Y-113792655D01*
X172814017Y-113935000D01*
X173185983Y-113935000D01*
X173529635Y-113792655D01*
X173792655Y-113529635D01*
X173935000Y-113185983D01*
X173935000Y-112814017D01*
X173792655Y-112470365D01*
X173529635Y-112207345D01*
X173185983Y-112065000D01*
X172814017Y-112065000D01*
X172470365Y-112207345D01*
X172437710Y-112240000D01*
X169562290Y-112240000D01*
X169529635Y-112207345D01*
X169403263Y-112155000D01*
X169875330Y-112155000D01*
X170439507Y-111921310D01*
X170871310Y-111489507D01*
X171105000Y-110925330D01*
X171105000Y-110314670D01*
X170897623Y-109814017D01*
X187065000Y-109814017D01*
X187065000Y-110185983D01*
X187207345Y-110529635D01*
X187470365Y-110792655D01*
X187814017Y-110935000D01*
X188185983Y-110935000D01*
X188529635Y-110792655D01*
X188792655Y-110529635D01*
X188935000Y-110185983D01*
X188935000Y-110139801D01*
X190484473Y-108590329D01*
X190547929Y-108547929D01*
X190715904Y-108296537D01*
X190760000Y-108074852D01*
X190760000Y-108074848D01*
X190774888Y-108000001D01*
X190760000Y-107925154D01*
X190760000Y-107562290D01*
X190792655Y-107529635D01*
X190935000Y-107185983D01*
X190935000Y-106814017D01*
X190792655Y-106470365D01*
X190529635Y-106207345D01*
X190185983Y-106065000D01*
X189814017Y-106065000D01*
X189470365Y-106207345D01*
X189207345Y-106470365D01*
X189065000Y-106814017D01*
X189065000Y-107185983D01*
X189207345Y-107529635D01*
X189240001Y-107562291D01*
X189240001Y-107685197D01*
X187860199Y-109065000D01*
X187814017Y-109065000D01*
X187470365Y-109207345D01*
X187207345Y-109470365D01*
X187065000Y-109814017D01*
X170897623Y-109814017D01*
X170871310Y-109750493D01*
X170439507Y-109318690D01*
X170419885Y-109310562D01*
X170470554Y-109160159D01*
X169570000Y-108259605D01*
X168669446Y-109160159D01*
X168720115Y-109310562D01*
X168700493Y-109318690D01*
X168268690Y-109750493D01*
X168035000Y-110314670D01*
X150710000Y-110314670D01*
X150710000Y-107839336D01*
X168023542Y-107839336D01*
X168049161Y-108449460D01*
X168233357Y-108894148D01*
X168489841Y-108980554D01*
X169390395Y-108080000D01*
X169749605Y-108080000D01*
X170650159Y-108980554D01*
X170906643Y-108894148D01*
X171116458Y-108320664D01*
X171090839Y-107710540D01*
X170906643Y-107265852D01*
X170650159Y-107179446D01*
X169749605Y-108080000D01*
X169390395Y-108080000D01*
X168489841Y-107179446D01*
X168233357Y-107265852D01*
X168023542Y-107839336D01*
X150710000Y-107839336D01*
X150710000Y-75814017D01*
X151065000Y-75814017D01*
X151065000Y-76185983D01*
X151065001Y-76185985D01*
X151065000Y-97814017D01*
X151065000Y-98185983D01*
X151100933Y-98272734D01*
X151119250Y-98364818D01*
X151171411Y-98442883D01*
X151207345Y-98529635D01*
X151273741Y-98596031D01*
X151325903Y-98674097D01*
X151403969Y-98726259D01*
X151470365Y-98792655D01*
X151557115Y-98828588D01*
X151635181Y-98880750D01*
X151727267Y-98899067D01*
X151814017Y-98935000D01*
X151907914Y-98935000D01*
X152000000Y-98953317D01*
X152092086Y-98935000D01*
X152185983Y-98935000D01*
X152272734Y-98899067D01*
X152364818Y-98880750D01*
X152442883Y-98828589D01*
X152529635Y-98792655D01*
X152596031Y-98726259D01*
X152674097Y-98674097D01*
X152726259Y-98596031D01*
X152792655Y-98529635D01*
X152828588Y-98442885D01*
X152880750Y-98364819D01*
X152899067Y-98272733D01*
X152935000Y-98185983D01*
X152935000Y-81200000D01*
X154552560Y-81200000D01*
X154552560Y-82800000D01*
X154601843Y-83047765D01*
X154742191Y-83257809D01*
X154952235Y-83398157D01*
X155200000Y-83447440D01*
X156800000Y-83447440D01*
X157047765Y-83398157D01*
X157257809Y-83257809D01*
X157398157Y-83047765D01*
X157447440Y-82800000D01*
X157447440Y-81200000D01*
X157398157Y-80952235D01*
X157257809Y-80742191D01*
X157047765Y-80601843D01*
X156813813Y-80555307D01*
X156828139Y-80507745D01*
X156000000Y-79679605D01*
X155171861Y-80507745D01*
X155186187Y-80555307D01*
X154952235Y-80601843D01*
X154742191Y-80742191D01*
X154601843Y-80952235D01*
X154552560Y-81200000D01*
X152935000Y-81200000D01*
X152935000Y-79283223D01*
X154553035Y-79283223D01*
X154580222Y-79853454D01*
X154746136Y-80254005D01*
X154992255Y-80328139D01*
X155820395Y-79500000D01*
X156179605Y-79500000D01*
X157007745Y-80328139D01*
X157253864Y-80254005D01*
X157446965Y-79716777D01*
X157419778Y-79146546D01*
X157253864Y-78745995D01*
X157007745Y-78671861D01*
X156179605Y-79500000D01*
X155820395Y-79500000D01*
X154992255Y-78671861D01*
X154746136Y-78745995D01*
X154553035Y-79283223D01*
X152935000Y-79283223D01*
X152935000Y-78492255D01*
X155171861Y-78492255D01*
X156000000Y-79320395D01*
X156828139Y-78492255D01*
X156754005Y-78246136D01*
X156216777Y-78053035D01*
X155646546Y-78080222D01*
X155245995Y-78246136D01*
X155171861Y-78492255D01*
X152935000Y-78492255D01*
X152935000Y-75814017D01*
X152899067Y-75727267D01*
X152880750Y-75635181D01*
X152828588Y-75557115D01*
X152792655Y-75470365D01*
X152726259Y-75403969D01*
X152674097Y-75325903D01*
X152596031Y-75273741D01*
X152529635Y-75207345D01*
X152442885Y-75171412D01*
X152364819Y-75119250D01*
X152272733Y-75100933D01*
X152185983Y-75065000D01*
X152092086Y-75065000D01*
X152000000Y-75046683D01*
X151907914Y-75065000D01*
X151814017Y-75065000D01*
X151727266Y-75100933D01*
X151635182Y-75119250D01*
X151557118Y-75171411D01*
X151470365Y-75207345D01*
X151403967Y-75273743D01*
X151325904Y-75325903D01*
X151273744Y-75403966D01*
X151207345Y-75470365D01*
X151171410Y-75557119D01*
X151119251Y-75635181D01*
X151100935Y-75727262D01*
X151065000Y-75814017D01*
X150710000Y-75814017D01*
X150710000Y-71000000D01*
X155046683Y-71000000D01*
X155065000Y-71092086D01*
X155065000Y-71185983D01*
X155100933Y-71272734D01*
X155119250Y-71364818D01*
X155171411Y-71442881D01*
X155207345Y-71529635D01*
X155273745Y-71596035D01*
X155325904Y-71674096D01*
X155403965Y-71726255D01*
X155470365Y-71792655D01*
X155557119Y-71828589D01*
X155635182Y-71880750D01*
X155727266Y-71899067D01*
X155814017Y-71935000D01*
X155907914Y-71935000D01*
X156000000Y-71953317D01*
X156092086Y-71935000D01*
X156185983Y-71935000D01*
X156272734Y-71899067D01*
X156364818Y-71880750D01*
X156442882Y-71828589D01*
X156529635Y-71792655D01*
X156792655Y-71529635D01*
X156792656Y-71529633D01*
X157387289Y-70935000D01*
X161185983Y-70935000D01*
X161272733Y-70899067D01*
X161364819Y-70880750D01*
X161442885Y-70828588D01*
X161529635Y-70792655D01*
X161596031Y-70726259D01*
X161674097Y-70674097D01*
X161726260Y-70596030D01*
X161792655Y-70529635D01*
X161828588Y-70442885D01*
X161880750Y-70364819D01*
X161899067Y-70272733D01*
X161935000Y-70185983D01*
X161935000Y-70092086D01*
X161953317Y-70000000D01*
X161935000Y-69907914D01*
X161935000Y-69814017D01*
X161899067Y-69727267D01*
X161880750Y-69635181D01*
X161828588Y-69557115D01*
X161792655Y-69470365D01*
X161726259Y-69403969D01*
X161674097Y-69325903D01*
X161596031Y-69273741D01*
X161529635Y-69207345D01*
X161442885Y-69171412D01*
X161364819Y-69119250D01*
X161272733Y-69100933D01*
X161185983Y-69065000D01*
X157092086Y-69065000D01*
X157000000Y-69046683D01*
X156907914Y-69065000D01*
X156635181Y-69119250D01*
X156325903Y-69325903D01*
X156273739Y-69403972D01*
X155470367Y-70207344D01*
X155470365Y-70207345D01*
X155207345Y-70470365D01*
X155171411Y-70557118D01*
X155119250Y-70635182D01*
X155100933Y-70727266D01*
X155065000Y-70814017D01*
X155065000Y-70907914D01*
X155046683Y-71000000D01*
X150710000Y-71000000D01*
X150710000Y-58525594D01*
X151615000Y-58525594D01*
X151615000Y-59474406D01*
X151978095Y-60350994D01*
X152649006Y-61021905D01*
X153525594Y-61385000D01*
X154474406Y-61385000D01*
X155350994Y-61021905D01*
X156021905Y-60350994D01*
X156114686Y-60127000D01*
X158765000Y-60127000D01*
X158765000Y-60402000D01*
X158907610Y-60864947D01*
X159216526Y-61238080D01*
X159644719Y-61464592D01*
X159682391Y-61468462D01*
X159873000Y-61343731D01*
X159873000Y-60127000D01*
X158765000Y-60127000D01*
X156114686Y-60127000D01*
X156333805Y-59598000D01*
X158765000Y-59598000D01*
X158765000Y-59873000D01*
X159873000Y-59873000D01*
X159873000Y-58656269D01*
X160127000Y-58656269D01*
X160127000Y-59873000D01*
X160147000Y-59873000D01*
X160147000Y-60127000D01*
X160127000Y-60127000D01*
X160127000Y-61343731D01*
X160317609Y-61468462D01*
X160355281Y-61464592D01*
X160783474Y-61238080D01*
X160990833Y-60987615D01*
X161109615Y-61165385D01*
X161518127Y-61438344D01*
X162000000Y-61534195D01*
X162481872Y-61438344D01*
X162890385Y-61165385D01*
X163000000Y-61001334D01*
X163109615Y-61165385D01*
X163518127Y-61438344D01*
X164000000Y-61534195D01*
X164481872Y-61438344D01*
X164890385Y-61165385D01*
X164921428Y-61118926D01*
X165015414Y-61259586D01*
X165165000Y-61359537D01*
X165165000Y-61654132D01*
X164654133Y-62165000D01*
X163082237Y-62165000D01*
X163000000Y-62148642D01*
X162917763Y-62165000D01*
X162674199Y-62213448D01*
X162397999Y-62397999D01*
X162351415Y-62467717D01*
X161711788Y-63107344D01*
X161470365Y-63207345D01*
X161207345Y-63470365D01*
X161065000Y-63814017D01*
X161065000Y-64185983D01*
X161207345Y-64529635D01*
X161470365Y-64792655D01*
X161814017Y-64935000D01*
X162185983Y-64935000D01*
X162529635Y-64792655D01*
X162792655Y-64529635D01*
X162892656Y-64288212D01*
X163345868Y-63835000D01*
X164917767Y-63835000D01*
X165000000Y-63851357D01*
X165082233Y-63835000D01*
X165082237Y-63835000D01*
X165325801Y-63786552D01*
X165602001Y-63602001D01*
X165648587Y-63532280D01*
X166532283Y-62648585D01*
X166602001Y-62602001D01*
X166786552Y-62325801D01*
X166835000Y-62082237D01*
X166835000Y-62082236D01*
X166851358Y-62000000D01*
X166835000Y-61917763D01*
X166835000Y-61359537D01*
X166984586Y-61259586D01*
X167179127Y-60968436D01*
X167247440Y-60625001D01*
X167247440Y-59603364D01*
X170265000Y-59603364D01*
X170265000Y-60396635D01*
X170336656Y-60756872D01*
X170609615Y-61165385D01*
X171018127Y-61438344D01*
X171500000Y-61534195D01*
X171981872Y-61438344D01*
X172390385Y-61165385D01*
X172500000Y-61001334D01*
X172609615Y-61165385D01*
X173018127Y-61438344D01*
X173500000Y-61534195D01*
X173981872Y-61438344D01*
X174390385Y-61165385D01*
X174421428Y-61118926D01*
X174515414Y-61259586D01*
X174806564Y-61454127D01*
X175149999Y-61522440D01*
X175850001Y-61522440D01*
X176193436Y-61454127D01*
X176484586Y-61259586D01*
X176679127Y-60968436D01*
X176747440Y-60625001D01*
X176747440Y-59374999D01*
X176679127Y-59031564D01*
X176484586Y-58740414D01*
X176193436Y-58545873D01*
X175850001Y-58477560D01*
X175149999Y-58477560D01*
X174806564Y-58545873D01*
X174515414Y-58740414D01*
X174421428Y-58881074D01*
X174390385Y-58834615D01*
X173981873Y-58561656D01*
X173500000Y-58465805D01*
X173018128Y-58561656D01*
X172609616Y-58834615D01*
X172500000Y-58998666D01*
X172390385Y-58834615D01*
X171981873Y-58561656D01*
X171500000Y-58465805D01*
X171018128Y-58561656D01*
X170609616Y-58834615D01*
X170336656Y-59243127D01*
X170265000Y-59603364D01*
X167247440Y-59603364D01*
X167247440Y-59374999D01*
X167179127Y-59031564D01*
X166984586Y-58740414D01*
X166693436Y-58545873D01*
X166350001Y-58477560D01*
X165649999Y-58477560D01*
X165306564Y-58545873D01*
X165015414Y-58740414D01*
X164921428Y-58881074D01*
X164890385Y-58834615D01*
X164481873Y-58561656D01*
X164000000Y-58465805D01*
X163518128Y-58561656D01*
X163109616Y-58834615D01*
X163000000Y-58998666D01*
X162890385Y-58834615D01*
X162481873Y-58561656D01*
X162000000Y-58465805D01*
X161518128Y-58561656D01*
X161109616Y-58834615D01*
X160990833Y-59012385D01*
X160783474Y-58761920D01*
X160355281Y-58535408D01*
X160317609Y-58531538D01*
X160127000Y-58656269D01*
X159873000Y-58656269D01*
X159682391Y-58531538D01*
X159644719Y-58535408D01*
X159216526Y-58761920D01*
X158907610Y-59135053D01*
X158765000Y-59598000D01*
X156333805Y-59598000D01*
X156385000Y-59474406D01*
X156385000Y-58525594D01*
X156021905Y-57649006D01*
X155350994Y-56978095D01*
X154474406Y-56615000D01*
X153525594Y-56615000D01*
X152649006Y-56978095D01*
X151978095Y-57649006D01*
X151615000Y-58525594D01*
X150710000Y-58525594D01*
X150710000Y-55710000D01*
X194290000Y-55710000D01*
X194290000Y-68112382D01*
M02*
