%TF.GenerationSoftware,KiCad,Pcbnew,5.1.1*%
%TF.CreationDate,2019-04-24T12:59:08+01:00*%
%TF.ProjectId,ESP8266_home_battery_controller,45535038-3236-4365-9f68-6f6d655f6261,0.6*%
%TF.SameCoordinates,Original*%
%TF.FileFunction,Legend,Top*%
%TF.FilePolarity,Positive*%
%FSLAX46Y46*%
G04 Gerber Fmt 4.6, Leading zero omitted, Abs format (unit mm)*
G04 Created by KiCad (PCBNEW 5.1.1) date 2019-04-24 12:59:08*
%MOMM*%
%LPD*%
G04 APERTURE LIST*
%ADD10C,0.150000*%
%ADD11C,0.120000*%
%ADD12C,0.100000*%
G04 APERTURE END LIST*
D10*
X150000000Y-55000000D02*
X195000000Y-55000000D01*
X150000000Y-120000000D02*
X150000000Y-55000000D01*
X195000000Y-120000000D02*
X150000000Y-120000000D01*
X195000000Y-55000000D02*
X195000000Y-120000000D01*
D11*
X175860000Y-61360000D02*
X175860000Y-62575000D01*
X175800000Y-57400000D02*
X175800000Y-55140000D01*
X175300000Y-57400000D02*
X175300000Y-55140000D01*
X170700000Y-59000000D02*
X169700000Y-59000000D01*
X170700000Y-57400000D02*
X170700000Y-59000000D01*
X169700000Y-57400000D02*
X170700000Y-57400000D01*
X169700000Y-59000000D02*
X169700000Y-57400000D01*
X175300000Y-59000000D02*
X176300000Y-59000000D01*
X175300000Y-57400000D02*
X175300000Y-59000000D01*
X176300000Y-57400000D02*
X175300000Y-57400000D01*
X176300000Y-59000000D02*
X176300000Y-57400000D01*
X168940000Y-61360000D02*
X169860000Y-61360000D01*
X177060000Y-61360000D02*
X176140000Y-61360000D01*
X171500000Y-59500000D02*
X171500000Y-55140000D01*
X174500000Y-59500000D02*
X171500000Y-59500000D01*
X174500000Y-55140000D02*
X174500000Y-59500000D01*
X169860000Y-61360000D02*
X170140000Y-61360000D01*
X169860000Y-62960000D02*
X169860000Y-61360000D01*
X168940000Y-62960000D02*
X169860000Y-62960000D01*
X168940000Y-55140000D02*
X168940000Y-62960000D01*
X177060000Y-55140000D02*
X168940000Y-55140000D01*
X177060000Y-62960000D02*
X177060000Y-55140000D01*
X176140000Y-62960000D02*
X177060000Y-62960000D01*
X176140000Y-61360000D02*
X176140000Y-62960000D01*
X175860000Y-61360000D02*
X176140000Y-61360000D01*
X155980000Y-84000000D02*
X155980000Y-86000000D01*
X158020000Y-86000000D02*
X158020000Y-84000000D01*
X165100000Y-85600000D02*
X165100000Y-85150000D01*
X165100000Y-79400000D02*
X165100000Y-79850000D01*
X158900000Y-79400000D02*
X158900000Y-79850000D01*
X158900000Y-79400000D02*
X165100000Y-79400000D01*
X158900000Y-85600000D02*
X158900000Y-85150000D01*
X165100000Y-85600000D02*
X158900000Y-85600000D01*
D12*
X191817472Y-119277228D02*
X186006180Y-119277228D01*
X186006180Y-119277228D02*
X185979849Y-117993795D01*
X185979849Y-117993795D02*
X177148627Y-118000483D01*
X177148627Y-118000483D02*
X177150603Y-119202736D01*
X177150603Y-119202736D02*
X168069807Y-119176658D01*
X168069807Y-119176658D02*
X168083805Y-88006507D01*
X168083805Y-88006507D02*
X168316616Y-87403714D01*
X168316616Y-87403714D02*
X168600099Y-86858833D01*
X168600099Y-86858833D02*
X168934747Y-86372423D01*
X168934747Y-86372423D02*
X169321047Y-85945048D01*
X169321047Y-85945048D02*
X169759488Y-85577259D01*
X169759488Y-85577259D02*
X170250560Y-85269623D01*
X170250560Y-85269623D02*
X170794750Y-85022690D01*
X170794750Y-85022690D02*
X171392547Y-84837024D01*
X171392547Y-84837024D02*
X190430460Y-84808266D01*
X190430460Y-84808266D02*
X191049824Y-85042259D01*
X191049824Y-85042259D02*
X191638018Y-85326742D01*
X191638018Y-85326742D02*
X192181445Y-85676257D01*
X192181445Y-85676257D02*
X192666503Y-86105342D01*
X192666503Y-86105342D02*
X193079595Y-86628540D01*
X193079595Y-86628540D02*
X193407122Y-87260387D01*
X193407122Y-87260387D02*
X193635482Y-88015425D01*
X193635482Y-88015425D02*
X193751078Y-88908193D01*
X193751078Y-88908193D02*
X193776026Y-111463285D01*
X193776026Y-111463285D02*
X191832480Y-112424181D01*
X191832480Y-112424181D02*
X191802686Y-119232524D01*
X177820350Y-113051451D02*
X184959931Y-113051451D01*
X184959931Y-113051451D02*
X184959931Y-118865188D01*
X184959931Y-118865188D02*
X177820350Y-118865188D01*
X177820350Y-118865188D02*
X177820350Y-113051451D01*
X191743600Y-112402349D02*
X190191378Y-112402349D01*
X190191378Y-112402349D02*
X189662211Y-112931515D01*
X189662211Y-112931515D02*
X188409850Y-112931515D01*
X188409850Y-112931515D02*
X188409850Y-117993876D01*
X188409850Y-117993876D02*
X189697489Y-117993876D01*
X189697489Y-117993876D02*
X190226656Y-118487765D01*
X190226656Y-118487765D02*
X191796517Y-118487765D01*
X191796517Y-118487765D02*
X191743600Y-112402349D01*
X191778878Y-114483738D02*
X192431517Y-114483738D01*
X192431517Y-114483738D02*
X192431517Y-116476932D01*
X192431517Y-116476932D02*
X191814156Y-116476932D01*
D10*
X177375000Y-96550000D02*
X176300000Y-96550000D01*
X177375000Y-99625000D02*
X180625000Y-99625000D01*
X177375000Y-96375000D02*
X180625000Y-96375000D01*
X177375000Y-99625000D02*
X177375000Y-99350000D01*
X180625000Y-99625000D02*
X180625000Y-99350000D01*
X180625000Y-96375000D02*
X180625000Y-96650000D01*
X177375000Y-96375000D02*
X177375000Y-96550000D01*
D11*
X175930000Y-108500000D02*
X175930000Y-106500000D01*
X178070000Y-106500000D02*
X178070000Y-108500000D01*
X174070000Y-103500000D02*
X174070000Y-105500000D01*
X171930000Y-105500000D02*
X171930000Y-103500000D01*
X154880000Y-107230000D02*
X154880000Y-103770000D01*
X151120000Y-107230000D02*
X151120000Y-103770000D01*
X154230000Y-71190000D02*
X154230000Y-76270000D01*
X158670000Y-71190000D02*
X158670000Y-76270000D01*
X152330000Y-76270000D02*
X152330000Y-71190000D01*
X152330000Y-76270000D02*
X158670000Y-76270000D01*
X152330000Y-71190000D02*
X158670000Y-71190000D01*
D10*
X163286000Y-89460000D02*
X163286000Y-94540000D01*
X163286000Y-94540000D02*
X158714000Y-94540000D01*
X158714000Y-94540000D02*
X158714000Y-89460000D01*
X158714000Y-89460000D02*
X163286000Y-89460000D01*
X161762000Y-89460000D02*
X161762000Y-89968000D01*
X161762000Y-89968000D02*
X160492000Y-89968000D01*
X160492000Y-89968000D02*
X160492000Y-89460000D01*
D11*
X162000000Y-86480000D02*
X160000000Y-86480000D01*
X160000000Y-88520000D02*
X162000000Y-88520000D01*
X169950000Y-83540000D02*
X166050000Y-83540000D01*
X166050000Y-83540000D02*
X166050000Y-89150000D01*
X169950000Y-83540000D02*
X169950000Y-89150000D01*
X165000000Y-65930000D02*
X167000000Y-65930000D01*
X167000000Y-68070000D02*
X165000000Y-68070000D01*
X162500000Y-69430000D02*
X164500000Y-69430000D01*
X164500000Y-71570000D02*
X162500000Y-71570000D01*
X187480000Y-109500000D02*
X187480000Y-111500000D01*
X189520000Y-111500000D02*
X189520000Y-109500000D01*
X179500000Y-101980000D02*
X177500000Y-101980000D01*
X177500000Y-104020000D02*
X179500000Y-104020000D01*
X184410000Y-101897936D02*
X184410000Y-103102064D01*
X182590000Y-101897936D02*
X182590000Y-103102064D01*
X181090000Y-85397936D02*
X181090000Y-86602064D01*
X182910000Y-85397936D02*
X182910000Y-86602064D01*
X185910000Y-85397936D02*
X185910000Y-86602064D01*
X184090000Y-85397936D02*
X184090000Y-86602064D01*
X191910000Y-69397936D02*
X191910000Y-70602064D01*
X190090000Y-69397936D02*
X190090000Y-70602064D01*
X190090000Y-76397936D02*
X190090000Y-77602064D01*
X191910000Y-76397936D02*
X191910000Y-77602064D01*
X155760000Y-92650000D02*
X155760000Y-84415000D01*
X155760000Y-84415000D02*
X151240000Y-84415000D01*
X151240000Y-84415000D02*
X151240000Y-92650000D01*
X154397936Y-95640000D02*
X155602064Y-95640000D01*
X154397936Y-98360000D02*
X155602064Y-98360000D01*
X155640000Y-109860000D02*
X159490000Y-109860000D01*
X166360000Y-109860000D02*
X162510000Y-109860000D01*
X166360000Y-100204437D02*
X166360000Y-109860000D01*
X155640000Y-100204437D02*
X155640000Y-109860000D01*
X156704437Y-99140000D02*
X159490000Y-99140000D01*
X165295563Y-99140000D02*
X162510000Y-99140000D01*
X165295563Y-99140000D02*
X166360000Y-100204437D01*
X156704437Y-99140000D02*
X155640000Y-100204437D01*
X163760000Y-97650000D02*
X163760000Y-98900000D01*
X164385000Y-98275000D02*
X163135000Y-98275000D01*
X170397936Y-66090000D02*
X171602064Y-66090000D01*
X170397936Y-67910000D02*
X171602064Y-67910000D01*
X165860000Y-61360000D02*
X166140000Y-61360000D01*
X166140000Y-61360000D02*
X166140000Y-62960000D01*
X166140000Y-62960000D02*
X167060000Y-62960000D01*
X167060000Y-62960000D02*
X167060000Y-55140000D01*
X167060000Y-55140000D02*
X156940000Y-55140000D01*
X156940000Y-55140000D02*
X156940000Y-62960000D01*
X156940000Y-62960000D02*
X157860000Y-62960000D01*
X157860000Y-62960000D02*
X157860000Y-61360000D01*
X157860000Y-61360000D02*
X158140000Y-61360000D01*
X164500000Y-55140000D02*
X164500000Y-59500000D01*
X164500000Y-59500000D02*
X159500000Y-59500000D01*
X159500000Y-59500000D02*
X159500000Y-55140000D01*
X167060000Y-61360000D02*
X166140000Y-61360000D01*
X156940000Y-61360000D02*
X157860000Y-61360000D01*
X166300000Y-59000000D02*
X166300000Y-57400000D01*
X166300000Y-57400000D02*
X165300000Y-57400000D01*
X165300000Y-57400000D02*
X165300000Y-59000000D01*
X165300000Y-59000000D02*
X166300000Y-59000000D01*
X157700000Y-59000000D02*
X157700000Y-57400000D01*
X157700000Y-57400000D02*
X158700000Y-57400000D01*
X158700000Y-57400000D02*
X158700000Y-59000000D01*
X158700000Y-59000000D02*
X157700000Y-59000000D01*
X165300000Y-57400000D02*
X165300000Y-55140000D01*
X165800000Y-57400000D02*
X165800000Y-55140000D01*
X165860000Y-61360000D02*
X165860000Y-62575000D01*
X180410000Y-90102064D02*
X180410000Y-88897936D01*
X178590000Y-90102064D02*
X178590000Y-88897936D01*
X174590000Y-93102064D02*
X174590000Y-91897936D01*
X176410000Y-93102064D02*
X176410000Y-91897936D01*
X170140000Y-115140000D02*
X170140000Y-113925000D01*
X170200000Y-119100000D02*
X170200000Y-121360000D01*
X170700000Y-119100000D02*
X170700000Y-121360000D01*
X175300000Y-117500000D02*
X176300000Y-117500000D01*
X175300000Y-119100000D02*
X175300000Y-117500000D01*
X176300000Y-119100000D02*
X175300000Y-119100000D01*
X176300000Y-117500000D02*
X176300000Y-119100000D01*
X170700000Y-117500000D02*
X169700000Y-117500000D01*
X170700000Y-119100000D02*
X170700000Y-117500000D01*
X169700000Y-119100000D02*
X170700000Y-119100000D01*
X169700000Y-117500000D02*
X169700000Y-119100000D01*
X177060000Y-115140000D02*
X176140000Y-115140000D01*
X168940000Y-115140000D02*
X169860000Y-115140000D01*
X174500000Y-117000000D02*
X174500000Y-121360000D01*
X171500000Y-117000000D02*
X174500000Y-117000000D01*
X171500000Y-121360000D02*
X171500000Y-117000000D01*
X176140000Y-115140000D02*
X175860000Y-115140000D01*
X176140000Y-113540000D02*
X176140000Y-115140000D01*
X177060000Y-113540000D02*
X176140000Y-113540000D01*
X177060000Y-121360000D02*
X177060000Y-113540000D01*
X168940000Y-121360000D02*
X177060000Y-121360000D01*
X168940000Y-113540000D02*
X168940000Y-121360000D01*
X169860000Y-113540000D02*
X168940000Y-113540000D01*
X169860000Y-115140000D02*
X169860000Y-113540000D01*
X170140000Y-115140000D02*
X169860000Y-115140000D01*
X185860000Y-61360000D02*
X186140000Y-61360000D01*
X186140000Y-61360000D02*
X186140000Y-62960000D01*
X186140000Y-62960000D02*
X187060000Y-62960000D01*
X187060000Y-62960000D02*
X187060000Y-55140000D01*
X187060000Y-55140000D02*
X178940000Y-55140000D01*
X178940000Y-55140000D02*
X178940000Y-62960000D01*
X178940000Y-62960000D02*
X179860000Y-62960000D01*
X179860000Y-62960000D02*
X179860000Y-61360000D01*
X179860000Y-61360000D02*
X180140000Y-61360000D01*
X184500000Y-55140000D02*
X184500000Y-59500000D01*
X184500000Y-59500000D02*
X181500000Y-59500000D01*
X181500000Y-59500000D02*
X181500000Y-55140000D01*
X187060000Y-61360000D02*
X186140000Y-61360000D01*
X178940000Y-61360000D02*
X179860000Y-61360000D01*
X186300000Y-59000000D02*
X186300000Y-57400000D01*
X186300000Y-57400000D02*
X185300000Y-57400000D01*
X185300000Y-57400000D02*
X185300000Y-59000000D01*
X185300000Y-59000000D02*
X186300000Y-59000000D01*
X179700000Y-59000000D02*
X179700000Y-57400000D01*
X179700000Y-57400000D02*
X180700000Y-57400000D01*
X180700000Y-57400000D02*
X180700000Y-59000000D01*
X180700000Y-59000000D02*
X179700000Y-59000000D01*
X185300000Y-57400000D02*
X185300000Y-55140000D01*
X185800000Y-57400000D02*
X185800000Y-55140000D01*
X185860000Y-61360000D02*
X185860000Y-62575000D01*
X180140000Y-115140000D02*
X179860000Y-115140000D01*
X179860000Y-115140000D02*
X179860000Y-113540000D01*
X179860000Y-113540000D02*
X178940000Y-113540000D01*
X178940000Y-113540000D02*
X178940000Y-121360000D01*
X178940000Y-121360000D02*
X187060000Y-121360000D01*
X187060000Y-121360000D02*
X187060000Y-113540000D01*
X187060000Y-113540000D02*
X186140000Y-113540000D01*
X186140000Y-113540000D02*
X186140000Y-115140000D01*
X186140000Y-115140000D02*
X185860000Y-115140000D01*
X181500000Y-121360000D02*
X181500000Y-117000000D01*
X181500000Y-117000000D02*
X184500000Y-117000000D01*
X184500000Y-117000000D02*
X184500000Y-121360000D01*
X178940000Y-115140000D02*
X179860000Y-115140000D01*
X187060000Y-115140000D02*
X186140000Y-115140000D01*
X179700000Y-117500000D02*
X179700000Y-119100000D01*
X179700000Y-119100000D02*
X180700000Y-119100000D01*
X180700000Y-119100000D02*
X180700000Y-117500000D01*
X180700000Y-117500000D02*
X179700000Y-117500000D01*
X186300000Y-117500000D02*
X186300000Y-119100000D01*
X186300000Y-119100000D02*
X185300000Y-119100000D01*
X185300000Y-119100000D02*
X185300000Y-117500000D01*
X185300000Y-117500000D02*
X186300000Y-117500000D01*
X180700000Y-119100000D02*
X180700000Y-121360000D01*
X180200000Y-119100000D02*
X180200000Y-121360000D01*
X180140000Y-115140000D02*
X180140000Y-113925000D01*
X159140000Y-115140000D02*
X158860000Y-115140000D01*
X158860000Y-115140000D02*
X158860000Y-113540000D01*
X158860000Y-113540000D02*
X157940000Y-113540000D01*
X157940000Y-113540000D02*
X157940000Y-121360000D01*
X157940000Y-121360000D02*
X168060000Y-121360000D01*
X168060000Y-121360000D02*
X168060000Y-113540000D01*
X168060000Y-113540000D02*
X167140000Y-113540000D01*
X167140000Y-113540000D02*
X167140000Y-115140000D01*
X167140000Y-115140000D02*
X166860000Y-115140000D01*
X160500000Y-121360000D02*
X160500000Y-117000000D01*
X160500000Y-117000000D02*
X165500000Y-117000000D01*
X165500000Y-117000000D02*
X165500000Y-121360000D01*
X157940000Y-115140000D02*
X158860000Y-115140000D01*
X168060000Y-115140000D02*
X167140000Y-115140000D01*
X158700000Y-117500000D02*
X158700000Y-119100000D01*
X158700000Y-119100000D02*
X159700000Y-119100000D01*
X159700000Y-119100000D02*
X159700000Y-117500000D01*
X159700000Y-117500000D02*
X158700000Y-117500000D01*
X167300000Y-117500000D02*
X167300000Y-119100000D01*
X167300000Y-119100000D02*
X166300000Y-119100000D01*
X166300000Y-119100000D02*
X166300000Y-117500000D01*
X166300000Y-117500000D02*
X167300000Y-117500000D01*
X159700000Y-119100000D02*
X159700000Y-121360000D01*
X159200000Y-119100000D02*
X159200000Y-121360000D01*
X159140000Y-115140000D02*
X159140000Y-113925000D01*
X164375000Y-99520354D02*
X163375000Y-99520354D01*
X163875000Y-99020354D02*
X163875000Y-100020354D01*
X161599000Y-109581000D02*
X160401000Y-109581000D01*
X161862000Y-109541000D02*
X160138000Y-109541000D01*
X162062000Y-109501000D02*
X159938000Y-109501000D01*
X162230000Y-109461000D02*
X159770000Y-109461000D01*
X162378000Y-109421000D02*
X159622000Y-109421000D01*
X162510000Y-109381000D02*
X159490000Y-109381000D01*
X162630000Y-109341000D02*
X159370000Y-109341000D01*
X162742000Y-109301000D02*
X159258000Y-109301000D01*
X162846000Y-109261000D02*
X159154000Y-109261000D01*
X162944000Y-109221000D02*
X159056000Y-109221000D01*
X163037000Y-109181000D02*
X158963000Y-109181000D01*
X163125000Y-109141000D02*
X158875000Y-109141000D01*
X163209000Y-109101000D02*
X158791000Y-109101000D01*
X163289000Y-109061000D02*
X158711000Y-109061000D01*
X163365000Y-109021000D02*
X158635000Y-109021000D01*
X163439000Y-108981000D02*
X158561000Y-108981000D01*
X163510000Y-108941000D02*
X158490000Y-108941000D01*
X163579000Y-108901000D02*
X158421000Y-108901000D01*
X163645000Y-108861000D02*
X158355000Y-108861000D01*
X163709000Y-108821000D02*
X158291000Y-108821000D01*
X163770000Y-108781000D02*
X158230000Y-108781000D01*
X163830000Y-108741000D02*
X158170000Y-108741000D01*
X163889000Y-108701000D02*
X158111000Y-108701000D01*
X163945000Y-108661000D02*
X158055000Y-108661000D01*
X164000000Y-108621000D02*
X158000000Y-108621000D01*
X164054000Y-108581000D02*
X157946000Y-108581000D01*
X164106000Y-108541000D02*
X157894000Y-108541000D01*
X164156000Y-108501000D02*
X157844000Y-108501000D01*
X164206000Y-108461000D02*
X157794000Y-108461000D01*
X164254000Y-108421000D02*
X157746000Y-108421000D01*
X164301000Y-108381000D02*
X157699000Y-108381000D01*
X164347000Y-108341000D02*
X157653000Y-108341000D01*
X164392000Y-108301000D02*
X157608000Y-108301000D01*
X164436000Y-108261000D02*
X157564000Y-108261000D01*
X159759000Y-108221000D02*
X157522000Y-108221000D01*
X164478000Y-108221000D02*
X162241000Y-108221000D01*
X159759000Y-108181000D02*
X157480000Y-108181000D01*
X164520000Y-108181000D02*
X162241000Y-108181000D01*
X159759000Y-108141000D02*
X157439000Y-108141000D01*
X164561000Y-108141000D02*
X162241000Y-108141000D01*
X159759000Y-108101000D02*
X157399000Y-108101000D01*
X164601000Y-108101000D02*
X162241000Y-108101000D01*
X159759000Y-108061000D02*
X157360000Y-108061000D01*
X164640000Y-108061000D02*
X162241000Y-108061000D01*
X159759000Y-108021000D02*
X157321000Y-108021000D01*
X164679000Y-108021000D02*
X162241000Y-108021000D01*
X159759000Y-107981000D02*
X157284000Y-107981000D01*
X164716000Y-107981000D02*
X162241000Y-107981000D01*
X159759000Y-107941000D02*
X157247000Y-107941000D01*
X164753000Y-107941000D02*
X162241000Y-107941000D01*
X159759000Y-107901000D02*
X157211000Y-107901000D01*
X164789000Y-107901000D02*
X162241000Y-107901000D01*
X159759000Y-107861000D02*
X157176000Y-107861000D01*
X164824000Y-107861000D02*
X162241000Y-107861000D01*
X159759000Y-107821000D02*
X157142000Y-107821000D01*
X164858000Y-107821000D02*
X162241000Y-107821000D01*
X159759000Y-107781000D02*
X157108000Y-107781000D01*
X164892000Y-107781000D02*
X162241000Y-107781000D01*
X159759000Y-107741000D02*
X157075000Y-107741000D01*
X164925000Y-107741000D02*
X162241000Y-107741000D01*
X159759000Y-107701000D02*
X157043000Y-107701000D01*
X164957000Y-107701000D02*
X162241000Y-107701000D01*
X159759000Y-107661000D02*
X157011000Y-107661000D01*
X164989000Y-107661000D02*
X162241000Y-107661000D01*
X159759000Y-107621000D02*
X156980000Y-107621000D01*
X165020000Y-107621000D02*
X162241000Y-107621000D01*
X159759000Y-107581000D02*
X156950000Y-107581000D01*
X165050000Y-107581000D02*
X162241000Y-107581000D01*
X159759000Y-107541000D02*
X156920000Y-107541000D01*
X165080000Y-107541000D02*
X162241000Y-107541000D01*
X159759000Y-107501000D02*
X156890000Y-107501000D01*
X165110000Y-107501000D02*
X162241000Y-107501000D01*
X159759000Y-107461000D02*
X156862000Y-107461000D01*
X165138000Y-107461000D02*
X162241000Y-107461000D01*
X159759000Y-107421000D02*
X156834000Y-107421000D01*
X165166000Y-107421000D02*
X162241000Y-107421000D01*
X159759000Y-107381000D02*
X156806000Y-107381000D01*
X165194000Y-107381000D02*
X162241000Y-107381000D01*
X159759000Y-107341000D02*
X156779000Y-107341000D01*
X165221000Y-107341000D02*
X162241000Y-107341000D01*
X159759000Y-107301000D02*
X156753000Y-107301000D01*
X165247000Y-107301000D02*
X162241000Y-107301000D01*
X159759000Y-107261000D02*
X156727000Y-107261000D01*
X165273000Y-107261000D02*
X162241000Y-107261000D01*
X159759000Y-107221000D02*
X156702000Y-107221000D01*
X165298000Y-107221000D02*
X162241000Y-107221000D01*
X159759000Y-107181000D02*
X156677000Y-107181000D01*
X165323000Y-107181000D02*
X162241000Y-107181000D01*
X159759000Y-107141000D02*
X156653000Y-107141000D01*
X165347000Y-107141000D02*
X162241000Y-107141000D01*
X159759000Y-107101000D02*
X156629000Y-107101000D01*
X165371000Y-107101000D02*
X162241000Y-107101000D01*
X159759000Y-107061000D02*
X156605000Y-107061000D01*
X165395000Y-107061000D02*
X162241000Y-107061000D01*
X159759000Y-107021000D02*
X156583000Y-107021000D01*
X165417000Y-107021000D02*
X162241000Y-107021000D01*
X159759000Y-106981000D02*
X156560000Y-106981000D01*
X165440000Y-106981000D02*
X162241000Y-106981000D01*
X159759000Y-106941000D02*
X156538000Y-106941000D01*
X165462000Y-106941000D02*
X162241000Y-106941000D01*
X159759000Y-106901000D02*
X156517000Y-106901000D01*
X165483000Y-106901000D02*
X162241000Y-106901000D01*
X159759000Y-106861000D02*
X156496000Y-106861000D01*
X165504000Y-106861000D02*
X162241000Y-106861000D01*
X159759000Y-106821000D02*
X156475000Y-106821000D01*
X165525000Y-106821000D02*
X162241000Y-106821000D01*
X159759000Y-106781000D02*
X156455000Y-106781000D01*
X165545000Y-106781000D02*
X162241000Y-106781000D01*
X159759000Y-106741000D02*
X156436000Y-106741000D01*
X165564000Y-106741000D02*
X162241000Y-106741000D01*
X159759000Y-106701000D02*
X156416000Y-106701000D01*
X165584000Y-106701000D02*
X162241000Y-106701000D01*
X159759000Y-106661000D02*
X156397000Y-106661000D01*
X165603000Y-106661000D02*
X162241000Y-106661000D01*
X159759000Y-106621000D02*
X156379000Y-106621000D01*
X165621000Y-106621000D02*
X162241000Y-106621000D01*
X159759000Y-106581000D02*
X156361000Y-106581000D01*
X165639000Y-106581000D02*
X162241000Y-106581000D01*
X159759000Y-106541000D02*
X156343000Y-106541000D01*
X165657000Y-106541000D02*
X162241000Y-106541000D01*
X159759000Y-106501000D02*
X156326000Y-106501000D01*
X165674000Y-106501000D02*
X162241000Y-106501000D01*
X159759000Y-106461000D02*
X156310000Y-106461000D01*
X165690000Y-106461000D02*
X162241000Y-106461000D01*
X159759000Y-106421000D02*
X156293000Y-106421000D01*
X165707000Y-106421000D02*
X162241000Y-106421000D01*
X159759000Y-106381000D02*
X156277000Y-106381000D01*
X165723000Y-106381000D02*
X162241000Y-106381000D01*
X159759000Y-106341000D02*
X156262000Y-106341000D01*
X165738000Y-106341000D02*
X162241000Y-106341000D01*
X159759000Y-106301000D02*
X156246000Y-106301000D01*
X165754000Y-106301000D02*
X162241000Y-106301000D01*
X159759000Y-106261000D02*
X156232000Y-106261000D01*
X165768000Y-106261000D02*
X162241000Y-106261000D01*
X159759000Y-106221000D02*
X156217000Y-106221000D01*
X165783000Y-106221000D02*
X162241000Y-106221000D01*
X159759000Y-106181000D02*
X156203000Y-106181000D01*
X165797000Y-106181000D02*
X162241000Y-106181000D01*
X159759000Y-106141000D02*
X156189000Y-106141000D01*
X165811000Y-106141000D02*
X162241000Y-106141000D01*
X159759000Y-106101000D02*
X156176000Y-106101000D01*
X165824000Y-106101000D02*
X162241000Y-106101000D01*
X159759000Y-106061000D02*
X156163000Y-106061000D01*
X165837000Y-106061000D02*
X162241000Y-106061000D01*
X159759000Y-106021000D02*
X156150000Y-106021000D01*
X165850000Y-106021000D02*
X162241000Y-106021000D01*
X159759000Y-105981000D02*
X156138000Y-105981000D01*
X165862000Y-105981000D02*
X162241000Y-105981000D01*
X159759000Y-105941000D02*
X156126000Y-105941000D01*
X165874000Y-105941000D02*
X162241000Y-105941000D01*
X159759000Y-105901000D02*
X156115000Y-105901000D01*
X165885000Y-105901000D02*
X162241000Y-105901000D01*
X159759000Y-105861000D02*
X156103000Y-105861000D01*
X165897000Y-105861000D02*
X162241000Y-105861000D01*
X159759000Y-105821000D02*
X156093000Y-105821000D01*
X165907000Y-105821000D02*
X162241000Y-105821000D01*
X159759000Y-105781000D02*
X156082000Y-105781000D01*
X165918000Y-105781000D02*
X162241000Y-105781000D01*
X165928000Y-105741000D02*
X156072000Y-105741000D01*
X165938000Y-105701000D02*
X156062000Y-105701000D01*
X165947000Y-105661000D02*
X156053000Y-105661000D01*
X165956000Y-105621000D02*
X156044000Y-105621000D01*
X165965000Y-105581000D02*
X156035000Y-105581000D01*
X165974000Y-105541000D02*
X156026000Y-105541000D01*
X165982000Y-105501000D02*
X156018000Y-105501000D01*
X165990000Y-105461000D02*
X156010000Y-105461000D01*
X165997000Y-105421000D02*
X156003000Y-105421000D01*
X166004000Y-105381000D02*
X155996000Y-105381000D01*
X166011000Y-105341000D02*
X155989000Y-105341000D01*
X166018000Y-105301000D02*
X155982000Y-105301000D01*
X166024000Y-105261000D02*
X155976000Y-105261000D01*
X166030000Y-105221000D02*
X155970000Y-105221000D01*
X166035000Y-105180000D02*
X155965000Y-105180000D01*
X166040000Y-105140000D02*
X155960000Y-105140000D01*
X166045000Y-105100000D02*
X155955000Y-105100000D01*
X166050000Y-105060000D02*
X155950000Y-105060000D01*
X166054000Y-105020000D02*
X155946000Y-105020000D01*
X166058000Y-104980000D02*
X155942000Y-104980000D01*
X166062000Y-104940000D02*
X155938000Y-104940000D01*
X166065000Y-104900000D02*
X155935000Y-104900000D01*
X166068000Y-104860000D02*
X155932000Y-104860000D01*
X166070000Y-104820000D02*
X155930000Y-104820000D01*
X166073000Y-104780000D02*
X155927000Y-104780000D01*
X166075000Y-104740000D02*
X155925000Y-104740000D01*
X166077000Y-104700000D02*
X155923000Y-104700000D01*
X166078000Y-104660000D02*
X155922000Y-104660000D01*
X166079000Y-104620000D02*
X155921000Y-104620000D01*
X166080000Y-104580000D02*
X155920000Y-104580000D01*
X166080000Y-104540000D02*
X155920000Y-104540000D01*
X166080000Y-104500000D02*
X155920000Y-104500000D01*
X166120000Y-104500000D02*
G75*
G03X166120000Y-104500000I-5120000J0D01*
G01*
X186380000Y-76810000D02*
X188620000Y-76810000D01*
X188620000Y-76810000D02*
X188620000Y-72570000D01*
X188620000Y-72570000D02*
X186380000Y-72570000D01*
X186380000Y-72570000D02*
X186380000Y-76810000D01*
X187500000Y-77460000D02*
X187500000Y-76810000D01*
X187500000Y-71920000D02*
X187500000Y-72570000D01*
X186380000Y-76090000D02*
X188620000Y-76090000D01*
X186380000Y-75970000D02*
X188620000Y-75970000D01*
X186380000Y-76210000D02*
X188620000Y-76210000D01*
D12*
X170420000Y-92840000D02*
G75*
G03X170420000Y-92840000I-850000J0D01*
G01*
X170420000Y-95380000D02*
G75*
G03X170420000Y-95380000I-850000J0D01*
G01*
X170420000Y-97920000D02*
G75*
G03X170420000Y-97920000I-850000J0D01*
G01*
X170420000Y-100460000D02*
G75*
G03X170420000Y-100460000I-850000J0D01*
G01*
X170420000Y-103000000D02*
G75*
G03X170420000Y-103000000I-850000J0D01*
G01*
X170420000Y-105540000D02*
G75*
G03X170420000Y-105540000I-850000J0D01*
G01*
X170420000Y-108080000D02*
G75*
G03X170420000Y-108080000I-850000J0D01*
G01*
X170420000Y-110620000D02*
G75*
G03X170420000Y-110620000I-850000J0D01*
G01*
X193280000Y-110620000D02*
G75*
G03X193280000Y-110620000I-850000J0D01*
G01*
X193280000Y-108080000D02*
G75*
G03X193280000Y-108080000I-850000J0D01*
G01*
X193280000Y-105540000D02*
G75*
G03X193280000Y-105540000I-850000J0D01*
G01*
X193280000Y-103000000D02*
G75*
G03X193280000Y-103000000I-850000J0D01*
G01*
X193280000Y-100460000D02*
G75*
G03X193280000Y-100460000I-850000J0D01*
G01*
X193280000Y-97920000D02*
G75*
G03X193280000Y-97920000I-850000J0D01*
G01*
X193280000Y-95380000D02*
G75*
G03X193280000Y-95380000I-850000J0D01*
G01*
X193280000Y-92840000D02*
G75*
G03X193280000Y-92840000I-850000J0D01*
G01*
D10*
X172666666Y-63502380D02*
X172666666Y-64216666D01*
X172619047Y-64359523D01*
X172523809Y-64454761D01*
X172380952Y-64502380D01*
X172285714Y-64502380D01*
X173571428Y-63835714D02*
X173571428Y-64502380D01*
X173333333Y-63454761D02*
X173095238Y-64169047D01*
X173714285Y-64169047D01*
X157357142Y-81666666D02*
X157404761Y-81714285D01*
X157452380Y-81857142D01*
X157452380Y-81952380D01*
X157404761Y-82095238D01*
X157309523Y-82190476D01*
X157214285Y-82238095D01*
X157023809Y-82285714D01*
X156880952Y-82285714D01*
X156690476Y-82238095D01*
X156595238Y-82190476D01*
X156500000Y-82095238D01*
X156452380Y-81952380D01*
X156452380Y-81857142D01*
X156500000Y-81714285D01*
X156547619Y-81666666D01*
X157452380Y-80714285D02*
X157452380Y-81285714D01*
X157452380Y-81000000D02*
X156452380Y-81000000D01*
X156595238Y-81095238D01*
X156690476Y-81190476D01*
X156738095Y-81285714D01*
X160833333Y-78952380D02*
X160357142Y-78952380D01*
X160357142Y-77952380D01*
X161690476Y-78952380D02*
X161119047Y-78952380D01*
X161404761Y-78952380D02*
X161404761Y-77952380D01*
X161309523Y-78095238D01*
X161214285Y-78190476D01*
X161119047Y-78238095D01*
X180238095Y-104952380D02*
X180238095Y-105761904D01*
X180285714Y-105857142D01*
X180333333Y-105904761D01*
X180428571Y-105952380D01*
X180619047Y-105952380D01*
X180714285Y-105904761D01*
X180761904Y-105857142D01*
X180809523Y-105761904D01*
X180809523Y-104952380D01*
X181809523Y-105952380D02*
X181238095Y-105952380D01*
X181523809Y-105952380D02*
X181523809Y-104952380D01*
X181428571Y-105095238D01*
X181333333Y-105190476D01*
X181238095Y-105238095D01*
X174142857Y-86117142D02*
X174857142Y-89117142D01*
X175428571Y-86974285D01*
X176000000Y-89117142D01*
X176714285Y-86117142D01*
X179000000Y-88974285D02*
X178714285Y-89117142D01*
X178142857Y-89117142D01*
X177857142Y-88974285D01*
X177714285Y-88688571D01*
X177714285Y-87545714D01*
X177857142Y-87260000D01*
X178142857Y-87117142D01*
X178714285Y-87117142D01*
X179000000Y-87260000D01*
X179142857Y-87545714D01*
X179142857Y-87831428D01*
X177714285Y-88117142D01*
X180428571Y-89117142D02*
X180428571Y-86117142D01*
X181428571Y-88260000D01*
X182428571Y-86117142D01*
X182428571Y-89117142D01*
X184285714Y-89117142D02*
X184000000Y-88974285D01*
X183857142Y-88831428D01*
X183714285Y-88545714D01*
X183714285Y-87688571D01*
X183857142Y-87402857D01*
X184000000Y-87260000D01*
X184285714Y-87117142D01*
X184714285Y-87117142D01*
X185000000Y-87260000D01*
X185142857Y-87402857D01*
X185285714Y-87688571D01*
X185285714Y-88545714D01*
X185142857Y-88831428D01*
X185000000Y-88974285D01*
X184714285Y-89117142D01*
X184285714Y-89117142D01*
X186428571Y-88974285D02*
X186714285Y-89117142D01*
X187285714Y-89117142D01*
X187571428Y-88974285D01*
X187714285Y-88688571D01*
X187714285Y-88545714D01*
X187571428Y-88260000D01*
X187285714Y-88117142D01*
X186857142Y-88117142D01*
X186571428Y-87974285D01*
X186428571Y-87688571D01*
X186428571Y-87545714D01*
X186571428Y-87260000D01*
X186857142Y-87117142D01*
X187285714Y-87117142D01*
X187571428Y-87260000D01*
X178238095Y-94902380D02*
X178238095Y-95711904D01*
X178285714Y-95807142D01*
X178333333Y-95854761D01*
X178428571Y-95902380D01*
X178619047Y-95902380D01*
X178714285Y-95854761D01*
X178761904Y-95807142D01*
X178809523Y-95711904D01*
X178809523Y-94902380D01*
X179714285Y-95235714D02*
X179714285Y-95902380D01*
X179476190Y-94854761D02*
X179238095Y-95569047D01*
X179857142Y-95569047D01*
X179302380Y-107666666D02*
X178826190Y-108000000D01*
X179302380Y-108238095D02*
X178302380Y-108238095D01*
X178302380Y-107857142D01*
X178350000Y-107761904D01*
X178397619Y-107714285D01*
X178492857Y-107666666D01*
X178635714Y-107666666D01*
X178730952Y-107714285D01*
X178778571Y-107761904D01*
X178826190Y-107857142D01*
X178826190Y-108238095D01*
X178302380Y-107333333D02*
X178302380Y-106666666D01*
X179302380Y-107095238D01*
X175302380Y-104666666D02*
X174826190Y-105000000D01*
X175302380Y-105238095D02*
X174302380Y-105238095D01*
X174302380Y-104857142D01*
X174350000Y-104761904D01*
X174397619Y-104714285D01*
X174492857Y-104666666D01*
X174635714Y-104666666D01*
X174730952Y-104714285D01*
X174778571Y-104761904D01*
X174826190Y-104857142D01*
X174826190Y-105238095D01*
X174302380Y-103809523D02*
X174302380Y-104000000D01*
X174350000Y-104095238D01*
X174397619Y-104142857D01*
X174540476Y-104238095D01*
X174730952Y-104285714D01*
X175111904Y-104285714D01*
X175207142Y-104238095D01*
X175254761Y-104190476D01*
X175302380Y-104095238D01*
X175302380Y-103904761D01*
X175254761Y-103809523D01*
X175207142Y-103761904D01*
X175111904Y-103714285D01*
X174873809Y-103714285D01*
X174778571Y-103761904D01*
X174730952Y-103809523D01*
X174683333Y-103904761D01*
X174683333Y-104095238D01*
X174730952Y-104190476D01*
X174778571Y-104238095D01*
X174873809Y-104285714D01*
X151928571Y-112333333D02*
X151928571Y-112666666D01*
X152452380Y-112666666D02*
X151452380Y-112666666D01*
X151452380Y-112190476D01*
X152452380Y-111285714D02*
X152452380Y-111857142D01*
X152452380Y-111571428D02*
X151452380Y-111571428D01*
X151595238Y-111666666D01*
X151690476Y-111761904D01*
X151738095Y-111857142D01*
X151052380Y-74563333D02*
X151766666Y-74563333D01*
X151909523Y-74610952D01*
X152004761Y-74706190D01*
X152052380Y-74849047D01*
X152052380Y-74944285D01*
X152052380Y-74087142D02*
X151052380Y-74087142D01*
X151052380Y-73706190D01*
X151100000Y-73610952D01*
X151147619Y-73563333D01*
X151242857Y-73515714D01*
X151385714Y-73515714D01*
X151480952Y-73563333D01*
X151528571Y-73610952D01*
X151576190Y-73706190D01*
X151576190Y-74087142D01*
X152052380Y-72563333D02*
X152052380Y-73134761D01*
X152052380Y-72849047D02*
X151052380Y-72849047D01*
X151195238Y-72944285D01*
X151290476Y-73039523D01*
X151338095Y-73134761D01*
X161722380Y-92761904D02*
X162531904Y-92761904D01*
X162627142Y-92714285D01*
X162674761Y-92666666D01*
X162722380Y-92571428D01*
X162722380Y-92380952D01*
X162674761Y-92285714D01*
X162627142Y-92238095D01*
X162531904Y-92190476D01*
X161722380Y-92190476D01*
X161817619Y-91761904D02*
X161770000Y-91714285D01*
X161722380Y-91619047D01*
X161722380Y-91380952D01*
X161770000Y-91285714D01*
X161817619Y-91238095D01*
X161912857Y-91190476D01*
X162008095Y-91190476D01*
X162150952Y-91238095D01*
X162722380Y-91809523D01*
X162722380Y-91190476D01*
X164333333Y-88357142D02*
X164285714Y-88404761D01*
X164142857Y-88452380D01*
X164047619Y-88452380D01*
X163904761Y-88404761D01*
X163809523Y-88309523D01*
X163761904Y-88214285D01*
X163714285Y-88023809D01*
X163714285Y-87880952D01*
X163761904Y-87690476D01*
X163809523Y-87595238D01*
X163904761Y-87500000D01*
X164047619Y-87452380D01*
X164142857Y-87452380D01*
X164285714Y-87500000D01*
X164333333Y-87547619D01*
X164714285Y-87547619D02*
X164761904Y-87500000D01*
X164857142Y-87452380D01*
X165095238Y-87452380D01*
X165190476Y-87500000D01*
X165238095Y-87547619D01*
X165285714Y-87642857D01*
X165285714Y-87738095D01*
X165238095Y-87880952D01*
X164666666Y-88452380D01*
X165285714Y-88452380D01*
X171152380Y-87738095D02*
X170152380Y-87738095D01*
X170152380Y-87500000D01*
X170200000Y-87357142D01*
X170295238Y-87261904D01*
X170390476Y-87214285D01*
X170580952Y-87166666D01*
X170723809Y-87166666D01*
X170914285Y-87214285D01*
X171009523Y-87261904D01*
X171104761Y-87357142D01*
X171152380Y-87500000D01*
X171152380Y-87738095D01*
X170247619Y-86785714D02*
X170200000Y-86738095D01*
X170152380Y-86642857D01*
X170152380Y-86404761D01*
X170200000Y-86309523D01*
X170247619Y-86261904D01*
X170342857Y-86214285D01*
X170438095Y-86214285D01*
X170580952Y-86261904D01*
X171152380Y-86833333D01*
X171152380Y-86214285D01*
X165833333Y-69302380D02*
X165500000Y-68826190D01*
X165261904Y-69302380D02*
X165261904Y-68302380D01*
X165642857Y-68302380D01*
X165738095Y-68350000D01*
X165785714Y-68397619D01*
X165833333Y-68492857D01*
X165833333Y-68635714D01*
X165785714Y-68730952D01*
X165738095Y-68778571D01*
X165642857Y-68826190D01*
X165261904Y-68826190D01*
X166214285Y-68397619D02*
X166261904Y-68350000D01*
X166357142Y-68302380D01*
X166595238Y-68302380D01*
X166690476Y-68350000D01*
X166738095Y-68397619D01*
X166785714Y-68492857D01*
X166785714Y-68588095D01*
X166738095Y-68730952D01*
X166166666Y-69302380D01*
X166785714Y-69302380D01*
X163333333Y-72802380D02*
X163000000Y-72326190D01*
X162761904Y-72802380D02*
X162761904Y-71802380D01*
X163142857Y-71802380D01*
X163238095Y-71850000D01*
X163285714Y-71897619D01*
X163333333Y-71992857D01*
X163333333Y-72135714D01*
X163285714Y-72230952D01*
X163238095Y-72278571D01*
X163142857Y-72326190D01*
X162761904Y-72326190D01*
X163666666Y-71802380D02*
X164285714Y-71802380D01*
X163952380Y-72183333D01*
X164095238Y-72183333D01*
X164190476Y-72230952D01*
X164238095Y-72278571D01*
X164285714Y-72373809D01*
X164285714Y-72611904D01*
X164238095Y-72707142D01*
X164190476Y-72754761D01*
X164095238Y-72802380D01*
X163809523Y-72802380D01*
X163714285Y-72754761D01*
X163666666Y-72707142D01*
X187107142Y-110666666D02*
X187154761Y-110714285D01*
X187202380Y-110857142D01*
X187202380Y-110952380D01*
X187154761Y-111095238D01*
X187059523Y-111190476D01*
X186964285Y-111238095D01*
X186773809Y-111285714D01*
X186630952Y-111285714D01*
X186440476Y-111238095D01*
X186345238Y-111190476D01*
X186250000Y-111095238D01*
X186202380Y-110952380D01*
X186202380Y-110857142D01*
X186250000Y-110714285D01*
X186297619Y-110666666D01*
X186535714Y-109809523D02*
X187202380Y-109809523D01*
X186154761Y-110047619D02*
X186869047Y-110285714D01*
X186869047Y-109666666D01*
X178333333Y-101607142D02*
X178285714Y-101654761D01*
X178142857Y-101702380D01*
X178047619Y-101702380D01*
X177904761Y-101654761D01*
X177809523Y-101559523D01*
X177761904Y-101464285D01*
X177714285Y-101273809D01*
X177714285Y-101130952D01*
X177761904Y-100940476D01*
X177809523Y-100845238D01*
X177904761Y-100750000D01*
X178047619Y-100702380D01*
X178142857Y-100702380D01*
X178285714Y-100750000D01*
X178333333Y-100797619D01*
X179190476Y-100702380D02*
X179000000Y-100702380D01*
X178904761Y-100750000D01*
X178857142Y-100797619D01*
X178761904Y-100940476D01*
X178714285Y-101130952D01*
X178714285Y-101511904D01*
X178761904Y-101607142D01*
X178809523Y-101654761D01*
X178904761Y-101702380D01*
X179095238Y-101702380D01*
X179190476Y-101654761D01*
X179238095Y-101607142D01*
X179285714Y-101511904D01*
X179285714Y-101273809D01*
X179238095Y-101178571D01*
X179190476Y-101130952D01*
X179095238Y-101083333D01*
X178904761Y-101083333D01*
X178809523Y-101130952D01*
X178761904Y-101178571D01*
X178714285Y-101273809D01*
X185677142Y-102666666D02*
X185724761Y-102714285D01*
X185772380Y-102857142D01*
X185772380Y-102952380D01*
X185724761Y-103095238D01*
X185629523Y-103190476D01*
X185534285Y-103238095D01*
X185343809Y-103285714D01*
X185200952Y-103285714D01*
X185010476Y-103238095D01*
X184915238Y-103190476D01*
X184820000Y-103095238D01*
X184772380Y-102952380D01*
X184772380Y-102857142D01*
X184820000Y-102714285D01*
X184867619Y-102666666D01*
X184772380Y-101761904D02*
X184772380Y-102238095D01*
X185248571Y-102285714D01*
X185200952Y-102238095D01*
X185153333Y-102142857D01*
X185153333Y-101904761D01*
X185200952Y-101809523D01*
X185248571Y-101761904D01*
X185343809Y-101714285D01*
X185581904Y-101714285D01*
X185677142Y-101761904D01*
X185724761Y-101809523D01*
X185772380Y-101904761D01*
X185772380Y-102142857D01*
X185724761Y-102238095D01*
X185677142Y-102285714D01*
X184272380Y-86166666D02*
X183796190Y-86500000D01*
X184272380Y-86738095D02*
X183272380Y-86738095D01*
X183272380Y-86357142D01*
X183320000Y-86261904D01*
X183367619Y-86214285D01*
X183462857Y-86166666D01*
X183605714Y-86166666D01*
X183700952Y-86214285D01*
X183748571Y-86261904D01*
X183796190Y-86357142D01*
X183796190Y-86738095D01*
X183700952Y-85595238D02*
X183653333Y-85690476D01*
X183605714Y-85738095D01*
X183510476Y-85785714D01*
X183462857Y-85785714D01*
X183367619Y-85738095D01*
X183320000Y-85690476D01*
X183272380Y-85595238D01*
X183272380Y-85404761D01*
X183320000Y-85309523D01*
X183367619Y-85261904D01*
X183462857Y-85214285D01*
X183510476Y-85214285D01*
X183605714Y-85261904D01*
X183653333Y-85309523D01*
X183700952Y-85404761D01*
X183700952Y-85595238D01*
X183748571Y-85690476D01*
X183796190Y-85738095D01*
X183891428Y-85785714D01*
X184081904Y-85785714D01*
X184177142Y-85738095D01*
X184224761Y-85690476D01*
X184272380Y-85595238D01*
X184272380Y-85404761D01*
X184224761Y-85309523D01*
X184177142Y-85261904D01*
X184081904Y-85214285D01*
X183891428Y-85214285D01*
X183796190Y-85261904D01*
X183748571Y-85309523D01*
X183700952Y-85404761D01*
X187272380Y-86166666D02*
X186796190Y-86500000D01*
X187272380Y-86738095D02*
X186272380Y-86738095D01*
X186272380Y-86357142D01*
X186320000Y-86261904D01*
X186367619Y-86214285D01*
X186462857Y-86166666D01*
X186605714Y-86166666D01*
X186700952Y-86214285D01*
X186748571Y-86261904D01*
X186796190Y-86357142D01*
X186796190Y-86738095D01*
X187272380Y-85690476D02*
X187272380Y-85500000D01*
X187224761Y-85404761D01*
X187177142Y-85357142D01*
X187034285Y-85261904D01*
X186843809Y-85214285D01*
X186462857Y-85214285D01*
X186367619Y-85261904D01*
X186320000Y-85309523D01*
X186272380Y-85404761D01*
X186272380Y-85595238D01*
X186320000Y-85690476D01*
X186367619Y-85738095D01*
X186462857Y-85785714D01*
X186700952Y-85785714D01*
X186796190Y-85738095D01*
X186843809Y-85690476D01*
X186891428Y-85595238D01*
X186891428Y-85404761D01*
X186843809Y-85309523D01*
X186796190Y-85261904D01*
X186700952Y-85214285D01*
X193452380Y-70142857D02*
X192976190Y-70476190D01*
X193452380Y-70714285D02*
X192452380Y-70714285D01*
X192452380Y-70333333D01*
X192500000Y-70238095D01*
X192547619Y-70190476D01*
X192642857Y-70142857D01*
X192785714Y-70142857D01*
X192880952Y-70190476D01*
X192928571Y-70238095D01*
X192976190Y-70333333D01*
X192976190Y-70714285D01*
X193452380Y-69190476D02*
X193452380Y-69761904D01*
X193452380Y-69476190D02*
X192452380Y-69476190D01*
X192595238Y-69571428D01*
X192690476Y-69666666D01*
X192738095Y-69761904D01*
X192452380Y-68571428D02*
X192452380Y-68476190D01*
X192500000Y-68380952D01*
X192547619Y-68333333D01*
X192642857Y-68285714D01*
X192833333Y-68238095D01*
X193071428Y-68238095D01*
X193261904Y-68285714D01*
X193357142Y-68333333D01*
X193404761Y-68380952D01*
X193452380Y-68476190D01*
X193452380Y-68571428D01*
X193404761Y-68666666D01*
X193357142Y-68714285D01*
X193261904Y-68761904D01*
X193071428Y-68809523D01*
X192833333Y-68809523D01*
X192642857Y-68761904D01*
X192547619Y-68714285D01*
X192500000Y-68666666D01*
X192452380Y-68571428D01*
X193452380Y-77642857D02*
X192976190Y-77976190D01*
X193452380Y-78214285D02*
X192452380Y-78214285D01*
X192452380Y-77833333D01*
X192500000Y-77738095D01*
X192547619Y-77690476D01*
X192642857Y-77642857D01*
X192785714Y-77642857D01*
X192880952Y-77690476D01*
X192928571Y-77738095D01*
X192976190Y-77833333D01*
X192976190Y-78214285D01*
X193452380Y-76690476D02*
X193452380Y-77261904D01*
X193452380Y-76976190D02*
X192452380Y-76976190D01*
X192595238Y-77071428D01*
X192690476Y-77166666D01*
X192738095Y-77261904D01*
X193452380Y-75738095D02*
X193452380Y-76309523D01*
X193452380Y-76023809D02*
X192452380Y-76023809D01*
X192595238Y-76119047D01*
X192690476Y-76214285D01*
X192738095Y-76309523D01*
X153357142Y-83166666D02*
X153404761Y-83214285D01*
X153452380Y-83357142D01*
X153452380Y-83452380D01*
X153404761Y-83595238D01*
X153309523Y-83690476D01*
X153214285Y-83738095D01*
X153023809Y-83785714D01*
X152880952Y-83785714D01*
X152690476Y-83738095D01*
X152595238Y-83690476D01*
X152500000Y-83595238D01*
X152452380Y-83452380D01*
X152452380Y-83357142D01*
X152500000Y-83214285D01*
X152547619Y-83166666D01*
X152452380Y-82833333D02*
X152452380Y-82214285D01*
X152833333Y-82547619D01*
X152833333Y-82404761D01*
X152880952Y-82309523D01*
X152928571Y-82261904D01*
X153023809Y-82214285D01*
X153261904Y-82214285D01*
X153357142Y-82261904D01*
X153404761Y-82309523D01*
X153452380Y-82404761D01*
X153452380Y-82690476D01*
X153404761Y-82785714D01*
X153357142Y-82833333D01*
X154833333Y-95077142D02*
X154785714Y-95124761D01*
X154642857Y-95172380D01*
X154547619Y-95172380D01*
X154404761Y-95124761D01*
X154309523Y-95029523D01*
X154261904Y-94934285D01*
X154214285Y-94743809D01*
X154214285Y-94600952D01*
X154261904Y-94410476D01*
X154309523Y-94315238D01*
X154404761Y-94220000D01*
X154547619Y-94172380D01*
X154642857Y-94172380D01*
X154785714Y-94220000D01*
X154833333Y-94267619D01*
X155166666Y-94172380D02*
X155833333Y-94172380D01*
X155404761Y-95172380D01*
X167657142Y-104666666D02*
X167704761Y-104714285D01*
X167752380Y-104857142D01*
X167752380Y-104952380D01*
X167704761Y-105095238D01*
X167609523Y-105190476D01*
X167514285Y-105238095D01*
X167323809Y-105285714D01*
X167180952Y-105285714D01*
X166990476Y-105238095D01*
X166895238Y-105190476D01*
X166800000Y-105095238D01*
X166752380Y-104952380D01*
X166752380Y-104857142D01*
X166800000Y-104714285D01*
X166847619Y-104666666D01*
X167180952Y-104095238D02*
X167133333Y-104190476D01*
X167085714Y-104238095D01*
X166990476Y-104285714D01*
X166942857Y-104285714D01*
X166847619Y-104238095D01*
X166800000Y-104190476D01*
X166752380Y-104095238D01*
X166752380Y-103904761D01*
X166800000Y-103809523D01*
X166847619Y-103761904D01*
X166942857Y-103714285D01*
X166990476Y-103714285D01*
X167085714Y-103761904D01*
X167133333Y-103809523D01*
X167180952Y-103904761D01*
X167180952Y-104095238D01*
X167228571Y-104190476D01*
X167276190Y-104238095D01*
X167371428Y-104285714D01*
X167561904Y-104285714D01*
X167657142Y-104238095D01*
X167704761Y-104190476D01*
X167752380Y-104095238D01*
X167752380Y-103904761D01*
X167704761Y-103809523D01*
X167657142Y-103761904D01*
X167561904Y-103714285D01*
X167371428Y-103714285D01*
X167276190Y-103761904D01*
X167228571Y-103809523D01*
X167180952Y-103904761D01*
X170833333Y-65537142D02*
X170785714Y-65584761D01*
X170642857Y-65632380D01*
X170547619Y-65632380D01*
X170404761Y-65584761D01*
X170309523Y-65489523D01*
X170261904Y-65394285D01*
X170214285Y-65203809D01*
X170214285Y-65060952D01*
X170261904Y-64870476D01*
X170309523Y-64775238D01*
X170404761Y-64680000D01*
X170547619Y-64632380D01*
X170642857Y-64632380D01*
X170785714Y-64680000D01*
X170833333Y-64727619D01*
X171309523Y-65632380D02*
X171500000Y-65632380D01*
X171595238Y-65584761D01*
X171642857Y-65537142D01*
X171738095Y-65394285D01*
X171785714Y-65203809D01*
X171785714Y-64822857D01*
X171738095Y-64727619D01*
X171690476Y-64680000D01*
X171595238Y-64632380D01*
X171404761Y-64632380D01*
X171309523Y-64680000D01*
X171261904Y-64727619D01*
X171214285Y-64822857D01*
X171214285Y-65060952D01*
X171261904Y-65156190D01*
X171309523Y-65203809D01*
X171404761Y-65251428D01*
X171595238Y-65251428D01*
X171690476Y-65203809D01*
X171738095Y-65156190D01*
X171785714Y-65060952D01*
X161666666Y-63502380D02*
X161666666Y-64216666D01*
X161619047Y-64359523D01*
X161523809Y-64454761D01*
X161380952Y-64502380D01*
X161285714Y-64502380D01*
X162095238Y-63597619D02*
X162142857Y-63550000D01*
X162238095Y-63502380D01*
X162476190Y-63502380D01*
X162571428Y-63550000D01*
X162619047Y-63597619D01*
X162666666Y-63692857D01*
X162666666Y-63788095D01*
X162619047Y-63930952D01*
X162047619Y-64502380D01*
X162666666Y-64502380D01*
X178132380Y-89666666D02*
X177656190Y-90000000D01*
X178132380Y-90238095D02*
X177132380Y-90238095D01*
X177132380Y-89857142D01*
X177180000Y-89761904D01*
X177227619Y-89714285D01*
X177322857Y-89666666D01*
X177465714Y-89666666D01*
X177560952Y-89714285D01*
X177608571Y-89761904D01*
X177656190Y-89857142D01*
X177656190Y-90238095D01*
X177465714Y-88809523D02*
X178132380Y-88809523D01*
X177084761Y-89047619D02*
X177799047Y-89285714D01*
X177799047Y-88666666D01*
X174132380Y-92666666D02*
X173656190Y-93000000D01*
X174132380Y-93238095D02*
X173132380Y-93238095D01*
X173132380Y-92857142D01*
X173180000Y-92761904D01*
X173227619Y-92714285D01*
X173322857Y-92666666D01*
X173465714Y-92666666D01*
X173560952Y-92714285D01*
X173608571Y-92761904D01*
X173656190Y-92857142D01*
X173656190Y-93238095D01*
X173132380Y-91761904D02*
X173132380Y-92238095D01*
X173608571Y-92285714D01*
X173560952Y-92238095D01*
X173513333Y-92142857D01*
X173513333Y-91904761D01*
X173560952Y-91809523D01*
X173608571Y-91761904D01*
X173703809Y-91714285D01*
X173941904Y-91714285D01*
X174037142Y-91761904D01*
X174084761Y-91809523D01*
X174132380Y-91904761D01*
X174132380Y-92142857D01*
X174084761Y-92238095D01*
X174037142Y-92285714D01*
X172666666Y-111902380D02*
X172666666Y-112616666D01*
X172619047Y-112759523D01*
X172523809Y-112854761D01*
X172380952Y-112902380D01*
X172285714Y-112902380D01*
X173619047Y-111902380D02*
X173142857Y-111902380D01*
X173095238Y-112378571D01*
X173142857Y-112330952D01*
X173238095Y-112283333D01*
X173476190Y-112283333D01*
X173571428Y-112330952D01*
X173619047Y-112378571D01*
X173666666Y-112473809D01*
X173666666Y-112711904D01*
X173619047Y-112807142D01*
X173571428Y-112854761D01*
X173476190Y-112902380D01*
X173238095Y-112902380D01*
X173142857Y-112854761D01*
X173095238Y-112807142D01*
X182666666Y-63502380D02*
X182666666Y-64216666D01*
X182619047Y-64359523D01*
X182523809Y-64454761D01*
X182380952Y-64502380D01*
X182285714Y-64502380D01*
X183571428Y-63502380D02*
X183380952Y-63502380D01*
X183285714Y-63550000D01*
X183238095Y-63597619D01*
X183142857Y-63740476D01*
X183095238Y-63930952D01*
X183095238Y-64311904D01*
X183142857Y-64407142D01*
X183190476Y-64454761D01*
X183285714Y-64502380D01*
X183476190Y-64502380D01*
X183571428Y-64454761D01*
X183619047Y-64407142D01*
X183666666Y-64311904D01*
X183666666Y-64073809D01*
X183619047Y-63978571D01*
X183571428Y-63930952D01*
X183476190Y-63883333D01*
X183285714Y-63883333D01*
X183190476Y-63930952D01*
X183142857Y-63978571D01*
X183095238Y-64073809D01*
X182666666Y-111902380D02*
X182666666Y-112616666D01*
X182619047Y-112759523D01*
X182523809Y-112854761D01*
X182380952Y-112902380D01*
X182285714Y-112902380D01*
X183047619Y-111902380D02*
X183666666Y-111902380D01*
X183333333Y-112283333D01*
X183476190Y-112283333D01*
X183571428Y-112330952D01*
X183619047Y-112378571D01*
X183666666Y-112473809D01*
X183666666Y-112711904D01*
X183619047Y-112807142D01*
X183571428Y-112854761D01*
X183476190Y-112902380D01*
X183190476Y-112902380D01*
X183095238Y-112854761D01*
X183047619Y-112807142D01*
X162666666Y-111902380D02*
X162666666Y-112616666D01*
X162619047Y-112759523D01*
X162523809Y-112854761D01*
X162380952Y-112902380D01*
X162285714Y-112902380D01*
X163666666Y-112902380D02*
X163095238Y-112902380D01*
X163380952Y-112902380D02*
X163380952Y-111902380D01*
X163285714Y-112045238D01*
X163190476Y-112140476D01*
X163095238Y-112188095D01*
X167702380Y-105833333D02*
X167226190Y-106166666D01*
X167702380Y-106404761D02*
X166702380Y-106404761D01*
X166702380Y-106023809D01*
X166750000Y-105928571D01*
X166797619Y-105880952D01*
X166892857Y-105833333D01*
X167035714Y-105833333D01*
X167130952Y-105880952D01*
X167178571Y-105928571D01*
X167226190Y-106023809D01*
X167226190Y-106404761D01*
X167178571Y-105404761D02*
X167178571Y-105071428D01*
X167702380Y-104928571D02*
X167702380Y-105404761D01*
X166702380Y-105404761D01*
X166702380Y-104928571D01*
X167178571Y-104166666D02*
X167178571Y-104500000D01*
X167702380Y-104500000D02*
X166702380Y-104500000D01*
X166702380Y-104023809D01*
X166702380Y-103500000D02*
X166940476Y-103500000D01*
X166845238Y-103738095D02*
X166940476Y-103500000D01*
X166845238Y-103261904D01*
X167130952Y-103642857D02*
X166940476Y-103500000D01*
X167130952Y-103357142D01*
X166702380Y-102738095D02*
X166940476Y-102738095D01*
X166845238Y-102976190D02*
X166940476Y-102738095D01*
X166845238Y-102500000D01*
X167130952Y-102880952D02*
X166940476Y-102738095D01*
X167130952Y-102595238D01*
X185832380Y-75428095D02*
X184832380Y-75428095D01*
X184832380Y-75190000D01*
X184880000Y-75047142D01*
X184975238Y-74951904D01*
X185070476Y-74904285D01*
X185260952Y-74856666D01*
X185403809Y-74856666D01*
X185594285Y-74904285D01*
X185689523Y-74951904D01*
X185784761Y-75047142D01*
X185832380Y-75190000D01*
X185832380Y-75428095D01*
X185165714Y-73999523D02*
X185832380Y-73999523D01*
X184784761Y-74237619D02*
X185499047Y-74475714D01*
X185499047Y-73856666D01*
X186152380Y-78761904D02*
X185152380Y-78761904D01*
X186152380Y-78190476D02*
X185580952Y-78619047D01*
X185152380Y-78190476D02*
X185723809Y-78761904D01*
M02*
