%TF.GenerationSoftware,KiCad,Pcbnew,5.1.1*%
%TF.CreationDate,2019-04-24T12:59:08+01:00*%
%TF.ProjectId,ESP8266_home_battery_controller,45535038-3236-4365-9f68-6f6d655f6261,0.6*%
%TF.SameCoordinates,Original*%
%TF.FileFunction,Copper,L1,Top*%
%TF.FilePolarity,Positive*%
%FSLAX46Y46*%
G04 Gerber Fmt 4.6, Leading zero omitted, Abs format (unit mm)*
G04 Created by KiCad (PCBNEW 5.1.1) date 2019-04-24 12:59:08*
%MOMM*%
%LPD*%
G04 APERTURE LIST*
%ADD10C,0.150000*%
%ADD11O,1.200000X1.750000*%
%ADD12C,0.100000*%
%ADD13C,1.200000*%
%ADD14R,1.600000X1.000000*%
%ADD15R,2.350000X5.100000*%
%ADD16C,1.800000*%
%ADD17C,3.500000*%
%ADD18R,1.100000X0.250000*%
%ADD19R,1.700000X0.900000*%
%ADD20R,3.500000X3.500000*%
%ADD21O,3.010000X1.510000*%
%ADD22R,1.143000X0.508000*%
%ADD23R,1.000000X1.600000*%
%ADD24R,3.000000X2.000000*%
%ADD25R,0.900000X1.700000*%
%ADD26C,1.425000*%
%ADD27C,2.250000*%
%ADD28R,2.500000X4.400000*%
%ADD29C,2.000000*%
%ADD30R,2.000000X2.000000*%
%ADD31R,1.600000X1.600000*%
%ADD32O,1.600000X1.600000*%
%ADD33C,0.600000*%
%ADD34C,0.250000*%
%ADD35C,0.600000*%
%ADD36C,0.400000*%
G04 APERTURE END LIST*
D10*
X150000000Y-55000000D02*
X195000000Y-55000000D01*
X150000000Y-120000000D02*
X150000000Y-55000000D01*
X195000000Y-120000000D02*
X150000000Y-120000000D01*
X195000000Y-55000000D02*
X195000000Y-120000000D01*
D11*
X171000000Y-61500000D03*
X173000000Y-61500000D03*
D12*
G36*
X175374505Y-60626204D02*
G01*
X175398773Y-60629804D01*
X175422572Y-60635765D01*
X175445671Y-60644030D01*
X175467850Y-60654520D01*
X175488893Y-60667132D01*
X175508599Y-60681747D01*
X175526777Y-60698223D01*
X175543253Y-60716401D01*
X175557868Y-60736107D01*
X175570480Y-60757150D01*
X175580970Y-60779329D01*
X175589235Y-60802428D01*
X175595196Y-60826227D01*
X175598796Y-60850495D01*
X175600000Y-60874999D01*
X175600000Y-62125001D01*
X175598796Y-62149505D01*
X175595196Y-62173773D01*
X175589235Y-62197572D01*
X175580970Y-62220671D01*
X175570480Y-62242850D01*
X175557868Y-62263893D01*
X175543253Y-62283599D01*
X175526777Y-62301777D01*
X175508599Y-62318253D01*
X175488893Y-62332868D01*
X175467850Y-62345480D01*
X175445671Y-62355970D01*
X175422572Y-62364235D01*
X175398773Y-62370196D01*
X175374505Y-62373796D01*
X175350001Y-62375000D01*
X174649999Y-62375000D01*
X174625495Y-62373796D01*
X174601227Y-62370196D01*
X174577428Y-62364235D01*
X174554329Y-62355970D01*
X174532150Y-62345480D01*
X174511107Y-62332868D01*
X174491401Y-62318253D01*
X174473223Y-62301777D01*
X174456747Y-62283599D01*
X174442132Y-62263893D01*
X174429520Y-62242850D01*
X174419030Y-62220671D01*
X174410765Y-62197572D01*
X174404804Y-62173773D01*
X174401204Y-62149505D01*
X174400000Y-62125001D01*
X174400000Y-60874999D01*
X174401204Y-60850495D01*
X174404804Y-60826227D01*
X174410765Y-60802428D01*
X174419030Y-60779329D01*
X174429520Y-60757150D01*
X174442132Y-60736107D01*
X174456747Y-60716401D01*
X174473223Y-60698223D01*
X174491401Y-60681747D01*
X174511107Y-60667132D01*
X174532150Y-60654520D01*
X174554329Y-60644030D01*
X174577428Y-60635765D01*
X174601227Y-60629804D01*
X174625495Y-60626204D01*
X174649999Y-60625000D01*
X175350001Y-60625000D01*
X175374505Y-60626204D01*
X175374505Y-60626204D01*
G37*
D13*
X175000000Y-61500000D03*
D14*
X157000000Y-86500000D03*
X157000000Y-83500000D03*
D15*
X159925000Y-82500000D03*
X164075000Y-82500000D03*
D16*
X169570000Y-92840000D03*
X169570000Y-95380000D03*
X169570000Y-97920000D03*
X169570000Y-100460000D03*
X169570000Y-103000000D03*
X169570000Y-105540000D03*
X169570000Y-108080000D03*
X169570000Y-110620000D03*
X192430000Y-110620000D03*
X192430000Y-108080000D03*
X192430000Y-105540000D03*
X192430000Y-103000000D03*
X192430000Y-100460000D03*
X192430000Y-97920000D03*
X192430000Y-95380000D03*
X192430000Y-92840000D03*
D17*
X191000000Y-116000000D03*
D18*
X181150000Y-97000000D03*
X181150000Y-97500000D03*
X181150000Y-98000000D03*
X181150000Y-98500000D03*
X181150000Y-99000000D03*
X176850000Y-99000000D03*
X176850000Y-98500000D03*
X176850000Y-98000000D03*
X176850000Y-97500000D03*
X176850000Y-97000000D03*
D19*
X177000000Y-106050000D03*
X177000000Y-108950000D03*
X173000000Y-105950000D03*
X173000000Y-103050000D03*
D20*
X153000000Y-108900000D03*
X153000000Y-102100000D03*
D21*
X155500000Y-75000000D03*
X155500000Y-72460000D03*
D22*
X164175000Y-90095000D03*
X164175000Y-91365000D03*
X164175000Y-92635000D03*
X164175000Y-93905000D03*
X157825000Y-93905000D03*
X157825000Y-92635000D03*
X157825000Y-91365000D03*
X157825000Y-90095000D03*
D23*
X159500000Y-87500000D03*
X162500000Y-87500000D03*
D24*
X168000000Y-84675000D03*
X168000000Y-89325000D03*
D25*
X167450000Y-67000000D03*
X164550000Y-67000000D03*
X164950000Y-70500000D03*
X162050000Y-70500000D03*
D14*
X188500000Y-112000000D03*
X188500000Y-109000000D03*
D23*
X177000000Y-103000000D03*
X180000000Y-103000000D03*
D17*
X154000000Y-59000000D03*
X191000000Y-59000000D03*
X154000000Y-116000000D03*
D12*
G36*
X184149504Y-100301204D02*
G01*
X184173773Y-100304804D01*
X184197571Y-100310765D01*
X184220671Y-100319030D01*
X184242849Y-100329520D01*
X184263893Y-100342133D01*
X184283598Y-100356747D01*
X184301777Y-100373223D01*
X184318253Y-100391402D01*
X184332867Y-100411107D01*
X184345480Y-100432151D01*
X184355970Y-100454329D01*
X184364235Y-100477429D01*
X184370196Y-100501227D01*
X184373796Y-100525496D01*
X184375000Y-100550000D01*
X184375000Y-101475000D01*
X184373796Y-101499504D01*
X184370196Y-101523773D01*
X184364235Y-101547571D01*
X184355970Y-101570671D01*
X184345480Y-101592849D01*
X184332867Y-101613893D01*
X184318253Y-101633598D01*
X184301777Y-101651777D01*
X184283598Y-101668253D01*
X184263893Y-101682867D01*
X184242849Y-101695480D01*
X184220671Y-101705970D01*
X184197571Y-101714235D01*
X184173773Y-101720196D01*
X184149504Y-101723796D01*
X184125000Y-101725000D01*
X182875000Y-101725000D01*
X182850496Y-101723796D01*
X182826227Y-101720196D01*
X182802429Y-101714235D01*
X182779329Y-101705970D01*
X182757151Y-101695480D01*
X182736107Y-101682867D01*
X182716402Y-101668253D01*
X182698223Y-101651777D01*
X182681747Y-101633598D01*
X182667133Y-101613893D01*
X182654520Y-101592849D01*
X182644030Y-101570671D01*
X182635765Y-101547571D01*
X182629804Y-101523773D01*
X182626204Y-101499504D01*
X182625000Y-101475000D01*
X182625000Y-100550000D01*
X182626204Y-100525496D01*
X182629804Y-100501227D01*
X182635765Y-100477429D01*
X182644030Y-100454329D01*
X182654520Y-100432151D01*
X182667133Y-100411107D01*
X182681747Y-100391402D01*
X182698223Y-100373223D01*
X182716402Y-100356747D01*
X182736107Y-100342133D01*
X182757151Y-100329520D01*
X182779329Y-100319030D01*
X182802429Y-100310765D01*
X182826227Y-100304804D01*
X182850496Y-100301204D01*
X182875000Y-100300000D01*
X184125000Y-100300000D01*
X184149504Y-100301204D01*
X184149504Y-100301204D01*
G37*
D26*
X183500000Y-101012500D03*
D12*
G36*
X184149504Y-103276204D02*
G01*
X184173773Y-103279804D01*
X184197571Y-103285765D01*
X184220671Y-103294030D01*
X184242849Y-103304520D01*
X184263893Y-103317133D01*
X184283598Y-103331747D01*
X184301777Y-103348223D01*
X184318253Y-103366402D01*
X184332867Y-103386107D01*
X184345480Y-103407151D01*
X184355970Y-103429329D01*
X184364235Y-103452429D01*
X184370196Y-103476227D01*
X184373796Y-103500496D01*
X184375000Y-103525000D01*
X184375000Y-104450000D01*
X184373796Y-104474504D01*
X184370196Y-104498773D01*
X184364235Y-104522571D01*
X184355970Y-104545671D01*
X184345480Y-104567849D01*
X184332867Y-104588893D01*
X184318253Y-104608598D01*
X184301777Y-104626777D01*
X184283598Y-104643253D01*
X184263893Y-104657867D01*
X184242849Y-104670480D01*
X184220671Y-104680970D01*
X184197571Y-104689235D01*
X184173773Y-104695196D01*
X184149504Y-104698796D01*
X184125000Y-104700000D01*
X182875000Y-104700000D01*
X182850496Y-104698796D01*
X182826227Y-104695196D01*
X182802429Y-104689235D01*
X182779329Y-104680970D01*
X182757151Y-104670480D01*
X182736107Y-104657867D01*
X182716402Y-104643253D01*
X182698223Y-104626777D01*
X182681747Y-104608598D01*
X182667133Y-104588893D01*
X182654520Y-104567849D01*
X182644030Y-104545671D01*
X182635765Y-104522571D01*
X182629804Y-104498773D01*
X182626204Y-104474504D01*
X182625000Y-104450000D01*
X182625000Y-103525000D01*
X182626204Y-103500496D01*
X182629804Y-103476227D01*
X182635765Y-103452429D01*
X182644030Y-103429329D01*
X182654520Y-103407151D01*
X182667133Y-103386107D01*
X182681747Y-103366402D01*
X182698223Y-103348223D01*
X182716402Y-103331747D01*
X182736107Y-103317133D01*
X182757151Y-103304520D01*
X182779329Y-103294030D01*
X182802429Y-103285765D01*
X182826227Y-103279804D01*
X182850496Y-103276204D01*
X182875000Y-103275000D01*
X184125000Y-103275000D01*
X184149504Y-103276204D01*
X184149504Y-103276204D01*
G37*
D26*
X183500000Y-103987500D03*
D12*
G36*
X182649504Y-86776204D02*
G01*
X182673773Y-86779804D01*
X182697571Y-86785765D01*
X182720671Y-86794030D01*
X182742849Y-86804520D01*
X182763893Y-86817133D01*
X182783598Y-86831747D01*
X182801777Y-86848223D01*
X182818253Y-86866402D01*
X182832867Y-86886107D01*
X182845480Y-86907151D01*
X182855970Y-86929329D01*
X182864235Y-86952429D01*
X182870196Y-86976227D01*
X182873796Y-87000496D01*
X182875000Y-87025000D01*
X182875000Y-87950000D01*
X182873796Y-87974504D01*
X182870196Y-87998773D01*
X182864235Y-88022571D01*
X182855970Y-88045671D01*
X182845480Y-88067849D01*
X182832867Y-88088893D01*
X182818253Y-88108598D01*
X182801777Y-88126777D01*
X182783598Y-88143253D01*
X182763893Y-88157867D01*
X182742849Y-88170480D01*
X182720671Y-88180970D01*
X182697571Y-88189235D01*
X182673773Y-88195196D01*
X182649504Y-88198796D01*
X182625000Y-88200000D01*
X181375000Y-88200000D01*
X181350496Y-88198796D01*
X181326227Y-88195196D01*
X181302429Y-88189235D01*
X181279329Y-88180970D01*
X181257151Y-88170480D01*
X181236107Y-88157867D01*
X181216402Y-88143253D01*
X181198223Y-88126777D01*
X181181747Y-88108598D01*
X181167133Y-88088893D01*
X181154520Y-88067849D01*
X181144030Y-88045671D01*
X181135765Y-88022571D01*
X181129804Y-87998773D01*
X181126204Y-87974504D01*
X181125000Y-87950000D01*
X181125000Y-87025000D01*
X181126204Y-87000496D01*
X181129804Y-86976227D01*
X181135765Y-86952429D01*
X181144030Y-86929329D01*
X181154520Y-86907151D01*
X181167133Y-86886107D01*
X181181747Y-86866402D01*
X181198223Y-86848223D01*
X181216402Y-86831747D01*
X181236107Y-86817133D01*
X181257151Y-86804520D01*
X181279329Y-86794030D01*
X181302429Y-86785765D01*
X181326227Y-86779804D01*
X181350496Y-86776204D01*
X181375000Y-86775000D01*
X182625000Y-86775000D01*
X182649504Y-86776204D01*
X182649504Y-86776204D01*
G37*
D26*
X182000000Y-87487500D03*
D12*
G36*
X182649504Y-83801204D02*
G01*
X182673773Y-83804804D01*
X182697571Y-83810765D01*
X182720671Y-83819030D01*
X182742849Y-83829520D01*
X182763893Y-83842133D01*
X182783598Y-83856747D01*
X182801777Y-83873223D01*
X182818253Y-83891402D01*
X182832867Y-83911107D01*
X182845480Y-83932151D01*
X182855970Y-83954329D01*
X182864235Y-83977429D01*
X182870196Y-84001227D01*
X182873796Y-84025496D01*
X182875000Y-84050000D01*
X182875000Y-84975000D01*
X182873796Y-84999504D01*
X182870196Y-85023773D01*
X182864235Y-85047571D01*
X182855970Y-85070671D01*
X182845480Y-85092849D01*
X182832867Y-85113893D01*
X182818253Y-85133598D01*
X182801777Y-85151777D01*
X182783598Y-85168253D01*
X182763893Y-85182867D01*
X182742849Y-85195480D01*
X182720671Y-85205970D01*
X182697571Y-85214235D01*
X182673773Y-85220196D01*
X182649504Y-85223796D01*
X182625000Y-85225000D01*
X181375000Y-85225000D01*
X181350496Y-85223796D01*
X181326227Y-85220196D01*
X181302429Y-85214235D01*
X181279329Y-85205970D01*
X181257151Y-85195480D01*
X181236107Y-85182867D01*
X181216402Y-85168253D01*
X181198223Y-85151777D01*
X181181747Y-85133598D01*
X181167133Y-85113893D01*
X181154520Y-85092849D01*
X181144030Y-85070671D01*
X181135765Y-85047571D01*
X181129804Y-85023773D01*
X181126204Y-84999504D01*
X181125000Y-84975000D01*
X181125000Y-84050000D01*
X181126204Y-84025496D01*
X181129804Y-84001227D01*
X181135765Y-83977429D01*
X181144030Y-83954329D01*
X181154520Y-83932151D01*
X181167133Y-83911107D01*
X181181747Y-83891402D01*
X181198223Y-83873223D01*
X181216402Y-83856747D01*
X181236107Y-83842133D01*
X181257151Y-83829520D01*
X181279329Y-83819030D01*
X181302429Y-83810765D01*
X181326227Y-83804804D01*
X181350496Y-83801204D01*
X181375000Y-83800000D01*
X182625000Y-83800000D01*
X182649504Y-83801204D01*
X182649504Y-83801204D01*
G37*
D26*
X182000000Y-84512500D03*
D12*
G36*
X185649504Y-83801204D02*
G01*
X185673773Y-83804804D01*
X185697571Y-83810765D01*
X185720671Y-83819030D01*
X185742849Y-83829520D01*
X185763893Y-83842133D01*
X185783598Y-83856747D01*
X185801777Y-83873223D01*
X185818253Y-83891402D01*
X185832867Y-83911107D01*
X185845480Y-83932151D01*
X185855970Y-83954329D01*
X185864235Y-83977429D01*
X185870196Y-84001227D01*
X185873796Y-84025496D01*
X185875000Y-84050000D01*
X185875000Y-84975000D01*
X185873796Y-84999504D01*
X185870196Y-85023773D01*
X185864235Y-85047571D01*
X185855970Y-85070671D01*
X185845480Y-85092849D01*
X185832867Y-85113893D01*
X185818253Y-85133598D01*
X185801777Y-85151777D01*
X185783598Y-85168253D01*
X185763893Y-85182867D01*
X185742849Y-85195480D01*
X185720671Y-85205970D01*
X185697571Y-85214235D01*
X185673773Y-85220196D01*
X185649504Y-85223796D01*
X185625000Y-85225000D01*
X184375000Y-85225000D01*
X184350496Y-85223796D01*
X184326227Y-85220196D01*
X184302429Y-85214235D01*
X184279329Y-85205970D01*
X184257151Y-85195480D01*
X184236107Y-85182867D01*
X184216402Y-85168253D01*
X184198223Y-85151777D01*
X184181747Y-85133598D01*
X184167133Y-85113893D01*
X184154520Y-85092849D01*
X184144030Y-85070671D01*
X184135765Y-85047571D01*
X184129804Y-85023773D01*
X184126204Y-84999504D01*
X184125000Y-84975000D01*
X184125000Y-84050000D01*
X184126204Y-84025496D01*
X184129804Y-84001227D01*
X184135765Y-83977429D01*
X184144030Y-83954329D01*
X184154520Y-83932151D01*
X184167133Y-83911107D01*
X184181747Y-83891402D01*
X184198223Y-83873223D01*
X184216402Y-83856747D01*
X184236107Y-83842133D01*
X184257151Y-83829520D01*
X184279329Y-83819030D01*
X184302429Y-83810765D01*
X184326227Y-83804804D01*
X184350496Y-83801204D01*
X184375000Y-83800000D01*
X185625000Y-83800000D01*
X185649504Y-83801204D01*
X185649504Y-83801204D01*
G37*
D26*
X185000000Y-84512500D03*
D12*
G36*
X185649504Y-86776204D02*
G01*
X185673773Y-86779804D01*
X185697571Y-86785765D01*
X185720671Y-86794030D01*
X185742849Y-86804520D01*
X185763893Y-86817133D01*
X185783598Y-86831747D01*
X185801777Y-86848223D01*
X185818253Y-86866402D01*
X185832867Y-86886107D01*
X185845480Y-86907151D01*
X185855970Y-86929329D01*
X185864235Y-86952429D01*
X185870196Y-86976227D01*
X185873796Y-87000496D01*
X185875000Y-87025000D01*
X185875000Y-87950000D01*
X185873796Y-87974504D01*
X185870196Y-87998773D01*
X185864235Y-88022571D01*
X185855970Y-88045671D01*
X185845480Y-88067849D01*
X185832867Y-88088893D01*
X185818253Y-88108598D01*
X185801777Y-88126777D01*
X185783598Y-88143253D01*
X185763893Y-88157867D01*
X185742849Y-88170480D01*
X185720671Y-88180970D01*
X185697571Y-88189235D01*
X185673773Y-88195196D01*
X185649504Y-88198796D01*
X185625000Y-88200000D01*
X184375000Y-88200000D01*
X184350496Y-88198796D01*
X184326227Y-88195196D01*
X184302429Y-88189235D01*
X184279329Y-88180970D01*
X184257151Y-88170480D01*
X184236107Y-88157867D01*
X184216402Y-88143253D01*
X184198223Y-88126777D01*
X184181747Y-88108598D01*
X184167133Y-88088893D01*
X184154520Y-88067849D01*
X184144030Y-88045671D01*
X184135765Y-88022571D01*
X184129804Y-87998773D01*
X184126204Y-87974504D01*
X184125000Y-87950000D01*
X184125000Y-87025000D01*
X184126204Y-87000496D01*
X184129804Y-86976227D01*
X184135765Y-86952429D01*
X184144030Y-86929329D01*
X184154520Y-86907151D01*
X184167133Y-86886107D01*
X184181747Y-86866402D01*
X184198223Y-86848223D01*
X184216402Y-86831747D01*
X184236107Y-86817133D01*
X184257151Y-86804520D01*
X184279329Y-86794030D01*
X184302429Y-86785765D01*
X184326227Y-86779804D01*
X184350496Y-86776204D01*
X184375000Y-86775000D01*
X185625000Y-86775000D01*
X185649504Y-86776204D01*
X185649504Y-86776204D01*
G37*
D26*
X185000000Y-87487500D03*
D12*
G36*
X191649504Y-67801204D02*
G01*
X191673773Y-67804804D01*
X191697571Y-67810765D01*
X191720671Y-67819030D01*
X191742849Y-67829520D01*
X191763893Y-67842133D01*
X191783598Y-67856747D01*
X191801777Y-67873223D01*
X191818253Y-67891402D01*
X191832867Y-67911107D01*
X191845480Y-67932151D01*
X191855970Y-67954329D01*
X191864235Y-67977429D01*
X191870196Y-68001227D01*
X191873796Y-68025496D01*
X191875000Y-68050000D01*
X191875000Y-68975000D01*
X191873796Y-68999504D01*
X191870196Y-69023773D01*
X191864235Y-69047571D01*
X191855970Y-69070671D01*
X191845480Y-69092849D01*
X191832867Y-69113893D01*
X191818253Y-69133598D01*
X191801777Y-69151777D01*
X191783598Y-69168253D01*
X191763893Y-69182867D01*
X191742849Y-69195480D01*
X191720671Y-69205970D01*
X191697571Y-69214235D01*
X191673773Y-69220196D01*
X191649504Y-69223796D01*
X191625000Y-69225000D01*
X190375000Y-69225000D01*
X190350496Y-69223796D01*
X190326227Y-69220196D01*
X190302429Y-69214235D01*
X190279329Y-69205970D01*
X190257151Y-69195480D01*
X190236107Y-69182867D01*
X190216402Y-69168253D01*
X190198223Y-69151777D01*
X190181747Y-69133598D01*
X190167133Y-69113893D01*
X190154520Y-69092849D01*
X190144030Y-69070671D01*
X190135765Y-69047571D01*
X190129804Y-69023773D01*
X190126204Y-68999504D01*
X190125000Y-68975000D01*
X190125000Y-68050000D01*
X190126204Y-68025496D01*
X190129804Y-68001227D01*
X190135765Y-67977429D01*
X190144030Y-67954329D01*
X190154520Y-67932151D01*
X190167133Y-67911107D01*
X190181747Y-67891402D01*
X190198223Y-67873223D01*
X190216402Y-67856747D01*
X190236107Y-67842133D01*
X190257151Y-67829520D01*
X190279329Y-67819030D01*
X190302429Y-67810765D01*
X190326227Y-67804804D01*
X190350496Y-67801204D01*
X190375000Y-67800000D01*
X191625000Y-67800000D01*
X191649504Y-67801204D01*
X191649504Y-67801204D01*
G37*
D26*
X191000000Y-68512500D03*
D12*
G36*
X191649504Y-70776204D02*
G01*
X191673773Y-70779804D01*
X191697571Y-70785765D01*
X191720671Y-70794030D01*
X191742849Y-70804520D01*
X191763893Y-70817133D01*
X191783598Y-70831747D01*
X191801777Y-70848223D01*
X191818253Y-70866402D01*
X191832867Y-70886107D01*
X191845480Y-70907151D01*
X191855970Y-70929329D01*
X191864235Y-70952429D01*
X191870196Y-70976227D01*
X191873796Y-71000496D01*
X191875000Y-71025000D01*
X191875000Y-71950000D01*
X191873796Y-71974504D01*
X191870196Y-71998773D01*
X191864235Y-72022571D01*
X191855970Y-72045671D01*
X191845480Y-72067849D01*
X191832867Y-72088893D01*
X191818253Y-72108598D01*
X191801777Y-72126777D01*
X191783598Y-72143253D01*
X191763893Y-72157867D01*
X191742849Y-72170480D01*
X191720671Y-72180970D01*
X191697571Y-72189235D01*
X191673773Y-72195196D01*
X191649504Y-72198796D01*
X191625000Y-72200000D01*
X190375000Y-72200000D01*
X190350496Y-72198796D01*
X190326227Y-72195196D01*
X190302429Y-72189235D01*
X190279329Y-72180970D01*
X190257151Y-72170480D01*
X190236107Y-72157867D01*
X190216402Y-72143253D01*
X190198223Y-72126777D01*
X190181747Y-72108598D01*
X190167133Y-72088893D01*
X190154520Y-72067849D01*
X190144030Y-72045671D01*
X190135765Y-72022571D01*
X190129804Y-71998773D01*
X190126204Y-71974504D01*
X190125000Y-71950000D01*
X190125000Y-71025000D01*
X190126204Y-71000496D01*
X190129804Y-70976227D01*
X190135765Y-70952429D01*
X190144030Y-70929329D01*
X190154520Y-70907151D01*
X190167133Y-70886107D01*
X190181747Y-70866402D01*
X190198223Y-70848223D01*
X190216402Y-70831747D01*
X190236107Y-70817133D01*
X190257151Y-70804520D01*
X190279329Y-70794030D01*
X190302429Y-70785765D01*
X190326227Y-70779804D01*
X190350496Y-70776204D01*
X190375000Y-70775000D01*
X191625000Y-70775000D01*
X191649504Y-70776204D01*
X191649504Y-70776204D01*
G37*
D26*
X191000000Y-71487500D03*
D12*
G36*
X191649504Y-77776204D02*
G01*
X191673773Y-77779804D01*
X191697571Y-77785765D01*
X191720671Y-77794030D01*
X191742849Y-77804520D01*
X191763893Y-77817133D01*
X191783598Y-77831747D01*
X191801777Y-77848223D01*
X191818253Y-77866402D01*
X191832867Y-77886107D01*
X191845480Y-77907151D01*
X191855970Y-77929329D01*
X191864235Y-77952429D01*
X191870196Y-77976227D01*
X191873796Y-78000496D01*
X191875000Y-78025000D01*
X191875000Y-78950000D01*
X191873796Y-78974504D01*
X191870196Y-78998773D01*
X191864235Y-79022571D01*
X191855970Y-79045671D01*
X191845480Y-79067849D01*
X191832867Y-79088893D01*
X191818253Y-79108598D01*
X191801777Y-79126777D01*
X191783598Y-79143253D01*
X191763893Y-79157867D01*
X191742849Y-79170480D01*
X191720671Y-79180970D01*
X191697571Y-79189235D01*
X191673773Y-79195196D01*
X191649504Y-79198796D01*
X191625000Y-79200000D01*
X190375000Y-79200000D01*
X190350496Y-79198796D01*
X190326227Y-79195196D01*
X190302429Y-79189235D01*
X190279329Y-79180970D01*
X190257151Y-79170480D01*
X190236107Y-79157867D01*
X190216402Y-79143253D01*
X190198223Y-79126777D01*
X190181747Y-79108598D01*
X190167133Y-79088893D01*
X190154520Y-79067849D01*
X190144030Y-79045671D01*
X190135765Y-79022571D01*
X190129804Y-78998773D01*
X190126204Y-78974504D01*
X190125000Y-78950000D01*
X190125000Y-78025000D01*
X190126204Y-78000496D01*
X190129804Y-77976227D01*
X190135765Y-77952429D01*
X190144030Y-77929329D01*
X190154520Y-77907151D01*
X190167133Y-77886107D01*
X190181747Y-77866402D01*
X190198223Y-77848223D01*
X190216402Y-77831747D01*
X190236107Y-77817133D01*
X190257151Y-77804520D01*
X190279329Y-77794030D01*
X190302429Y-77785765D01*
X190326227Y-77779804D01*
X190350496Y-77776204D01*
X190375000Y-77775000D01*
X191625000Y-77775000D01*
X191649504Y-77776204D01*
X191649504Y-77776204D01*
G37*
D26*
X191000000Y-78487500D03*
D12*
G36*
X191649504Y-74801204D02*
G01*
X191673773Y-74804804D01*
X191697571Y-74810765D01*
X191720671Y-74819030D01*
X191742849Y-74829520D01*
X191763893Y-74842133D01*
X191783598Y-74856747D01*
X191801777Y-74873223D01*
X191818253Y-74891402D01*
X191832867Y-74911107D01*
X191845480Y-74932151D01*
X191855970Y-74954329D01*
X191864235Y-74977429D01*
X191870196Y-75001227D01*
X191873796Y-75025496D01*
X191875000Y-75050000D01*
X191875000Y-75975000D01*
X191873796Y-75999504D01*
X191870196Y-76023773D01*
X191864235Y-76047571D01*
X191855970Y-76070671D01*
X191845480Y-76092849D01*
X191832867Y-76113893D01*
X191818253Y-76133598D01*
X191801777Y-76151777D01*
X191783598Y-76168253D01*
X191763893Y-76182867D01*
X191742849Y-76195480D01*
X191720671Y-76205970D01*
X191697571Y-76214235D01*
X191673773Y-76220196D01*
X191649504Y-76223796D01*
X191625000Y-76225000D01*
X190375000Y-76225000D01*
X190350496Y-76223796D01*
X190326227Y-76220196D01*
X190302429Y-76214235D01*
X190279329Y-76205970D01*
X190257151Y-76195480D01*
X190236107Y-76182867D01*
X190216402Y-76168253D01*
X190198223Y-76151777D01*
X190181747Y-76133598D01*
X190167133Y-76113893D01*
X190154520Y-76092849D01*
X190144030Y-76070671D01*
X190135765Y-76047571D01*
X190129804Y-76023773D01*
X190126204Y-75999504D01*
X190125000Y-75975000D01*
X190125000Y-75050000D01*
X190126204Y-75025496D01*
X190129804Y-75001227D01*
X190135765Y-74977429D01*
X190144030Y-74954329D01*
X190154520Y-74932151D01*
X190167133Y-74911107D01*
X190181747Y-74891402D01*
X190198223Y-74873223D01*
X190216402Y-74856747D01*
X190236107Y-74842133D01*
X190257151Y-74829520D01*
X190279329Y-74819030D01*
X190302429Y-74810765D01*
X190326227Y-74804804D01*
X190350496Y-74801204D01*
X190375000Y-74800000D01*
X191625000Y-74800000D01*
X191649504Y-74801204D01*
X191649504Y-74801204D01*
G37*
D26*
X191000000Y-75512500D03*
D12*
G36*
X154549505Y-84676204D02*
G01*
X154573773Y-84679804D01*
X154597572Y-84685765D01*
X154620671Y-84694030D01*
X154642850Y-84704520D01*
X154663893Y-84717132D01*
X154683599Y-84731747D01*
X154701777Y-84748223D01*
X154718253Y-84766401D01*
X154732868Y-84786107D01*
X154745480Y-84807150D01*
X154755970Y-84829329D01*
X154764235Y-84852428D01*
X154770196Y-84876227D01*
X154773796Y-84900495D01*
X154775000Y-84924999D01*
X154775000Y-86675001D01*
X154773796Y-86699505D01*
X154770196Y-86723773D01*
X154764235Y-86747572D01*
X154755970Y-86770671D01*
X154745480Y-86792850D01*
X154732868Y-86813893D01*
X154718253Y-86833599D01*
X154701777Y-86851777D01*
X154683599Y-86868253D01*
X154663893Y-86882868D01*
X154642850Y-86895480D01*
X154620671Y-86905970D01*
X154597572Y-86914235D01*
X154573773Y-86920196D01*
X154549505Y-86923796D01*
X154525001Y-86925000D01*
X152474999Y-86925000D01*
X152450495Y-86923796D01*
X152426227Y-86920196D01*
X152402428Y-86914235D01*
X152379329Y-86905970D01*
X152357150Y-86895480D01*
X152336107Y-86882868D01*
X152316401Y-86868253D01*
X152298223Y-86851777D01*
X152281747Y-86833599D01*
X152267132Y-86813893D01*
X152254520Y-86792850D01*
X152244030Y-86770671D01*
X152235765Y-86747572D01*
X152229804Y-86723773D01*
X152226204Y-86699505D01*
X152225000Y-86675001D01*
X152225000Y-84924999D01*
X152226204Y-84900495D01*
X152229804Y-84876227D01*
X152235765Y-84852428D01*
X152244030Y-84829329D01*
X152254520Y-84807150D01*
X152267132Y-84786107D01*
X152281747Y-84766401D01*
X152298223Y-84748223D01*
X152316401Y-84731747D01*
X152336107Y-84717132D01*
X152357150Y-84704520D01*
X152379329Y-84694030D01*
X152402428Y-84685765D01*
X152426227Y-84679804D01*
X152450495Y-84676204D01*
X152474999Y-84675000D01*
X154525001Y-84675000D01*
X154549505Y-84676204D01*
X154549505Y-84676204D01*
G37*
D27*
X153500000Y-85800000D03*
D12*
G36*
X154549505Y-91076204D02*
G01*
X154573773Y-91079804D01*
X154597572Y-91085765D01*
X154620671Y-91094030D01*
X154642850Y-91104520D01*
X154663893Y-91117132D01*
X154683599Y-91131747D01*
X154701777Y-91148223D01*
X154718253Y-91166401D01*
X154732868Y-91186107D01*
X154745480Y-91207150D01*
X154755970Y-91229329D01*
X154764235Y-91252428D01*
X154770196Y-91276227D01*
X154773796Y-91300495D01*
X154775000Y-91324999D01*
X154775000Y-93075001D01*
X154773796Y-93099505D01*
X154770196Y-93123773D01*
X154764235Y-93147572D01*
X154755970Y-93170671D01*
X154745480Y-93192850D01*
X154732868Y-93213893D01*
X154718253Y-93233599D01*
X154701777Y-93251777D01*
X154683599Y-93268253D01*
X154663893Y-93282868D01*
X154642850Y-93295480D01*
X154620671Y-93305970D01*
X154597572Y-93314235D01*
X154573773Y-93320196D01*
X154549505Y-93323796D01*
X154525001Y-93325000D01*
X152474999Y-93325000D01*
X152450495Y-93323796D01*
X152426227Y-93320196D01*
X152402428Y-93314235D01*
X152379329Y-93305970D01*
X152357150Y-93295480D01*
X152336107Y-93282868D01*
X152316401Y-93268253D01*
X152298223Y-93251777D01*
X152281747Y-93233599D01*
X152267132Y-93213893D01*
X152254520Y-93192850D01*
X152244030Y-93170671D01*
X152235765Y-93147572D01*
X152229804Y-93123773D01*
X152226204Y-93099505D01*
X152225000Y-93075001D01*
X152225000Y-91324999D01*
X152226204Y-91300495D01*
X152229804Y-91276227D01*
X152235765Y-91252428D01*
X152244030Y-91229329D01*
X152254520Y-91207150D01*
X152267132Y-91186107D01*
X152281747Y-91166401D01*
X152298223Y-91148223D01*
X152316401Y-91131747D01*
X152336107Y-91117132D01*
X152357150Y-91104520D01*
X152379329Y-91094030D01*
X152402428Y-91085765D01*
X152426227Y-91079804D01*
X152450495Y-91076204D01*
X152474999Y-91075000D01*
X154525001Y-91075000D01*
X154549505Y-91076204D01*
X154549505Y-91076204D01*
G37*
D27*
X153500000Y-92200000D03*
D12*
G36*
X153999504Y-95676204D02*
G01*
X154023773Y-95679804D01*
X154047571Y-95685765D01*
X154070671Y-95694030D01*
X154092849Y-95704520D01*
X154113893Y-95717133D01*
X154133598Y-95731747D01*
X154151777Y-95748223D01*
X154168253Y-95766402D01*
X154182867Y-95786107D01*
X154195480Y-95807151D01*
X154205970Y-95829329D01*
X154214235Y-95852429D01*
X154220196Y-95876227D01*
X154223796Y-95900496D01*
X154225000Y-95925000D01*
X154225000Y-98075000D01*
X154223796Y-98099504D01*
X154220196Y-98123773D01*
X154214235Y-98147571D01*
X154205970Y-98170671D01*
X154195480Y-98192849D01*
X154182867Y-98213893D01*
X154168253Y-98233598D01*
X154151777Y-98251777D01*
X154133598Y-98268253D01*
X154113893Y-98282867D01*
X154092849Y-98295480D01*
X154070671Y-98305970D01*
X154047571Y-98314235D01*
X154023773Y-98320196D01*
X153999504Y-98323796D01*
X153975000Y-98325000D01*
X153050000Y-98325000D01*
X153025496Y-98323796D01*
X153001227Y-98320196D01*
X152977429Y-98314235D01*
X152954329Y-98305970D01*
X152932151Y-98295480D01*
X152911107Y-98282867D01*
X152891402Y-98268253D01*
X152873223Y-98251777D01*
X152856747Y-98233598D01*
X152842133Y-98213893D01*
X152829520Y-98192849D01*
X152819030Y-98170671D01*
X152810765Y-98147571D01*
X152804804Y-98123773D01*
X152801204Y-98099504D01*
X152800000Y-98075000D01*
X152800000Y-95925000D01*
X152801204Y-95900496D01*
X152804804Y-95876227D01*
X152810765Y-95852429D01*
X152819030Y-95829329D01*
X152829520Y-95807151D01*
X152842133Y-95786107D01*
X152856747Y-95766402D01*
X152873223Y-95748223D01*
X152891402Y-95731747D01*
X152911107Y-95717133D01*
X152932151Y-95704520D01*
X152954329Y-95694030D01*
X152977429Y-95685765D01*
X153001227Y-95679804D01*
X153025496Y-95676204D01*
X153050000Y-95675000D01*
X153975000Y-95675000D01*
X153999504Y-95676204D01*
X153999504Y-95676204D01*
G37*
D26*
X153512500Y-97000000D03*
D12*
G36*
X156974504Y-95676204D02*
G01*
X156998773Y-95679804D01*
X157022571Y-95685765D01*
X157045671Y-95694030D01*
X157067849Y-95704520D01*
X157088893Y-95717133D01*
X157108598Y-95731747D01*
X157126777Y-95748223D01*
X157143253Y-95766402D01*
X157157867Y-95786107D01*
X157170480Y-95807151D01*
X157180970Y-95829329D01*
X157189235Y-95852429D01*
X157195196Y-95876227D01*
X157198796Y-95900496D01*
X157200000Y-95925000D01*
X157200000Y-98075000D01*
X157198796Y-98099504D01*
X157195196Y-98123773D01*
X157189235Y-98147571D01*
X157180970Y-98170671D01*
X157170480Y-98192849D01*
X157157867Y-98213893D01*
X157143253Y-98233598D01*
X157126777Y-98251777D01*
X157108598Y-98268253D01*
X157088893Y-98282867D01*
X157067849Y-98295480D01*
X157045671Y-98305970D01*
X157022571Y-98314235D01*
X156998773Y-98320196D01*
X156974504Y-98323796D01*
X156950000Y-98325000D01*
X156025000Y-98325000D01*
X156000496Y-98323796D01*
X155976227Y-98320196D01*
X155952429Y-98314235D01*
X155929329Y-98305970D01*
X155907151Y-98295480D01*
X155886107Y-98282867D01*
X155866402Y-98268253D01*
X155848223Y-98251777D01*
X155831747Y-98233598D01*
X155817133Y-98213893D01*
X155804520Y-98192849D01*
X155794030Y-98170671D01*
X155785765Y-98147571D01*
X155779804Y-98123773D01*
X155776204Y-98099504D01*
X155775000Y-98075000D01*
X155775000Y-95925000D01*
X155776204Y-95900496D01*
X155779804Y-95876227D01*
X155785765Y-95852429D01*
X155794030Y-95829329D01*
X155804520Y-95807151D01*
X155817133Y-95786107D01*
X155831747Y-95766402D01*
X155848223Y-95748223D01*
X155866402Y-95731747D01*
X155886107Y-95717133D01*
X155907151Y-95704520D01*
X155929329Y-95694030D01*
X155952429Y-95685765D01*
X155976227Y-95679804D01*
X156000496Y-95676204D01*
X156025000Y-95675000D01*
X156950000Y-95675000D01*
X156974504Y-95676204D01*
X156974504Y-95676204D01*
G37*
D26*
X156487500Y-97000000D03*
D28*
X161000000Y-100300000D03*
X161000000Y-108700000D03*
D12*
G36*
X169999504Y-66126204D02*
G01*
X170023773Y-66129804D01*
X170047571Y-66135765D01*
X170070671Y-66144030D01*
X170092849Y-66154520D01*
X170113893Y-66167133D01*
X170133598Y-66181747D01*
X170151777Y-66198223D01*
X170168253Y-66216402D01*
X170182867Y-66236107D01*
X170195480Y-66257151D01*
X170205970Y-66279329D01*
X170214235Y-66302429D01*
X170220196Y-66326227D01*
X170223796Y-66350496D01*
X170225000Y-66375000D01*
X170225000Y-67625000D01*
X170223796Y-67649504D01*
X170220196Y-67673773D01*
X170214235Y-67697571D01*
X170205970Y-67720671D01*
X170195480Y-67742849D01*
X170182867Y-67763893D01*
X170168253Y-67783598D01*
X170151777Y-67801777D01*
X170133598Y-67818253D01*
X170113893Y-67832867D01*
X170092849Y-67845480D01*
X170070671Y-67855970D01*
X170047571Y-67864235D01*
X170023773Y-67870196D01*
X169999504Y-67873796D01*
X169975000Y-67875000D01*
X169050000Y-67875000D01*
X169025496Y-67873796D01*
X169001227Y-67870196D01*
X168977429Y-67864235D01*
X168954329Y-67855970D01*
X168932151Y-67845480D01*
X168911107Y-67832867D01*
X168891402Y-67818253D01*
X168873223Y-67801777D01*
X168856747Y-67783598D01*
X168842133Y-67763893D01*
X168829520Y-67742849D01*
X168819030Y-67720671D01*
X168810765Y-67697571D01*
X168804804Y-67673773D01*
X168801204Y-67649504D01*
X168800000Y-67625000D01*
X168800000Y-66375000D01*
X168801204Y-66350496D01*
X168804804Y-66326227D01*
X168810765Y-66302429D01*
X168819030Y-66279329D01*
X168829520Y-66257151D01*
X168842133Y-66236107D01*
X168856747Y-66216402D01*
X168873223Y-66198223D01*
X168891402Y-66181747D01*
X168911107Y-66167133D01*
X168932151Y-66154520D01*
X168954329Y-66144030D01*
X168977429Y-66135765D01*
X169001227Y-66129804D01*
X169025496Y-66126204D01*
X169050000Y-66125000D01*
X169975000Y-66125000D01*
X169999504Y-66126204D01*
X169999504Y-66126204D01*
G37*
D26*
X169512500Y-67000000D03*
D12*
G36*
X172974504Y-66126204D02*
G01*
X172998773Y-66129804D01*
X173022571Y-66135765D01*
X173045671Y-66144030D01*
X173067849Y-66154520D01*
X173088893Y-66167133D01*
X173108598Y-66181747D01*
X173126777Y-66198223D01*
X173143253Y-66216402D01*
X173157867Y-66236107D01*
X173170480Y-66257151D01*
X173180970Y-66279329D01*
X173189235Y-66302429D01*
X173195196Y-66326227D01*
X173198796Y-66350496D01*
X173200000Y-66375000D01*
X173200000Y-67625000D01*
X173198796Y-67649504D01*
X173195196Y-67673773D01*
X173189235Y-67697571D01*
X173180970Y-67720671D01*
X173170480Y-67742849D01*
X173157867Y-67763893D01*
X173143253Y-67783598D01*
X173126777Y-67801777D01*
X173108598Y-67818253D01*
X173088893Y-67832867D01*
X173067849Y-67845480D01*
X173045671Y-67855970D01*
X173022571Y-67864235D01*
X172998773Y-67870196D01*
X172974504Y-67873796D01*
X172950000Y-67875000D01*
X172025000Y-67875000D01*
X172000496Y-67873796D01*
X171976227Y-67870196D01*
X171952429Y-67864235D01*
X171929329Y-67855970D01*
X171907151Y-67845480D01*
X171886107Y-67832867D01*
X171866402Y-67818253D01*
X171848223Y-67801777D01*
X171831747Y-67783598D01*
X171817133Y-67763893D01*
X171804520Y-67742849D01*
X171794030Y-67720671D01*
X171785765Y-67697571D01*
X171779804Y-67673773D01*
X171776204Y-67649504D01*
X171775000Y-67625000D01*
X171775000Y-66375000D01*
X171776204Y-66350496D01*
X171779804Y-66326227D01*
X171785765Y-66302429D01*
X171794030Y-66279329D01*
X171804520Y-66257151D01*
X171817133Y-66236107D01*
X171831747Y-66216402D01*
X171848223Y-66198223D01*
X171866402Y-66181747D01*
X171886107Y-66167133D01*
X171907151Y-66154520D01*
X171929329Y-66144030D01*
X171952429Y-66135765D01*
X171976227Y-66129804D01*
X172000496Y-66126204D01*
X172025000Y-66125000D01*
X172950000Y-66125000D01*
X172974504Y-66126204D01*
X172974504Y-66126204D01*
G37*
D26*
X172487500Y-67000000D03*
D12*
G36*
X165374505Y-60626204D02*
G01*
X165398773Y-60629804D01*
X165422572Y-60635765D01*
X165445671Y-60644030D01*
X165467850Y-60654520D01*
X165488893Y-60667132D01*
X165508599Y-60681747D01*
X165526777Y-60698223D01*
X165543253Y-60716401D01*
X165557868Y-60736107D01*
X165570480Y-60757150D01*
X165580970Y-60779329D01*
X165589235Y-60802428D01*
X165595196Y-60826227D01*
X165598796Y-60850495D01*
X165600000Y-60874999D01*
X165600000Y-62125001D01*
X165598796Y-62149505D01*
X165595196Y-62173773D01*
X165589235Y-62197572D01*
X165580970Y-62220671D01*
X165570480Y-62242850D01*
X165557868Y-62263893D01*
X165543253Y-62283599D01*
X165526777Y-62301777D01*
X165508599Y-62318253D01*
X165488893Y-62332868D01*
X165467850Y-62345480D01*
X165445671Y-62355970D01*
X165422572Y-62364235D01*
X165398773Y-62370196D01*
X165374505Y-62373796D01*
X165350001Y-62375000D01*
X164649999Y-62375000D01*
X164625495Y-62373796D01*
X164601227Y-62370196D01*
X164577428Y-62364235D01*
X164554329Y-62355970D01*
X164532150Y-62345480D01*
X164511107Y-62332868D01*
X164491401Y-62318253D01*
X164473223Y-62301777D01*
X164456747Y-62283599D01*
X164442132Y-62263893D01*
X164429520Y-62242850D01*
X164419030Y-62220671D01*
X164410765Y-62197572D01*
X164404804Y-62173773D01*
X164401204Y-62149505D01*
X164400000Y-62125001D01*
X164400000Y-60874999D01*
X164401204Y-60850495D01*
X164404804Y-60826227D01*
X164410765Y-60802428D01*
X164419030Y-60779329D01*
X164429520Y-60757150D01*
X164442132Y-60736107D01*
X164456747Y-60716401D01*
X164473223Y-60698223D01*
X164491401Y-60681747D01*
X164511107Y-60667132D01*
X164532150Y-60654520D01*
X164554329Y-60644030D01*
X164577428Y-60635765D01*
X164601227Y-60629804D01*
X164625495Y-60626204D01*
X164649999Y-60625000D01*
X165350001Y-60625000D01*
X165374505Y-60626204D01*
X165374505Y-60626204D01*
G37*
D13*
X165000000Y-61500000D03*
D11*
X163000000Y-61500000D03*
X161000000Y-61500000D03*
X159000000Y-61500000D03*
D12*
G36*
X180149504Y-87301204D02*
G01*
X180173773Y-87304804D01*
X180197571Y-87310765D01*
X180220671Y-87319030D01*
X180242849Y-87329520D01*
X180263893Y-87342133D01*
X180283598Y-87356747D01*
X180301777Y-87373223D01*
X180318253Y-87391402D01*
X180332867Y-87411107D01*
X180345480Y-87432151D01*
X180355970Y-87454329D01*
X180364235Y-87477429D01*
X180370196Y-87501227D01*
X180373796Y-87525496D01*
X180375000Y-87550000D01*
X180375000Y-88475000D01*
X180373796Y-88499504D01*
X180370196Y-88523773D01*
X180364235Y-88547571D01*
X180355970Y-88570671D01*
X180345480Y-88592849D01*
X180332867Y-88613893D01*
X180318253Y-88633598D01*
X180301777Y-88651777D01*
X180283598Y-88668253D01*
X180263893Y-88682867D01*
X180242849Y-88695480D01*
X180220671Y-88705970D01*
X180197571Y-88714235D01*
X180173773Y-88720196D01*
X180149504Y-88723796D01*
X180125000Y-88725000D01*
X178875000Y-88725000D01*
X178850496Y-88723796D01*
X178826227Y-88720196D01*
X178802429Y-88714235D01*
X178779329Y-88705970D01*
X178757151Y-88695480D01*
X178736107Y-88682867D01*
X178716402Y-88668253D01*
X178698223Y-88651777D01*
X178681747Y-88633598D01*
X178667133Y-88613893D01*
X178654520Y-88592849D01*
X178644030Y-88570671D01*
X178635765Y-88547571D01*
X178629804Y-88523773D01*
X178626204Y-88499504D01*
X178625000Y-88475000D01*
X178625000Y-87550000D01*
X178626204Y-87525496D01*
X178629804Y-87501227D01*
X178635765Y-87477429D01*
X178644030Y-87454329D01*
X178654520Y-87432151D01*
X178667133Y-87411107D01*
X178681747Y-87391402D01*
X178698223Y-87373223D01*
X178716402Y-87356747D01*
X178736107Y-87342133D01*
X178757151Y-87329520D01*
X178779329Y-87319030D01*
X178802429Y-87310765D01*
X178826227Y-87304804D01*
X178850496Y-87301204D01*
X178875000Y-87300000D01*
X180125000Y-87300000D01*
X180149504Y-87301204D01*
X180149504Y-87301204D01*
G37*
D26*
X179500000Y-88012500D03*
D12*
G36*
X180149504Y-90276204D02*
G01*
X180173773Y-90279804D01*
X180197571Y-90285765D01*
X180220671Y-90294030D01*
X180242849Y-90304520D01*
X180263893Y-90317133D01*
X180283598Y-90331747D01*
X180301777Y-90348223D01*
X180318253Y-90366402D01*
X180332867Y-90386107D01*
X180345480Y-90407151D01*
X180355970Y-90429329D01*
X180364235Y-90452429D01*
X180370196Y-90476227D01*
X180373796Y-90500496D01*
X180375000Y-90525000D01*
X180375000Y-91450000D01*
X180373796Y-91474504D01*
X180370196Y-91498773D01*
X180364235Y-91522571D01*
X180355970Y-91545671D01*
X180345480Y-91567849D01*
X180332867Y-91588893D01*
X180318253Y-91608598D01*
X180301777Y-91626777D01*
X180283598Y-91643253D01*
X180263893Y-91657867D01*
X180242849Y-91670480D01*
X180220671Y-91680970D01*
X180197571Y-91689235D01*
X180173773Y-91695196D01*
X180149504Y-91698796D01*
X180125000Y-91700000D01*
X178875000Y-91700000D01*
X178850496Y-91698796D01*
X178826227Y-91695196D01*
X178802429Y-91689235D01*
X178779329Y-91680970D01*
X178757151Y-91670480D01*
X178736107Y-91657867D01*
X178716402Y-91643253D01*
X178698223Y-91626777D01*
X178681747Y-91608598D01*
X178667133Y-91588893D01*
X178654520Y-91567849D01*
X178644030Y-91545671D01*
X178635765Y-91522571D01*
X178629804Y-91498773D01*
X178626204Y-91474504D01*
X178625000Y-91450000D01*
X178625000Y-90525000D01*
X178626204Y-90500496D01*
X178629804Y-90476227D01*
X178635765Y-90452429D01*
X178644030Y-90429329D01*
X178654520Y-90407151D01*
X178667133Y-90386107D01*
X178681747Y-90366402D01*
X178698223Y-90348223D01*
X178716402Y-90331747D01*
X178736107Y-90317133D01*
X178757151Y-90304520D01*
X178779329Y-90294030D01*
X178802429Y-90285765D01*
X178826227Y-90279804D01*
X178850496Y-90276204D01*
X178875000Y-90275000D01*
X180125000Y-90275000D01*
X180149504Y-90276204D01*
X180149504Y-90276204D01*
G37*
D26*
X179500000Y-90987500D03*
D12*
G36*
X176149504Y-93276204D02*
G01*
X176173773Y-93279804D01*
X176197571Y-93285765D01*
X176220671Y-93294030D01*
X176242849Y-93304520D01*
X176263893Y-93317133D01*
X176283598Y-93331747D01*
X176301777Y-93348223D01*
X176318253Y-93366402D01*
X176332867Y-93386107D01*
X176345480Y-93407151D01*
X176355970Y-93429329D01*
X176364235Y-93452429D01*
X176370196Y-93476227D01*
X176373796Y-93500496D01*
X176375000Y-93525000D01*
X176375000Y-94450000D01*
X176373796Y-94474504D01*
X176370196Y-94498773D01*
X176364235Y-94522571D01*
X176355970Y-94545671D01*
X176345480Y-94567849D01*
X176332867Y-94588893D01*
X176318253Y-94608598D01*
X176301777Y-94626777D01*
X176283598Y-94643253D01*
X176263893Y-94657867D01*
X176242849Y-94670480D01*
X176220671Y-94680970D01*
X176197571Y-94689235D01*
X176173773Y-94695196D01*
X176149504Y-94698796D01*
X176125000Y-94700000D01*
X174875000Y-94700000D01*
X174850496Y-94698796D01*
X174826227Y-94695196D01*
X174802429Y-94689235D01*
X174779329Y-94680970D01*
X174757151Y-94670480D01*
X174736107Y-94657867D01*
X174716402Y-94643253D01*
X174698223Y-94626777D01*
X174681747Y-94608598D01*
X174667133Y-94588893D01*
X174654520Y-94567849D01*
X174644030Y-94545671D01*
X174635765Y-94522571D01*
X174629804Y-94498773D01*
X174626204Y-94474504D01*
X174625000Y-94450000D01*
X174625000Y-93525000D01*
X174626204Y-93500496D01*
X174629804Y-93476227D01*
X174635765Y-93452429D01*
X174644030Y-93429329D01*
X174654520Y-93407151D01*
X174667133Y-93386107D01*
X174681747Y-93366402D01*
X174698223Y-93348223D01*
X174716402Y-93331747D01*
X174736107Y-93317133D01*
X174757151Y-93304520D01*
X174779329Y-93294030D01*
X174802429Y-93285765D01*
X174826227Y-93279804D01*
X174850496Y-93276204D01*
X174875000Y-93275000D01*
X176125000Y-93275000D01*
X176149504Y-93276204D01*
X176149504Y-93276204D01*
G37*
D26*
X175500000Y-93987500D03*
D12*
G36*
X176149504Y-90301204D02*
G01*
X176173773Y-90304804D01*
X176197571Y-90310765D01*
X176220671Y-90319030D01*
X176242849Y-90329520D01*
X176263893Y-90342133D01*
X176283598Y-90356747D01*
X176301777Y-90373223D01*
X176318253Y-90391402D01*
X176332867Y-90411107D01*
X176345480Y-90432151D01*
X176355970Y-90454329D01*
X176364235Y-90477429D01*
X176370196Y-90501227D01*
X176373796Y-90525496D01*
X176375000Y-90550000D01*
X176375000Y-91475000D01*
X176373796Y-91499504D01*
X176370196Y-91523773D01*
X176364235Y-91547571D01*
X176355970Y-91570671D01*
X176345480Y-91592849D01*
X176332867Y-91613893D01*
X176318253Y-91633598D01*
X176301777Y-91651777D01*
X176283598Y-91668253D01*
X176263893Y-91682867D01*
X176242849Y-91695480D01*
X176220671Y-91705970D01*
X176197571Y-91714235D01*
X176173773Y-91720196D01*
X176149504Y-91723796D01*
X176125000Y-91725000D01*
X174875000Y-91725000D01*
X174850496Y-91723796D01*
X174826227Y-91720196D01*
X174802429Y-91714235D01*
X174779329Y-91705970D01*
X174757151Y-91695480D01*
X174736107Y-91682867D01*
X174716402Y-91668253D01*
X174698223Y-91651777D01*
X174681747Y-91633598D01*
X174667133Y-91613893D01*
X174654520Y-91592849D01*
X174644030Y-91570671D01*
X174635765Y-91547571D01*
X174629804Y-91523773D01*
X174626204Y-91499504D01*
X174625000Y-91475000D01*
X174625000Y-90550000D01*
X174626204Y-90525496D01*
X174629804Y-90501227D01*
X174635765Y-90477429D01*
X174644030Y-90454329D01*
X174654520Y-90432151D01*
X174667133Y-90411107D01*
X174681747Y-90391402D01*
X174698223Y-90373223D01*
X174716402Y-90356747D01*
X174736107Y-90342133D01*
X174757151Y-90329520D01*
X174779329Y-90319030D01*
X174802429Y-90310765D01*
X174826227Y-90304804D01*
X174850496Y-90301204D01*
X174875000Y-90300000D01*
X176125000Y-90300000D01*
X176149504Y-90301204D01*
X176149504Y-90301204D01*
G37*
D26*
X175500000Y-91012500D03*
D11*
X175000000Y-115000000D03*
X173000000Y-115000000D03*
D12*
G36*
X171374505Y-114126204D02*
G01*
X171398773Y-114129804D01*
X171422572Y-114135765D01*
X171445671Y-114144030D01*
X171467850Y-114154520D01*
X171488893Y-114167132D01*
X171508599Y-114181747D01*
X171526777Y-114198223D01*
X171543253Y-114216401D01*
X171557868Y-114236107D01*
X171570480Y-114257150D01*
X171580970Y-114279329D01*
X171589235Y-114302428D01*
X171595196Y-114326227D01*
X171598796Y-114350495D01*
X171600000Y-114374999D01*
X171600000Y-115625001D01*
X171598796Y-115649505D01*
X171595196Y-115673773D01*
X171589235Y-115697572D01*
X171580970Y-115720671D01*
X171570480Y-115742850D01*
X171557868Y-115763893D01*
X171543253Y-115783599D01*
X171526777Y-115801777D01*
X171508599Y-115818253D01*
X171488893Y-115832868D01*
X171467850Y-115845480D01*
X171445671Y-115855970D01*
X171422572Y-115864235D01*
X171398773Y-115870196D01*
X171374505Y-115873796D01*
X171350001Y-115875000D01*
X170649999Y-115875000D01*
X170625495Y-115873796D01*
X170601227Y-115870196D01*
X170577428Y-115864235D01*
X170554329Y-115855970D01*
X170532150Y-115845480D01*
X170511107Y-115832868D01*
X170491401Y-115818253D01*
X170473223Y-115801777D01*
X170456747Y-115783599D01*
X170442132Y-115763893D01*
X170429520Y-115742850D01*
X170419030Y-115720671D01*
X170410765Y-115697572D01*
X170404804Y-115673773D01*
X170401204Y-115649505D01*
X170400000Y-115625001D01*
X170400000Y-114374999D01*
X170401204Y-114350495D01*
X170404804Y-114326227D01*
X170410765Y-114302428D01*
X170419030Y-114279329D01*
X170429520Y-114257150D01*
X170442132Y-114236107D01*
X170456747Y-114216401D01*
X170473223Y-114198223D01*
X170491401Y-114181747D01*
X170511107Y-114167132D01*
X170532150Y-114154520D01*
X170554329Y-114144030D01*
X170577428Y-114135765D01*
X170601227Y-114129804D01*
X170625495Y-114126204D01*
X170649999Y-114125000D01*
X171350001Y-114125000D01*
X171374505Y-114126204D01*
X171374505Y-114126204D01*
G37*
D13*
X171000000Y-115000000D03*
D12*
G36*
X185374505Y-60626204D02*
G01*
X185398773Y-60629804D01*
X185422572Y-60635765D01*
X185445671Y-60644030D01*
X185467850Y-60654520D01*
X185488893Y-60667132D01*
X185508599Y-60681747D01*
X185526777Y-60698223D01*
X185543253Y-60716401D01*
X185557868Y-60736107D01*
X185570480Y-60757150D01*
X185580970Y-60779329D01*
X185589235Y-60802428D01*
X185595196Y-60826227D01*
X185598796Y-60850495D01*
X185600000Y-60874999D01*
X185600000Y-62125001D01*
X185598796Y-62149505D01*
X185595196Y-62173773D01*
X185589235Y-62197572D01*
X185580970Y-62220671D01*
X185570480Y-62242850D01*
X185557868Y-62263893D01*
X185543253Y-62283599D01*
X185526777Y-62301777D01*
X185508599Y-62318253D01*
X185488893Y-62332868D01*
X185467850Y-62345480D01*
X185445671Y-62355970D01*
X185422572Y-62364235D01*
X185398773Y-62370196D01*
X185374505Y-62373796D01*
X185350001Y-62375000D01*
X184649999Y-62375000D01*
X184625495Y-62373796D01*
X184601227Y-62370196D01*
X184577428Y-62364235D01*
X184554329Y-62355970D01*
X184532150Y-62345480D01*
X184511107Y-62332868D01*
X184491401Y-62318253D01*
X184473223Y-62301777D01*
X184456747Y-62283599D01*
X184442132Y-62263893D01*
X184429520Y-62242850D01*
X184419030Y-62220671D01*
X184410765Y-62197572D01*
X184404804Y-62173773D01*
X184401204Y-62149505D01*
X184400000Y-62125001D01*
X184400000Y-60874999D01*
X184401204Y-60850495D01*
X184404804Y-60826227D01*
X184410765Y-60802428D01*
X184419030Y-60779329D01*
X184429520Y-60757150D01*
X184442132Y-60736107D01*
X184456747Y-60716401D01*
X184473223Y-60698223D01*
X184491401Y-60681747D01*
X184511107Y-60667132D01*
X184532150Y-60654520D01*
X184554329Y-60644030D01*
X184577428Y-60635765D01*
X184601227Y-60629804D01*
X184625495Y-60626204D01*
X184649999Y-60625000D01*
X185350001Y-60625000D01*
X185374505Y-60626204D01*
X185374505Y-60626204D01*
G37*
D13*
X185000000Y-61500000D03*
D11*
X183000000Y-61500000D03*
X181000000Y-61500000D03*
D12*
G36*
X181374505Y-114126204D02*
G01*
X181398773Y-114129804D01*
X181422572Y-114135765D01*
X181445671Y-114144030D01*
X181467850Y-114154520D01*
X181488893Y-114167132D01*
X181508599Y-114181747D01*
X181526777Y-114198223D01*
X181543253Y-114216401D01*
X181557868Y-114236107D01*
X181570480Y-114257150D01*
X181580970Y-114279329D01*
X181589235Y-114302428D01*
X181595196Y-114326227D01*
X181598796Y-114350495D01*
X181600000Y-114374999D01*
X181600000Y-115625001D01*
X181598796Y-115649505D01*
X181595196Y-115673773D01*
X181589235Y-115697572D01*
X181580970Y-115720671D01*
X181570480Y-115742850D01*
X181557868Y-115763893D01*
X181543253Y-115783599D01*
X181526777Y-115801777D01*
X181508599Y-115818253D01*
X181488893Y-115832868D01*
X181467850Y-115845480D01*
X181445671Y-115855970D01*
X181422572Y-115864235D01*
X181398773Y-115870196D01*
X181374505Y-115873796D01*
X181350001Y-115875000D01*
X180649999Y-115875000D01*
X180625495Y-115873796D01*
X180601227Y-115870196D01*
X180577428Y-115864235D01*
X180554329Y-115855970D01*
X180532150Y-115845480D01*
X180511107Y-115832868D01*
X180491401Y-115818253D01*
X180473223Y-115801777D01*
X180456747Y-115783599D01*
X180442132Y-115763893D01*
X180429520Y-115742850D01*
X180419030Y-115720671D01*
X180410765Y-115697572D01*
X180404804Y-115673773D01*
X180401204Y-115649505D01*
X180400000Y-115625001D01*
X180400000Y-114374999D01*
X180401204Y-114350495D01*
X180404804Y-114326227D01*
X180410765Y-114302428D01*
X180419030Y-114279329D01*
X180429520Y-114257150D01*
X180442132Y-114236107D01*
X180456747Y-114216401D01*
X180473223Y-114198223D01*
X180491401Y-114181747D01*
X180511107Y-114167132D01*
X180532150Y-114154520D01*
X180554329Y-114144030D01*
X180577428Y-114135765D01*
X180601227Y-114129804D01*
X180625495Y-114126204D01*
X180649999Y-114125000D01*
X181350001Y-114125000D01*
X181374505Y-114126204D01*
X181374505Y-114126204D01*
G37*
D13*
X181000000Y-115000000D03*
D11*
X183000000Y-115000000D03*
X185000000Y-115000000D03*
D12*
G36*
X160374505Y-114126204D02*
G01*
X160398773Y-114129804D01*
X160422572Y-114135765D01*
X160445671Y-114144030D01*
X160467850Y-114154520D01*
X160488893Y-114167132D01*
X160508599Y-114181747D01*
X160526777Y-114198223D01*
X160543253Y-114216401D01*
X160557868Y-114236107D01*
X160570480Y-114257150D01*
X160580970Y-114279329D01*
X160589235Y-114302428D01*
X160595196Y-114326227D01*
X160598796Y-114350495D01*
X160600000Y-114374999D01*
X160600000Y-115625001D01*
X160598796Y-115649505D01*
X160595196Y-115673773D01*
X160589235Y-115697572D01*
X160580970Y-115720671D01*
X160570480Y-115742850D01*
X160557868Y-115763893D01*
X160543253Y-115783599D01*
X160526777Y-115801777D01*
X160508599Y-115818253D01*
X160488893Y-115832868D01*
X160467850Y-115845480D01*
X160445671Y-115855970D01*
X160422572Y-115864235D01*
X160398773Y-115870196D01*
X160374505Y-115873796D01*
X160350001Y-115875000D01*
X159649999Y-115875000D01*
X159625495Y-115873796D01*
X159601227Y-115870196D01*
X159577428Y-115864235D01*
X159554329Y-115855970D01*
X159532150Y-115845480D01*
X159511107Y-115832868D01*
X159491401Y-115818253D01*
X159473223Y-115801777D01*
X159456747Y-115783599D01*
X159442132Y-115763893D01*
X159429520Y-115742850D01*
X159419030Y-115720671D01*
X159410765Y-115697572D01*
X159404804Y-115673773D01*
X159401204Y-115649505D01*
X159400000Y-115625001D01*
X159400000Y-114374999D01*
X159401204Y-114350495D01*
X159404804Y-114326227D01*
X159410765Y-114302428D01*
X159419030Y-114279329D01*
X159429520Y-114257150D01*
X159442132Y-114236107D01*
X159456747Y-114216401D01*
X159473223Y-114198223D01*
X159491401Y-114181747D01*
X159511107Y-114167132D01*
X159532150Y-114154520D01*
X159554329Y-114144030D01*
X159577428Y-114135765D01*
X159601227Y-114129804D01*
X159625495Y-114126204D01*
X159649999Y-114125000D01*
X160350001Y-114125000D01*
X160374505Y-114126204D01*
X160374505Y-114126204D01*
G37*
D13*
X160000000Y-115000000D03*
D11*
X162000000Y-115000000D03*
X164000000Y-115000000D03*
X166000000Y-115000000D03*
D29*
X161000000Y-107000000D03*
D30*
X161000000Y-102000000D03*
D31*
X187500000Y-78500000D03*
D32*
X187500000Y-70880000D03*
D33*
X186000000Y-98000000D03*
X184000000Y-108000000D03*
X185000000Y-82000000D03*
X177000000Y-95000000D03*
X190000000Y-84500000D03*
X159500000Y-93000000D03*
X165500000Y-95600000D03*
X153500000Y-94500000D03*
X165500000Y-93000000D03*
X189000000Y-107000000D03*
X167000000Y-108500000D03*
X159600000Y-95600000D03*
X155000000Y-80000000D03*
X180000000Y-85500000D03*
X162000000Y-90500000D03*
X190000000Y-102000000D03*
X162000000Y-64000000D03*
X168000000Y-69000000D03*
X175000000Y-72000000D03*
X177500000Y-90000000D03*
X166000000Y-78500000D03*
X172000000Y-86500000D03*
X166500000Y-71000000D03*
X173000000Y-98000000D03*
X175000000Y-89000000D03*
X170500000Y-84000000D03*
X177000000Y-101000000D03*
X181000000Y-95500000D03*
X184000000Y-98000000D03*
X181000000Y-101000000D03*
X182945150Y-98125000D03*
X181500000Y-94000000D03*
X167000000Y-91000000D03*
X173000000Y-91000000D03*
D34*
X157003500Y-93905000D02*
X156000000Y-92901500D01*
X157825000Y-93905000D02*
X157003500Y-93905000D01*
X156000000Y-88300000D02*
X153500000Y-85800000D01*
X156000000Y-92901500D02*
X156000000Y-88300000D01*
D35*
X159425000Y-81125000D02*
X159425000Y-82500000D01*
X155500000Y-78000000D02*
X155500000Y-75000000D01*
X153500000Y-85800000D02*
X153500000Y-80000000D01*
X153500000Y-80000000D02*
X155500000Y-78000000D01*
X156000000Y-78500000D02*
X155500000Y-78000000D01*
X159075000Y-78500000D02*
X156000000Y-78500000D01*
X159925000Y-79350000D02*
X159075000Y-78500000D01*
X159925000Y-82500000D02*
X159925000Y-79350000D01*
D34*
X182136410Y-98500000D02*
X182636410Y-99000000D01*
X181150000Y-98500000D02*
X182136410Y-98500000D01*
X182636410Y-99000000D02*
X185000000Y-99000000D01*
X185000000Y-99000000D02*
X186000000Y-98000000D01*
X185000000Y-84512500D02*
X185000000Y-82000000D01*
X176850000Y-95150000D02*
X177000000Y-95000000D01*
X176850000Y-97000000D02*
X176850000Y-95150000D01*
X190012500Y-84487500D02*
X190000000Y-84500000D01*
D35*
X167989999Y-89335001D02*
X167989999Y-93010001D01*
X168000000Y-89325000D02*
X167989999Y-89335001D01*
X167989999Y-93010001D02*
X165500000Y-95500000D01*
X165500000Y-95600000D02*
X165500000Y-95500000D01*
D36*
X157825000Y-92635000D02*
X159135000Y-92635000D01*
X159135000Y-92635000D02*
X159500000Y-93000000D01*
D35*
X153500000Y-92200000D02*
X153500000Y-94500000D01*
D34*
X173000000Y-67512500D02*
X172487500Y-67000000D01*
X190012500Y-84500000D02*
X190000000Y-84500000D01*
X175987500Y-93987500D02*
X177000000Y-95000000D01*
X175500000Y-93987500D02*
X175987500Y-93987500D01*
D36*
X164175000Y-92635000D02*
X165365000Y-92635000D01*
X165365000Y-92635000D02*
X165500000Y-92770000D01*
X165500000Y-92770000D02*
X165500000Y-93000000D01*
D35*
X188500000Y-109000000D02*
X188500000Y-107500000D01*
X188500000Y-107500000D02*
X189000000Y-107000000D01*
D36*
X184000000Y-104487500D02*
X183500000Y-103987500D01*
X184000000Y-108000000D02*
X184000000Y-104487500D01*
D35*
X161000000Y-108700000D02*
X166800000Y-108700000D01*
X166800000Y-108700000D02*
X167000000Y-108500000D01*
D36*
X156487500Y-97000000D02*
X158200000Y-97000000D01*
X158200000Y-97000000D02*
X159600000Y-95600000D01*
D34*
X175500000Y-97500000D02*
X176850000Y-97500000D01*
X176850000Y-97000000D02*
X174500000Y-97000000D01*
X174500000Y-97500000D02*
X175500000Y-97500000D01*
X174500000Y-97000000D02*
X174500000Y-97500000D01*
D36*
X157000000Y-83500000D02*
X157000000Y-82000000D01*
X157000000Y-82000000D02*
X155000000Y-80000000D01*
X172487500Y-67000000D02*
X172487500Y-65487500D01*
X171000000Y-64000000D02*
X171000000Y-61500000D01*
X172487500Y-65487500D02*
X171000000Y-64000000D01*
X190000000Y-84500000D02*
X190000000Y-82000000D01*
X191000000Y-81000000D02*
X191000000Y-78487500D01*
X190000000Y-82000000D02*
X191000000Y-81000000D01*
D34*
X182000000Y-84512500D02*
X180987500Y-84512500D01*
X180987500Y-84512500D02*
X180299999Y-85200001D01*
X180299999Y-85200001D02*
X180000000Y-85500000D01*
D36*
X162865000Y-91365000D02*
X164175000Y-91365000D01*
X162000000Y-90500000D02*
X162000000Y-90500000D01*
X161200000Y-102100000D02*
X161500000Y-101800000D01*
X162500000Y-95500000D02*
X162500000Y-91000000D01*
X162000000Y-90500000D02*
X162500000Y-91000000D01*
X162500000Y-91000000D02*
X162865000Y-91365000D01*
D34*
X179500000Y-86000000D02*
X180000000Y-85500000D01*
X179500000Y-88012500D02*
X179500000Y-86000000D01*
D36*
X162500000Y-96200000D02*
X162500000Y-95500000D01*
X161000000Y-97700000D02*
X162500000Y-96200000D01*
X161000000Y-100300000D02*
X161000000Y-97700000D01*
D35*
X157150000Y-100300000D02*
X161000000Y-100300000D01*
X153000000Y-102100000D02*
X155350000Y-102100000D01*
X155350000Y-102100000D02*
X157150000Y-100300000D01*
X153000000Y-97512500D02*
X153512500Y-97000000D01*
X153000000Y-102100000D02*
X153000000Y-97512500D01*
D36*
X167450000Y-63950000D02*
X165000000Y-61500000D01*
X167450000Y-67000000D02*
X167450000Y-63950000D01*
X167450000Y-67000000D02*
X169512500Y-67000000D01*
X169512500Y-67000000D02*
X169512500Y-67487500D01*
X169512500Y-67487500D02*
X168000000Y-69000000D01*
D35*
X166000000Y-78500000D02*
X169000000Y-81500000D01*
X169000000Y-81500000D02*
X169500000Y-81500000D01*
X169500000Y-81500000D02*
X172000000Y-84000000D01*
X172000000Y-84000000D02*
X172000000Y-86500000D01*
X191050000Y-112000000D02*
X192430000Y-110620000D01*
X188500000Y-112000000D02*
X191050000Y-112000000D01*
D36*
X184487500Y-102000000D02*
X183500000Y-101012500D01*
X190000000Y-102000000D02*
X184487500Y-102000000D01*
X171000000Y-115975000D02*
X171500000Y-116475000D01*
X171000000Y-115000000D02*
X171000000Y-115975000D01*
X179525000Y-116475000D02*
X181000000Y-115000000D01*
X171500000Y-116475000D02*
X179525000Y-116475000D01*
X181000000Y-115000000D02*
X181000000Y-117000000D01*
X181000000Y-117000000D02*
X181500000Y-117500000D01*
X181500000Y-117500000D02*
X186500000Y-117500000D01*
X188500000Y-115500000D02*
X188500000Y-112000000D01*
X186500000Y-117500000D02*
X188500000Y-115500000D01*
D34*
X183500000Y-100925000D02*
X183500000Y-101012500D01*
X181575000Y-99000000D02*
X183500000Y-100925000D01*
X181150000Y-99000000D02*
X181575000Y-99000000D01*
X161950000Y-64050000D02*
X162000000Y-64000000D01*
D36*
X165450000Y-71000000D02*
X164950000Y-70500000D01*
X166500000Y-71000000D02*
X165450000Y-71000000D01*
X185000000Y-64000000D02*
X185000000Y-61500000D01*
X184500000Y-64500000D02*
X185000000Y-64000000D01*
X181500000Y-64500000D02*
X184500000Y-64500000D01*
X175000000Y-72000000D02*
X175000000Y-71000000D01*
X175000000Y-71000000D02*
X181500000Y-64500000D01*
X177500000Y-74500000D02*
X175000000Y-72000000D01*
X177500000Y-90000000D02*
X177500000Y-74500000D01*
D34*
X173500000Y-98500000D02*
X173000000Y-98000000D01*
X176850000Y-98500000D02*
X173500000Y-98500000D01*
X164550000Y-67000000D02*
X164550000Y-65050000D01*
X163000000Y-63500000D02*
X163000000Y-61500000D01*
X164550000Y-65050000D02*
X163000000Y-63500000D01*
X164550000Y-67550000D02*
X164550000Y-67000000D01*
X174000000Y-77000000D02*
X164550000Y-67550000D01*
X174000000Y-87136410D02*
X174000000Y-77000000D01*
X171450010Y-89686400D02*
X174000000Y-87136410D01*
X173000000Y-98000000D02*
X171450010Y-96450010D01*
X171450010Y-96450010D02*
X171450010Y-89686400D01*
X170650000Y-99000000D02*
X169570000Y-97920000D01*
X176850000Y-99000000D02*
X170650000Y-99000000D01*
X171500000Y-78000000D02*
X171363590Y-78000000D01*
X171500000Y-78000000D02*
X167000000Y-78000000D01*
X167000000Y-78000000D02*
X162000000Y-73000000D01*
X162050000Y-72950000D02*
X162050000Y-70500000D01*
X162000000Y-73000000D02*
X162050000Y-72950000D01*
X161000000Y-62625000D02*
X161000000Y-61500000D01*
X160625000Y-63000000D02*
X161000000Y-62625000D01*
X160450000Y-63000000D02*
X160625000Y-63000000D01*
X157500000Y-70500000D02*
X156500000Y-69500000D01*
X162050000Y-70500000D02*
X157500000Y-70500000D01*
X156500000Y-69500000D02*
X156500000Y-67000000D01*
X156500000Y-67000000D02*
X158000000Y-65500000D01*
X158000000Y-65500000D02*
X158000000Y-65450000D01*
X158000000Y-65450000D02*
X160450000Y-63000000D01*
X172625010Y-79125010D02*
X171500000Y-78000000D01*
X172625010Y-87874990D02*
X172625010Y-79125010D01*
X171000000Y-89500000D02*
X172625010Y-87874990D01*
X169570000Y-97920000D02*
X171000000Y-96490000D01*
X171000000Y-96490000D02*
X171000000Y-89500000D01*
X183000000Y-114725000D02*
X186500000Y-111225000D01*
X183000000Y-115000000D02*
X183000000Y-114725000D01*
X186500000Y-111225000D02*
X186500000Y-108000000D01*
X188960000Y-105540000D02*
X192430000Y-105540000D01*
X186500000Y-108000000D02*
X188960000Y-105540000D01*
X174000000Y-73000000D02*
X174000000Y-66000000D01*
X175000000Y-65000000D02*
X175000000Y-61500000D01*
X174000000Y-66000000D02*
X175000000Y-65000000D01*
X175000000Y-89000000D02*
X175000000Y-74000000D01*
X175000000Y-74000000D02*
X174000000Y-73000000D01*
D36*
X164175000Y-90095000D02*
X164175000Y-88425000D01*
X167500000Y-84675000D02*
X168000000Y-84675000D01*
X164175000Y-88000000D02*
X167500000Y-84675000D01*
X164175000Y-88425000D02*
X164175000Y-88000000D01*
X163675000Y-87500000D02*
X162500000Y-87500000D01*
X164175000Y-88000000D02*
X163675000Y-87500000D01*
X164175000Y-85550000D02*
X164175000Y-88000000D01*
X164075000Y-85450000D02*
X164175000Y-85550000D01*
X164075000Y-82500000D02*
X164075000Y-85450000D01*
D34*
X168910000Y-93070000D02*
X169270000Y-92710000D01*
X169270000Y-92710000D02*
X169270000Y-92310000D01*
X169570000Y-92840000D02*
X170500000Y-91910000D01*
X170500000Y-91910000D02*
X170500000Y-84000000D01*
X169100000Y-105600000D02*
X168910000Y-105410000D01*
X157003500Y-91365000D02*
X156500000Y-90861500D01*
X157825000Y-91365000D02*
X157003500Y-91365000D01*
X156500000Y-90861500D02*
X156500000Y-86550000D01*
X158750000Y-87500000D02*
X159500000Y-87500000D01*
X157825000Y-88425000D02*
X158750000Y-87500000D01*
X157825000Y-90095000D02*
X157825000Y-88425000D01*
D36*
X156279290Y-114329290D02*
X153000000Y-111050000D01*
X153000000Y-111050000D02*
X153000000Y-108900000D01*
X159329290Y-114329290D02*
X156279290Y-114329290D01*
X160000000Y-115000000D02*
X159329290Y-114329290D01*
D34*
X181150000Y-97000000D02*
X182000000Y-97000000D01*
X182000000Y-97000000D02*
X182500000Y-96500000D01*
X182500000Y-96500000D02*
X182500000Y-96000000D01*
X182000000Y-95500000D02*
X181000000Y-95500000D01*
X182500000Y-96000000D02*
X182000000Y-95500000D01*
X177000000Y-103000000D02*
X177000000Y-101000000D01*
X176950000Y-103050000D02*
X177000000Y-103000000D01*
X173000000Y-103050000D02*
X176950000Y-103050000D01*
X183500000Y-97500000D02*
X181150000Y-97500000D01*
X184000000Y-98000000D02*
X183500000Y-97500000D01*
X180000000Y-103300000D02*
X180000000Y-103000000D01*
X180000000Y-102000000D02*
X181000000Y-101000000D01*
X180000000Y-103000000D02*
X180000000Y-102000000D01*
X180000000Y-103450000D02*
X180000000Y-103000000D01*
X177400000Y-106050000D02*
X180000000Y-103450000D01*
X177000000Y-106050000D02*
X177400000Y-106050000D01*
X182000000Y-87487500D02*
X185000000Y-87487500D01*
X181150000Y-98000000D02*
X183000000Y-98000000D01*
X182000000Y-88300000D02*
X182000000Y-87487500D01*
X182000000Y-92925002D02*
X182000000Y-88300000D01*
X181500000Y-93425002D02*
X182000000Y-92925002D01*
X181500000Y-94000000D02*
X181500000Y-93425002D01*
X173000000Y-110000000D02*
X173000000Y-105950000D01*
X171000000Y-112000000D02*
X173000000Y-110000000D01*
X162500000Y-112000000D02*
X171000000Y-112000000D01*
X162000000Y-115000000D02*
X162000000Y-112500000D01*
X162000000Y-112500000D02*
X162500000Y-112000000D01*
X179475000Y-91012500D02*
X179500000Y-90987500D01*
X175500000Y-91012500D02*
X179475000Y-91012500D01*
X164996500Y-93905000D02*
X165091500Y-94000000D01*
X164175000Y-93905000D02*
X164996500Y-93905000D01*
X165091500Y-94000000D02*
X166000000Y-94000000D01*
X166000000Y-94000000D02*
X167000000Y-93000000D01*
X167000000Y-93000000D02*
X167000000Y-91000000D01*
X175487500Y-91000000D02*
X175500000Y-91012500D01*
X173000000Y-91000000D02*
X175487500Y-91000000D01*
X164000000Y-115000000D02*
X164000000Y-113500000D01*
X164000000Y-113500000D02*
X165000000Y-112500000D01*
X165000000Y-112500000D02*
X171000000Y-112500000D01*
X171049990Y-112450010D02*
X171549990Y-112450010D01*
X171000000Y-112500000D02*
X171049990Y-112450010D01*
X175050000Y-108950000D02*
X177000000Y-108950000D01*
X171549990Y-112450010D02*
X175050000Y-108950000D01*
X191000000Y-101890000D02*
X192430000Y-100460000D01*
X183863590Y-110000000D02*
X191000000Y-102863590D01*
X176500000Y-110000000D02*
X183863590Y-110000000D01*
X173000000Y-115000000D02*
X173000000Y-113500000D01*
X191000000Y-102863590D02*
X191000000Y-101890000D01*
X173000000Y-113500000D02*
X176500000Y-110000000D01*
X183000000Y-60000000D02*
X183000000Y-61500000D01*
X184000000Y-59000000D02*
X183000000Y-60000000D01*
X185500000Y-59000000D02*
X184000000Y-59000000D01*
X191000000Y-68512500D02*
X191000000Y-66000000D01*
X191000000Y-66000000D02*
X187000000Y-62000000D01*
X187000000Y-62000000D02*
X187000000Y-60500000D01*
X187000000Y-60500000D02*
X185500000Y-59000000D01*
X191000000Y-75512500D02*
X191000000Y-71487500D01*
X189437500Y-75512500D02*
X190025000Y-75512500D01*
X190025000Y-75512500D02*
X191000000Y-75512500D01*
X187500000Y-77450000D02*
X189437500Y-75512500D01*
X187500000Y-78500000D02*
X187500000Y-77450000D01*
X187500000Y-83500000D02*
X187500000Y-78500000D01*
X190500000Y-86500000D02*
X187500000Y-83500000D01*
X191520001Y-97020001D02*
X190500000Y-96000000D01*
X192430000Y-97920000D02*
X191530001Y-97020001D01*
X190500000Y-96000000D02*
X190500000Y-86500000D01*
X191530001Y-97020001D02*
X191520001Y-97020001D01*
M02*
