%TF.GenerationSoftware,KiCad,Pcbnew,5.0.0*%
%TF.CreationDate,2018-10-12T22:56:55+01:00*%
%TF.ProjectId,ESP8266_home_battery_controller,455350383236365F686F6D655F626174,rev?*%
%TF.SameCoordinates,Original*%
%TF.FileFunction,Paste,Top*%
%TF.FilePolarity,Positive*%
%FSLAX46Y46*%
G04 Gerber Fmt 4.6, Leading zero omitted, Abs format (unit mm)*
G04 Created by KiCad (PCBNEW 5.0.0) date Fri Oct 12 22:56:55 2018*
%MOMM*%
%LPD*%
G01*
G04 APERTURE LIST*
%ADD10C,0.150000*%
%ADD11R,5.100000X2.350000*%
%ADD12R,1.100000X0.250000*%
%ADD13R,1.500000X0.450000*%
%ADD14R,1.700000X0.900000*%
%ADD15R,3.500000X3.500000*%
%ADD16R,1.270000X0.970000*%
%ADD17R,0.970000X1.270000*%
%ADD18R,1.143000X0.508000*%
%ADD19R,1.000000X1.600000*%
%ADD20R,1.600000X1.000000*%
%ADD21R,3.000000X2.000000*%
%ADD22R,0.900000X1.700000*%
%ADD23C,0.100000*%
%ADD24C,1.425000*%
G04 APERTURE END LIST*
D10*
X150000000Y-55000000D02*
X195000000Y-55000000D01*
X150000000Y-120000000D02*
X150000000Y-55000000D01*
X195000000Y-120000000D02*
X150000000Y-120000000D01*
X195000000Y-55000000D02*
X195000000Y-120000000D01*
D11*
X156000000Y-88925000D03*
X156000000Y-93075000D03*
D12*
X181150000Y-97000000D03*
X181150000Y-97500000D03*
X181150000Y-98000000D03*
X181150000Y-98500000D03*
X181150000Y-99000000D03*
X176850000Y-99000000D03*
X176850000Y-98500000D03*
X176850000Y-98000000D03*
X176850000Y-97500000D03*
X176850000Y-97000000D03*
D13*
X186950000Y-74725000D03*
X186950000Y-75375000D03*
X186950000Y-76025000D03*
X186950000Y-76675000D03*
X186950000Y-77325000D03*
X186950000Y-77975000D03*
X186950000Y-78625000D03*
X186950000Y-79275000D03*
X181050000Y-79275000D03*
X181050000Y-78625000D03*
X181050000Y-77975000D03*
X181050000Y-77325000D03*
X181050000Y-76675000D03*
X181050000Y-76025000D03*
X181050000Y-75375000D03*
X181050000Y-74725000D03*
D14*
X181000000Y-102924779D03*
X181000000Y-105824779D03*
X188000000Y-96450000D03*
X188000000Y-93550000D03*
D15*
X164000000Y-106800000D03*
X164000000Y-100000000D03*
D16*
X175000000Y-90730000D03*
X175000000Y-92000000D03*
X175000000Y-93270000D03*
X179000000Y-90730000D03*
X179000000Y-92000000D03*
X179000000Y-93270000D03*
D17*
X188730000Y-83000000D03*
X190000000Y-83000000D03*
X191270000Y-83000000D03*
X188730000Y-86000000D03*
X190000000Y-86000000D03*
X191270000Y-86000000D03*
D14*
X176000000Y-70550000D03*
X176000000Y-73450000D03*
D18*
X173175000Y-79095000D03*
X173175000Y-80365000D03*
X173175000Y-81635000D03*
X173175000Y-82905000D03*
X166825000Y-82905000D03*
X166825000Y-81635000D03*
X166825000Y-80365000D03*
X166825000Y-79095000D03*
D19*
X160500000Y-75000000D03*
X157500000Y-75000000D03*
D20*
X164000000Y-74500000D03*
X164000000Y-77500000D03*
D21*
X164000000Y-85675000D03*
X164000000Y-90325000D03*
D22*
X167450000Y-67000000D03*
X164550000Y-67000000D03*
X161450000Y-67000000D03*
X158550000Y-67000000D03*
D14*
X185000000Y-63550000D03*
X185000000Y-66450000D03*
X176000000Y-64550000D03*
X176000000Y-67450000D03*
D20*
X188000000Y-102500000D03*
X188000000Y-99500000D03*
X174000000Y-100500000D03*
X174000000Y-103500000D03*
D23*
G36*
X185649504Y-102801204D02*
X185673773Y-102804804D01*
X185697571Y-102810765D01*
X185720671Y-102819030D01*
X185742849Y-102829520D01*
X185763893Y-102842133D01*
X185783598Y-102856747D01*
X185801777Y-102873223D01*
X185818253Y-102891402D01*
X185832867Y-102911107D01*
X185845480Y-102932151D01*
X185855970Y-102954329D01*
X185864235Y-102977429D01*
X185870196Y-103001227D01*
X185873796Y-103025496D01*
X185875000Y-103050000D01*
X185875000Y-103975000D01*
X185873796Y-103999504D01*
X185870196Y-104023773D01*
X185864235Y-104047571D01*
X185855970Y-104070671D01*
X185845480Y-104092849D01*
X185832867Y-104113893D01*
X185818253Y-104133598D01*
X185801777Y-104151777D01*
X185783598Y-104168253D01*
X185763893Y-104182867D01*
X185742849Y-104195480D01*
X185720671Y-104205970D01*
X185697571Y-104214235D01*
X185673773Y-104220196D01*
X185649504Y-104223796D01*
X185625000Y-104225000D01*
X184375000Y-104225000D01*
X184350496Y-104223796D01*
X184326227Y-104220196D01*
X184302429Y-104214235D01*
X184279329Y-104205970D01*
X184257151Y-104195480D01*
X184236107Y-104182867D01*
X184216402Y-104168253D01*
X184198223Y-104151777D01*
X184181747Y-104133598D01*
X184167133Y-104113893D01*
X184154520Y-104092849D01*
X184144030Y-104070671D01*
X184135765Y-104047571D01*
X184129804Y-104023773D01*
X184126204Y-103999504D01*
X184125000Y-103975000D01*
X184125000Y-103050000D01*
X184126204Y-103025496D01*
X184129804Y-103001227D01*
X184135765Y-102977429D01*
X184144030Y-102954329D01*
X184154520Y-102932151D01*
X184167133Y-102911107D01*
X184181747Y-102891402D01*
X184198223Y-102873223D01*
X184216402Y-102856747D01*
X184236107Y-102842133D01*
X184257151Y-102829520D01*
X184279329Y-102819030D01*
X184302429Y-102810765D01*
X184326227Y-102804804D01*
X184350496Y-102801204D01*
X184375000Y-102800000D01*
X185625000Y-102800000D01*
X185649504Y-102801204D01*
X185649504Y-102801204D01*
G37*
D24*
X185000000Y-103512500D03*
D23*
G36*
X185649504Y-105776204D02*
X185673773Y-105779804D01*
X185697571Y-105785765D01*
X185720671Y-105794030D01*
X185742849Y-105804520D01*
X185763893Y-105817133D01*
X185783598Y-105831747D01*
X185801777Y-105848223D01*
X185818253Y-105866402D01*
X185832867Y-105886107D01*
X185845480Y-105907151D01*
X185855970Y-105929329D01*
X185864235Y-105952429D01*
X185870196Y-105976227D01*
X185873796Y-106000496D01*
X185875000Y-106025000D01*
X185875000Y-106950000D01*
X185873796Y-106974504D01*
X185870196Y-106998773D01*
X185864235Y-107022571D01*
X185855970Y-107045671D01*
X185845480Y-107067849D01*
X185832867Y-107088893D01*
X185818253Y-107108598D01*
X185801777Y-107126777D01*
X185783598Y-107143253D01*
X185763893Y-107157867D01*
X185742849Y-107170480D01*
X185720671Y-107180970D01*
X185697571Y-107189235D01*
X185673773Y-107195196D01*
X185649504Y-107198796D01*
X185625000Y-107200000D01*
X184375000Y-107200000D01*
X184350496Y-107198796D01*
X184326227Y-107195196D01*
X184302429Y-107189235D01*
X184279329Y-107180970D01*
X184257151Y-107170480D01*
X184236107Y-107157867D01*
X184216402Y-107143253D01*
X184198223Y-107126777D01*
X184181747Y-107108598D01*
X184167133Y-107088893D01*
X184154520Y-107067849D01*
X184144030Y-107045671D01*
X184135765Y-107022571D01*
X184129804Y-106998773D01*
X184126204Y-106974504D01*
X184125000Y-106950000D01*
X184125000Y-106025000D01*
X184126204Y-106000496D01*
X184129804Y-105976227D01*
X184135765Y-105952429D01*
X184144030Y-105929329D01*
X184154520Y-105907151D01*
X184167133Y-105886107D01*
X184181747Y-105866402D01*
X184198223Y-105848223D01*
X184216402Y-105831747D01*
X184236107Y-105817133D01*
X184257151Y-105804520D01*
X184279329Y-105794030D01*
X184302429Y-105785765D01*
X184326227Y-105779804D01*
X184350496Y-105776204D01*
X184375000Y-105775000D01*
X185625000Y-105775000D01*
X185649504Y-105776204D01*
X185649504Y-105776204D01*
G37*
D24*
X185000000Y-106487500D03*
M02*
