M48
;DRILL file {KiCad 5.0.0} date Fri Oct 12 22:57:10 2018
;FORMAT={-:-/ absolute / inch / decimal}
FMAT,2
INCH,TZ
T1C0.0157
T2C0.0295
T3C0.0315
T4C0.0394
T5C0.0400
T6C0.1378
%
G90
G05
M72
T1
X5.9843Y-2.9921
X5.9843Y-3.8583
X6.1417Y-2.7953
X6.3386Y-2.7559
X6.378Y-2.5197
X6.4173Y-3.7008
X6.4567Y-3.2283
X6.4961Y-3.1102
X6.6142Y-2.8346
X6.6142Y-2.9921
X6.6535Y-4.4488
X6.6929Y-3.0709
X6.811Y-3.8583
X6.811Y-4.4488
X6.8504Y-3.0315
X6.9291Y-3.1102
X6.9291Y-3.2283
X6.9685Y-3.5433
X6.9685Y-3.622
X6.9685Y-3.7402
X6.9685Y-3.9764
X7.0079Y-2.9134
X7.0079Y-3.189
X7.0472Y-2.6772
X7.0472Y-2.7953
X7.0472Y-2.9134
X7.0472Y-3.0709
X7.0472Y-3.2677
X7.126Y-3.6614
X7.1654Y-3.7402
X7.2047Y-2.8346
X7.2047Y-2.9921
X7.2047Y-3.814
X7.2047Y-3.8632
X7.2047Y-3.9764
X7.2441Y-2.7953
X7.2441Y-2.9921
X7.2441Y-3.8583
X7.2441Y-4.252
X7.3228Y-2.7165
X7.3228Y-3.8583
X7.4016Y-3.5433
X7.4016Y-4.3307
X7.4409Y-3.8583
X7.4803Y-3.0315
X7.4803Y-4.0157
X7.4803Y-4.2126
X7.5197Y-3.1496
T2
X6.2992Y-2.3622
X6.378Y-2.3622
X6.4567Y-2.3622
X6.5354Y-2.3622
X7.5591Y-2.5984
X7.5591Y-2.6772
X7.5591Y-2.7559
X6.752Y-2.3622
X6.8307Y-2.3622
X6.9094Y-2.3622
X7.126Y-2.3622
X7.2047Y-2.3622
X7.2835Y-2.3622
X6.3386Y-4.45
X6.4173Y-4.45
X6.4961Y-4.45
T3
X6.1417Y-3.1299
X6.1417Y-3.2283
T4
X6.1024Y-4.0157
X6.2024Y-4.0157
T5
X6.676Y-3.6551
X6.676Y-3.7551
X6.676Y-3.8551
X6.676Y-3.9551
X6.676Y-4.0551
X6.676Y-4.1551
X6.676Y-4.2551
X6.676Y-4.3551
X7.576Y-3.6551
X7.576Y-3.7551
X7.576Y-3.8551
X7.576Y-3.9551
X7.576Y-4.0551
X7.576Y-4.1551
X7.576Y-4.2551
X7.576Y-4.3551
T6
X6.063Y-2.3228
X7.5197Y-2.3228
X6.063Y-4.5669
X7.5197Y-4.5669
T0
M30
