%TF.GenerationSoftware,KiCad,Pcbnew,5.0.0*%
%TF.CreationDate,2018-10-12T22:56:55+01:00*%
%TF.ProjectId,ESP8266_home_battery_controller,455350383236365F686F6D655F626174,rev?*%
%TF.SameCoordinates,Original*%
%TF.FileFunction,Copper,L1,Top,Signal*%
%TF.FilePolarity,Positive*%
%FSLAX46Y46*%
G04 Gerber Fmt 4.6, Leading zero omitted, Abs format (unit mm)*
G04 Created by KiCad (PCBNEW 5.0.0) date Fri Oct 12 22:56:55 2018*
%MOMM*%
%LPD*%
G01*
G04 APERTURE LIST*
%ADD10C,0.150000*%
%ADD11R,5.100000X2.350000*%
%ADD12R,1.100000X0.250000*%
%ADD13R,1.500000X0.450000*%
%ADD14O,1.200000X1.750000*%
%ADD15C,0.100000*%
%ADD16C,1.200000*%
%ADD17R,1.700000X0.900000*%
%ADD18C,1.800000*%
%ADD19C,1.600000*%
%ADD20R,1.600000X1.600000*%
%ADD21R,3.500000X3.500000*%
%ADD22R,1.270000X0.970000*%
%ADD23R,0.970000X1.270000*%
%ADD24O,1.510000X3.010000*%
%ADD25R,1.143000X0.508000*%
%ADD26R,1.000000X1.600000*%
%ADD27R,1.600000X1.000000*%
%ADD28R,3.000000X2.000000*%
%ADD29R,1.200000X1.700000*%
%ADD30O,1.200000X1.700000*%
%ADD31R,0.900000X1.700000*%
%ADD32C,3.500000*%
%ADD33O,1.750000X1.200000*%
%ADD34C,1.425000*%
%ADD35C,0.600000*%
%ADD36C,0.600000*%
%ADD37C,0.400000*%
%ADD38C,0.250000*%
G04 APERTURE END LIST*
D10*
X150000000Y-55000000D02*
X195000000Y-55000000D01*
X150000000Y-120000000D02*
X150000000Y-55000000D01*
X195000000Y-120000000D02*
X150000000Y-120000000D01*
X195000000Y-55000000D02*
X195000000Y-120000000D01*
D11*
X156000000Y-88925000D03*
X156000000Y-93075000D03*
D12*
X181150000Y-97000000D03*
X181150000Y-97500000D03*
X181150000Y-98000000D03*
X181150000Y-98500000D03*
X181150000Y-99000000D03*
X176850000Y-99000000D03*
X176850000Y-98500000D03*
X176850000Y-98000000D03*
X176850000Y-97500000D03*
X176850000Y-97000000D03*
D13*
X186950000Y-74725000D03*
X186950000Y-75375000D03*
X186950000Y-76025000D03*
X186950000Y-76675000D03*
X186950000Y-77325000D03*
X186950000Y-77975000D03*
X186950000Y-78625000D03*
X186950000Y-79275000D03*
X181050000Y-79275000D03*
X181050000Y-78625000D03*
X181050000Y-77975000D03*
X181050000Y-77325000D03*
X181050000Y-76675000D03*
X181050000Y-76025000D03*
X181050000Y-75375000D03*
X181050000Y-74725000D03*
D14*
X181000000Y-60000000D03*
X183000000Y-60000000D03*
D15*
G36*
X185374505Y-59126204D02*
X185398773Y-59129804D01*
X185422572Y-59135765D01*
X185445671Y-59144030D01*
X185467850Y-59154520D01*
X185488893Y-59167132D01*
X185508599Y-59181747D01*
X185526777Y-59198223D01*
X185543253Y-59216401D01*
X185557868Y-59236107D01*
X185570480Y-59257150D01*
X185580970Y-59279329D01*
X185589235Y-59302428D01*
X185595196Y-59326227D01*
X185598796Y-59350495D01*
X185600000Y-59374999D01*
X185600000Y-60625001D01*
X185598796Y-60649505D01*
X185595196Y-60673773D01*
X185589235Y-60697572D01*
X185580970Y-60720671D01*
X185570480Y-60742850D01*
X185557868Y-60763893D01*
X185543253Y-60783599D01*
X185526777Y-60801777D01*
X185508599Y-60818253D01*
X185488893Y-60832868D01*
X185467850Y-60845480D01*
X185445671Y-60855970D01*
X185422572Y-60864235D01*
X185398773Y-60870196D01*
X185374505Y-60873796D01*
X185350001Y-60875000D01*
X184649999Y-60875000D01*
X184625495Y-60873796D01*
X184601227Y-60870196D01*
X184577428Y-60864235D01*
X184554329Y-60855970D01*
X184532150Y-60845480D01*
X184511107Y-60832868D01*
X184491401Y-60818253D01*
X184473223Y-60801777D01*
X184456747Y-60783599D01*
X184442132Y-60763893D01*
X184429520Y-60742850D01*
X184419030Y-60720671D01*
X184410765Y-60697572D01*
X184404804Y-60673773D01*
X184401204Y-60649505D01*
X184400000Y-60625001D01*
X184400000Y-59374999D01*
X184401204Y-59350495D01*
X184404804Y-59326227D01*
X184410765Y-59302428D01*
X184419030Y-59279329D01*
X184429520Y-59257150D01*
X184442132Y-59236107D01*
X184456747Y-59216401D01*
X184473223Y-59198223D01*
X184491401Y-59181747D01*
X184511107Y-59167132D01*
X184532150Y-59154520D01*
X184554329Y-59144030D01*
X184577428Y-59135765D01*
X184601227Y-59129804D01*
X184625495Y-59126204D01*
X184649999Y-59125000D01*
X185350001Y-59125000D01*
X185374505Y-59126204D01*
X185374505Y-59126204D01*
G37*
D16*
X185000000Y-60000000D03*
D14*
X171500000Y-60000000D03*
X173500000Y-60000000D03*
D15*
G36*
X175874505Y-59126204D02*
X175898773Y-59129804D01*
X175922572Y-59135765D01*
X175945671Y-59144030D01*
X175967850Y-59154520D01*
X175988893Y-59167132D01*
X176008599Y-59181747D01*
X176026777Y-59198223D01*
X176043253Y-59216401D01*
X176057868Y-59236107D01*
X176070480Y-59257150D01*
X176080970Y-59279329D01*
X176089235Y-59302428D01*
X176095196Y-59326227D01*
X176098796Y-59350495D01*
X176100000Y-59374999D01*
X176100000Y-60625001D01*
X176098796Y-60649505D01*
X176095196Y-60673773D01*
X176089235Y-60697572D01*
X176080970Y-60720671D01*
X176070480Y-60742850D01*
X176057868Y-60763893D01*
X176043253Y-60783599D01*
X176026777Y-60801777D01*
X176008599Y-60818253D01*
X175988893Y-60832868D01*
X175967850Y-60845480D01*
X175945671Y-60855970D01*
X175922572Y-60864235D01*
X175898773Y-60870196D01*
X175874505Y-60873796D01*
X175850001Y-60875000D01*
X175149999Y-60875000D01*
X175125495Y-60873796D01*
X175101227Y-60870196D01*
X175077428Y-60864235D01*
X175054329Y-60855970D01*
X175032150Y-60845480D01*
X175011107Y-60832868D01*
X174991401Y-60818253D01*
X174973223Y-60801777D01*
X174956747Y-60783599D01*
X174942132Y-60763893D01*
X174929520Y-60742850D01*
X174919030Y-60720671D01*
X174910765Y-60697572D01*
X174904804Y-60673773D01*
X174901204Y-60649505D01*
X174900000Y-60625001D01*
X174900000Y-59374999D01*
X174901204Y-59350495D01*
X174904804Y-59326227D01*
X174910765Y-59302428D01*
X174919030Y-59279329D01*
X174929520Y-59257150D01*
X174942132Y-59236107D01*
X174956747Y-59216401D01*
X174973223Y-59198223D01*
X174991401Y-59181747D01*
X175011107Y-59167132D01*
X175032150Y-59154520D01*
X175054329Y-59144030D01*
X175077428Y-59135765D01*
X175101227Y-59129804D01*
X175125495Y-59126204D01*
X175149999Y-59125000D01*
X175850001Y-59125000D01*
X175874505Y-59126204D01*
X175874505Y-59126204D01*
G37*
D16*
X175500000Y-60000000D03*
D14*
X160000000Y-60000000D03*
X162000000Y-60000000D03*
X164000000Y-60000000D03*
D15*
G36*
X166374505Y-59126204D02*
X166398773Y-59129804D01*
X166422572Y-59135765D01*
X166445671Y-59144030D01*
X166467850Y-59154520D01*
X166488893Y-59167132D01*
X166508599Y-59181747D01*
X166526777Y-59198223D01*
X166543253Y-59216401D01*
X166557868Y-59236107D01*
X166570480Y-59257150D01*
X166580970Y-59279329D01*
X166589235Y-59302428D01*
X166595196Y-59326227D01*
X166598796Y-59350495D01*
X166600000Y-59374999D01*
X166600000Y-60625001D01*
X166598796Y-60649505D01*
X166595196Y-60673773D01*
X166589235Y-60697572D01*
X166580970Y-60720671D01*
X166570480Y-60742850D01*
X166557868Y-60763893D01*
X166543253Y-60783599D01*
X166526777Y-60801777D01*
X166508599Y-60818253D01*
X166488893Y-60832868D01*
X166467850Y-60845480D01*
X166445671Y-60855970D01*
X166422572Y-60864235D01*
X166398773Y-60870196D01*
X166374505Y-60873796D01*
X166350001Y-60875000D01*
X165649999Y-60875000D01*
X165625495Y-60873796D01*
X165601227Y-60870196D01*
X165577428Y-60864235D01*
X165554329Y-60855970D01*
X165532150Y-60845480D01*
X165511107Y-60832868D01*
X165491401Y-60818253D01*
X165473223Y-60801777D01*
X165456747Y-60783599D01*
X165442132Y-60763893D01*
X165429520Y-60742850D01*
X165419030Y-60720671D01*
X165410765Y-60697572D01*
X165404804Y-60673773D01*
X165401204Y-60649505D01*
X165400000Y-60625001D01*
X165400000Y-59374999D01*
X165401204Y-59350495D01*
X165404804Y-59326227D01*
X165410765Y-59302428D01*
X165419030Y-59279329D01*
X165429520Y-59257150D01*
X165442132Y-59236107D01*
X165456747Y-59216401D01*
X165473223Y-59198223D01*
X165491401Y-59181747D01*
X165511107Y-59167132D01*
X165532150Y-59154520D01*
X165554329Y-59144030D01*
X165577428Y-59135765D01*
X165601227Y-59129804D01*
X165625495Y-59126204D01*
X165649999Y-59125000D01*
X166350001Y-59125000D01*
X166374505Y-59126204D01*
X166374505Y-59126204D01*
G37*
D16*
X166000000Y-60000000D03*
D17*
X181000000Y-102924779D03*
X181000000Y-105824779D03*
X188000000Y-96450000D03*
X188000000Y-93550000D03*
D18*
X169570000Y-92840000D03*
X169570000Y-95380000D03*
X169570000Y-97920000D03*
X169570000Y-100460000D03*
X169570000Y-103000000D03*
X169570000Y-105540000D03*
X169570000Y-108080000D03*
X169570000Y-110620000D03*
X192430000Y-110620000D03*
X192430000Y-108080000D03*
X192430000Y-105540000D03*
X192430000Y-103000000D03*
X192430000Y-100460000D03*
X192430000Y-97920000D03*
X192430000Y-95380000D03*
X192430000Y-92840000D03*
D19*
X156000000Y-79500000D03*
D20*
X156000000Y-82000000D03*
D21*
X164000000Y-106800000D03*
X164000000Y-100000000D03*
D22*
X175000000Y-90730000D03*
X175000000Y-92000000D03*
X175000000Y-93270000D03*
X179000000Y-90730000D03*
X179000000Y-92000000D03*
X179000000Y-93270000D03*
D23*
X188730000Y-83000000D03*
X190000000Y-83000000D03*
X191270000Y-83000000D03*
X188730000Y-86000000D03*
X190000000Y-86000000D03*
X191270000Y-86000000D03*
D24*
X155000000Y-102000000D03*
X157540000Y-102000000D03*
D17*
X176000000Y-70550000D03*
X176000000Y-73450000D03*
D25*
X173175000Y-79095000D03*
X173175000Y-80365000D03*
X173175000Y-81635000D03*
X173175000Y-82905000D03*
X166825000Y-82905000D03*
X166825000Y-81635000D03*
X166825000Y-80365000D03*
X166825000Y-79095000D03*
D26*
X160500000Y-75000000D03*
X157500000Y-75000000D03*
D27*
X164000000Y-74500000D03*
X164000000Y-77500000D03*
D28*
X164000000Y-85675000D03*
X164000000Y-90325000D03*
D29*
X161000000Y-113030000D03*
D30*
X163000000Y-113030000D03*
X165000000Y-113030000D03*
D31*
X167450000Y-67000000D03*
X164550000Y-67000000D03*
X161450000Y-67000000D03*
X158550000Y-67000000D03*
D17*
X185000000Y-63550000D03*
X185000000Y-66450000D03*
X176000000Y-64550000D03*
X176000000Y-67450000D03*
D27*
X188000000Y-102500000D03*
X188000000Y-99500000D03*
X174000000Y-100500000D03*
X174000000Y-103500000D03*
D32*
X154000000Y-59000000D03*
X191000000Y-59000000D03*
X191000000Y-116000000D03*
X154000000Y-116000000D03*
D15*
G36*
X192649505Y-65401204D02*
X192673773Y-65404804D01*
X192697572Y-65410765D01*
X192720671Y-65419030D01*
X192742850Y-65429520D01*
X192763893Y-65442132D01*
X192783599Y-65456747D01*
X192801777Y-65473223D01*
X192818253Y-65491401D01*
X192832868Y-65511107D01*
X192845480Y-65532150D01*
X192855970Y-65554329D01*
X192864235Y-65577428D01*
X192870196Y-65601227D01*
X192873796Y-65625495D01*
X192875000Y-65649999D01*
X192875000Y-66350001D01*
X192873796Y-66374505D01*
X192870196Y-66398773D01*
X192864235Y-66422572D01*
X192855970Y-66445671D01*
X192845480Y-66467850D01*
X192832868Y-66488893D01*
X192818253Y-66508599D01*
X192801777Y-66526777D01*
X192783599Y-66543253D01*
X192763893Y-66557868D01*
X192742850Y-66570480D01*
X192720671Y-66580970D01*
X192697572Y-66589235D01*
X192673773Y-66595196D01*
X192649505Y-66598796D01*
X192625001Y-66600000D01*
X191374999Y-66600000D01*
X191350495Y-66598796D01*
X191326227Y-66595196D01*
X191302428Y-66589235D01*
X191279329Y-66580970D01*
X191257150Y-66570480D01*
X191236107Y-66557868D01*
X191216401Y-66543253D01*
X191198223Y-66526777D01*
X191181747Y-66508599D01*
X191167132Y-66488893D01*
X191154520Y-66467850D01*
X191144030Y-66445671D01*
X191135765Y-66422572D01*
X191129804Y-66398773D01*
X191126204Y-66374505D01*
X191125000Y-66350001D01*
X191125000Y-65649999D01*
X191126204Y-65625495D01*
X191129804Y-65601227D01*
X191135765Y-65577428D01*
X191144030Y-65554329D01*
X191154520Y-65532150D01*
X191167132Y-65511107D01*
X191181747Y-65491401D01*
X191198223Y-65473223D01*
X191216401Y-65456747D01*
X191236107Y-65442132D01*
X191257150Y-65429520D01*
X191279329Y-65419030D01*
X191302428Y-65410765D01*
X191326227Y-65404804D01*
X191350495Y-65401204D01*
X191374999Y-65400000D01*
X192625001Y-65400000D01*
X192649505Y-65401204D01*
X192649505Y-65401204D01*
G37*
D16*
X192000000Y-66000000D03*
D33*
X192000000Y-68000000D03*
X192000000Y-70000000D03*
D15*
G36*
X185649504Y-102801204D02*
X185673773Y-102804804D01*
X185697571Y-102810765D01*
X185720671Y-102819030D01*
X185742849Y-102829520D01*
X185763893Y-102842133D01*
X185783598Y-102856747D01*
X185801777Y-102873223D01*
X185818253Y-102891402D01*
X185832867Y-102911107D01*
X185845480Y-102932151D01*
X185855970Y-102954329D01*
X185864235Y-102977429D01*
X185870196Y-103001227D01*
X185873796Y-103025496D01*
X185875000Y-103050000D01*
X185875000Y-103975000D01*
X185873796Y-103999504D01*
X185870196Y-104023773D01*
X185864235Y-104047571D01*
X185855970Y-104070671D01*
X185845480Y-104092849D01*
X185832867Y-104113893D01*
X185818253Y-104133598D01*
X185801777Y-104151777D01*
X185783598Y-104168253D01*
X185763893Y-104182867D01*
X185742849Y-104195480D01*
X185720671Y-104205970D01*
X185697571Y-104214235D01*
X185673773Y-104220196D01*
X185649504Y-104223796D01*
X185625000Y-104225000D01*
X184375000Y-104225000D01*
X184350496Y-104223796D01*
X184326227Y-104220196D01*
X184302429Y-104214235D01*
X184279329Y-104205970D01*
X184257151Y-104195480D01*
X184236107Y-104182867D01*
X184216402Y-104168253D01*
X184198223Y-104151777D01*
X184181747Y-104133598D01*
X184167133Y-104113893D01*
X184154520Y-104092849D01*
X184144030Y-104070671D01*
X184135765Y-104047571D01*
X184129804Y-104023773D01*
X184126204Y-103999504D01*
X184125000Y-103975000D01*
X184125000Y-103050000D01*
X184126204Y-103025496D01*
X184129804Y-103001227D01*
X184135765Y-102977429D01*
X184144030Y-102954329D01*
X184154520Y-102932151D01*
X184167133Y-102911107D01*
X184181747Y-102891402D01*
X184198223Y-102873223D01*
X184216402Y-102856747D01*
X184236107Y-102842133D01*
X184257151Y-102829520D01*
X184279329Y-102819030D01*
X184302429Y-102810765D01*
X184326227Y-102804804D01*
X184350496Y-102801204D01*
X184375000Y-102800000D01*
X185625000Y-102800000D01*
X185649504Y-102801204D01*
X185649504Y-102801204D01*
G37*
D34*
X185000000Y-103512500D03*
D15*
G36*
X185649504Y-105776204D02*
X185673773Y-105779804D01*
X185697571Y-105785765D01*
X185720671Y-105794030D01*
X185742849Y-105804520D01*
X185763893Y-105817133D01*
X185783598Y-105831747D01*
X185801777Y-105848223D01*
X185818253Y-105866402D01*
X185832867Y-105886107D01*
X185845480Y-105907151D01*
X185855970Y-105929329D01*
X185864235Y-105952429D01*
X185870196Y-105976227D01*
X185873796Y-106000496D01*
X185875000Y-106025000D01*
X185875000Y-106950000D01*
X185873796Y-106974504D01*
X185870196Y-106998773D01*
X185864235Y-107022571D01*
X185855970Y-107045671D01*
X185845480Y-107067849D01*
X185832867Y-107088893D01*
X185818253Y-107108598D01*
X185801777Y-107126777D01*
X185783598Y-107143253D01*
X185763893Y-107157867D01*
X185742849Y-107170480D01*
X185720671Y-107180970D01*
X185697571Y-107189235D01*
X185673773Y-107195196D01*
X185649504Y-107198796D01*
X185625000Y-107200000D01*
X184375000Y-107200000D01*
X184350496Y-107198796D01*
X184326227Y-107195196D01*
X184302429Y-107189235D01*
X184279329Y-107180970D01*
X184257151Y-107170480D01*
X184236107Y-107157867D01*
X184216402Y-107143253D01*
X184198223Y-107126777D01*
X184181747Y-107108598D01*
X184167133Y-107088893D01*
X184154520Y-107067849D01*
X184144030Y-107045671D01*
X184135765Y-107022571D01*
X184129804Y-106998773D01*
X184126204Y-106974504D01*
X184125000Y-106950000D01*
X184125000Y-106025000D01*
X184126204Y-106000496D01*
X184129804Y-105976227D01*
X184135765Y-105952429D01*
X184144030Y-105929329D01*
X184154520Y-105907151D01*
X184167133Y-105886107D01*
X184181747Y-105866402D01*
X184198223Y-105848223D01*
X184216402Y-105831747D01*
X184236107Y-105817133D01*
X184257151Y-105804520D01*
X184279329Y-105794030D01*
X184302429Y-105785765D01*
X184326227Y-105779804D01*
X184350496Y-105776204D01*
X184375000Y-105775000D01*
X185625000Y-105775000D01*
X185649504Y-105776204D01*
X185649504Y-105776204D01*
G37*
D34*
X185000000Y-106487500D03*
D35*
X189000000Y-98000000D03*
X181000000Y-93000000D03*
X163000000Y-94000000D03*
X164000000Y-82000000D03*
X176000000Y-82000000D03*
X178000000Y-74000000D03*
X190000000Y-77000000D03*
X191000000Y-80000000D03*
X186000000Y-98000000D03*
X184000000Y-108000000D03*
X190000000Y-107000000D03*
X188000000Y-110000000D03*
X173000000Y-113000000D03*
X169000000Y-113000000D03*
X183000000Y-98125000D03*
X183000000Y-96875000D03*
X190000000Y-102000000D03*
X177000000Y-90000000D03*
X188000000Y-90000000D03*
X162000000Y-64000000D03*
X152000000Y-98000000D03*
X152000000Y-76000000D03*
X156000000Y-71000000D03*
X161000000Y-70000000D03*
X173000000Y-98000000D03*
X179000000Y-83000000D03*
X178000000Y-81000000D03*
X176000000Y-79000000D03*
X174000000Y-77000000D03*
X168000000Y-76000000D03*
X168000000Y-72000000D03*
X184000000Y-71000000D03*
X183000000Y-72000000D03*
X177000000Y-92000000D03*
X177000000Y-95000000D03*
X170000000Y-78000000D03*
X165000000Y-79000000D03*
X179000000Y-71000000D03*
X179000000Y-74000000D03*
X179000000Y-77999954D03*
X179000000Y-68000000D03*
X184000000Y-76000000D03*
X186000000Y-69000000D03*
X183000000Y-76000000D03*
X177000000Y-101000000D03*
X182000000Y-95000000D03*
X183000000Y-101000000D03*
X184000000Y-98000000D03*
D36*
X154200000Y-87800000D02*
X156000000Y-87800000D01*
X152000000Y-90000000D02*
X154200000Y-87800000D01*
X152000000Y-96000000D02*
X152000000Y-90000000D01*
X155000000Y-102000000D02*
X155000000Y-99000000D01*
X155000000Y-99000000D02*
X152000000Y-96000000D01*
X156000000Y-87800000D02*
X156000000Y-82000000D01*
D37*
X166825000Y-82905000D02*
X158095000Y-82905000D01*
X157200000Y-82000000D02*
X156000000Y-82000000D01*
X158095000Y-82895000D02*
X157200000Y-82000000D01*
X158095000Y-82905000D02*
X158095000Y-82895000D01*
X161000000Y-113030000D02*
X161000000Y-112780000D01*
D38*
X175885000Y-93270000D02*
X179000000Y-93270000D01*
X175000000Y-93270000D02*
X175885000Y-93270000D01*
X179885000Y-93270000D02*
X180155000Y-93000000D01*
X179000000Y-93270000D02*
X179885000Y-93270000D01*
X180155000Y-93000000D02*
X181000000Y-93000000D01*
D36*
X163000000Y-94000000D02*
X164000000Y-93000000D01*
X164000000Y-93000000D02*
X164000000Y-90325000D01*
D37*
X166825000Y-81635000D02*
X164365000Y-81635000D01*
X164365000Y-81635000D02*
X164000000Y-82000000D01*
D36*
X157500000Y-75300000D02*
X157500000Y-75000000D01*
X156000000Y-76800000D02*
X157500000Y-75300000D01*
X156000000Y-79500000D02*
X156000000Y-76800000D01*
D37*
X175635000Y-81635000D02*
X176000000Y-82000000D01*
X173175000Y-81635000D02*
X175635000Y-81635000D01*
X173175000Y-82905000D02*
X175095000Y-82905000D01*
X175095000Y-82905000D02*
X176000000Y-82000000D01*
X176550000Y-74000000D02*
X176000000Y-73450000D01*
X178000000Y-74000000D02*
X176550000Y-74000000D01*
D38*
X191270000Y-85115000D02*
X191270000Y-83000000D01*
X191270000Y-86000000D02*
X191270000Y-85115000D01*
X191270000Y-80270000D02*
X191000000Y-80000000D01*
X191270000Y-83000000D02*
X191270000Y-80270000D01*
X189675000Y-77325000D02*
X190000000Y-77000000D01*
X186950000Y-77325000D02*
X189675000Y-77325000D01*
X189025000Y-77975000D02*
X190000000Y-77000000D01*
X186950000Y-77975000D02*
X189025000Y-77975000D01*
X182136410Y-98500000D02*
X182636410Y-99000000D01*
X181150000Y-98500000D02*
X182136410Y-98500000D01*
X182636410Y-99000000D02*
X185000000Y-99000000D01*
X185000000Y-99000000D02*
X186000000Y-98000000D01*
X185000000Y-106487500D02*
X185000000Y-107000000D01*
X185000000Y-107000000D02*
X184000000Y-108000000D01*
X189000000Y-98500000D02*
X188000000Y-99500000D01*
X189000000Y-98000000D02*
X189000000Y-98500000D01*
X185550000Y-96450000D02*
X188000000Y-96450000D01*
D36*
X164000000Y-95000000D02*
X164000000Y-100000000D01*
D38*
X188000000Y-96450000D02*
X189550000Y-96450000D01*
D36*
X170000000Y-89000000D02*
X164000000Y-95000000D01*
D37*
X176000000Y-84000000D02*
X177000000Y-83000000D01*
X170000000Y-89000000D02*
X175000000Y-84000000D01*
X176635000Y-80365000D02*
X173175000Y-80365000D01*
X177000000Y-80730000D02*
X176635000Y-80365000D01*
X177000000Y-83000000D02*
X177000000Y-80730000D01*
X175000000Y-84000000D02*
X176000000Y-84000000D01*
D38*
X189550000Y-96450000D02*
X190450000Y-96450000D01*
X190450000Y-96450000D02*
X191000000Y-97000000D01*
X191000000Y-97000000D02*
X191000000Y-104000000D01*
X191000000Y-104000000D02*
X190000000Y-105000000D01*
X190000000Y-105000000D02*
X190000000Y-107000000D01*
X188000000Y-110000000D02*
X185000000Y-113000000D01*
X185000000Y-113000000D02*
X173000000Y-113000000D01*
X169000000Y-113000000D02*
X167000000Y-111000000D01*
X167000000Y-111000000D02*
X167000000Y-101000000D01*
X166000000Y-100000000D02*
X164000000Y-100000000D01*
X167000000Y-101000000D02*
X166000000Y-100000000D01*
X181150000Y-98000000D02*
X183000000Y-98000000D01*
X183000000Y-98000000D02*
X183000000Y-98125000D01*
X185125000Y-96875000D02*
X185550000Y-96450000D01*
X183000000Y-96875000D02*
X185125000Y-96875000D01*
X185500000Y-102500000D02*
X188000000Y-102500000D01*
X184000000Y-101000000D02*
X185500000Y-102500000D01*
D36*
X190620000Y-110620000D02*
X192430000Y-110620000D01*
X188000000Y-102500000D02*
X188000000Y-108000000D01*
X188000000Y-108000000D02*
X190620000Y-110620000D01*
D38*
X175000000Y-90730000D02*
X175885000Y-90730000D01*
D36*
X188000000Y-102500000D02*
X189500000Y-102500000D01*
X189500000Y-102500000D02*
X190000000Y-102000000D01*
D38*
X175885000Y-90730000D02*
X177000000Y-90730000D01*
X177000000Y-90000000D02*
X177000000Y-90730000D01*
X177000000Y-90730000D02*
X179000000Y-90730000D01*
D37*
X188730000Y-85115000D02*
X188730000Y-83000000D01*
X188730000Y-86000000D02*
X188730000Y-89270000D01*
X188730000Y-89270000D02*
X188000000Y-90000000D01*
X167450000Y-61450000D02*
X166000000Y-60000000D01*
X167450000Y-67000000D02*
X167450000Y-61450000D01*
X161450000Y-67000000D02*
X161450000Y-64550000D01*
X161450000Y-64550000D02*
X162000000Y-64000000D01*
X188730000Y-85115000D02*
X188730000Y-86000000D01*
D36*
X157540000Y-102000000D02*
X157540000Y-104460000D01*
X157540000Y-104460000D02*
X152460000Y-104460000D01*
X152460000Y-104460000D02*
X152000000Y-104000000D01*
X152000000Y-104000000D02*
X152000000Y-98000000D01*
X152000000Y-76000000D02*
X152000000Y-75000000D01*
X152000000Y-75000000D02*
X156000000Y-71000000D01*
X161000000Y-67450000D02*
X161450000Y-67000000D01*
X161000000Y-70000000D02*
X161000000Y-67450000D01*
D38*
X184000000Y-101000000D02*
X182000000Y-99000000D01*
X182000000Y-99000000D02*
X181000000Y-99000000D01*
X167450000Y-68450000D02*
X167450000Y-67000000D01*
X176050000Y-76000000D02*
X175000000Y-76000000D01*
X181050000Y-77325000D02*
X177375000Y-77325000D01*
X175000000Y-76000000D02*
X167450000Y-68450000D01*
X177375000Y-77325000D02*
X176050000Y-76000000D01*
X185200000Y-102500000D02*
X185500000Y-102500000D01*
X185000000Y-102700000D02*
X185200000Y-102500000D01*
X185000000Y-103512500D02*
X185000000Y-102700000D01*
X164550000Y-60550000D02*
X164000000Y-60000000D01*
X164550000Y-67000000D02*
X164550000Y-60550000D01*
X171450010Y-96450010D02*
X172700001Y-97700001D01*
X171450010Y-90549990D02*
X171450010Y-96450010D01*
X172700001Y-97700001D02*
X173000000Y-98000000D01*
X179000000Y-83000000D02*
X171450010Y-90549990D01*
X176012476Y-79000000D02*
X176000000Y-79000000D01*
X177700001Y-80687525D02*
X176012476Y-79000000D01*
X178000000Y-81000000D02*
X177700001Y-80700001D01*
X177700001Y-80700001D02*
X177700001Y-80687525D01*
X164550000Y-67550000D02*
X164550000Y-67000000D01*
X174000000Y-77000000D02*
X164550000Y-67550000D01*
X180000000Y-79800000D02*
X180000000Y-82000000D01*
X180525000Y-79275000D02*
X180000000Y-79800000D01*
X181050000Y-79275000D02*
X180525000Y-79275000D01*
X180000000Y-82000000D02*
X179000000Y-83000000D01*
X173500000Y-98500000D02*
X173000000Y-98000000D01*
X176850000Y-98500000D02*
X173500000Y-98500000D01*
X170650000Y-99000000D02*
X169570000Y-97920000D01*
X169570000Y-97920000D02*
X171000000Y-96490000D01*
X171000000Y-89742476D02*
X178742476Y-82000000D01*
X171000000Y-96490000D02*
X171000000Y-89742476D01*
X178742476Y-82000000D02*
X178742476Y-79257524D01*
X158550000Y-67000000D02*
X158550000Y-65450000D01*
X162000000Y-62000000D02*
X162000000Y-60000000D01*
X158550000Y-65450000D02*
X162000000Y-62000000D01*
X168000000Y-72000000D02*
X161000000Y-72000000D01*
X158550000Y-69550000D02*
X158550000Y-67000000D01*
X161000000Y-72000000D02*
X158550000Y-69550000D01*
X179417476Y-79257524D02*
X178742476Y-79257524D01*
X180050000Y-78625000D02*
X179417476Y-79257524D01*
X181050000Y-78625000D02*
X180050000Y-78625000D01*
X169363590Y-76000000D02*
X168000000Y-76000000D01*
X171363590Y-78000000D02*
X169363590Y-76000000D01*
X176000000Y-78000000D02*
X171363590Y-78000000D01*
X178742476Y-79257524D02*
X177257524Y-79257524D01*
X177257524Y-79257524D02*
X176000000Y-78000000D01*
X176850000Y-99000000D02*
X170650000Y-99000000D01*
X185000000Y-63550000D02*
X185000000Y-60000000D01*
X184000000Y-71000000D02*
X184000000Y-75000000D01*
X184000000Y-75000000D02*
X183000000Y-75000000D01*
X182050000Y-76025000D02*
X181050000Y-76025000D01*
X183000000Y-75075000D02*
X182050000Y-76025000D01*
X183000000Y-75000000D02*
X183000000Y-75075000D01*
X183000000Y-72000000D02*
X183000000Y-74549990D01*
X181960002Y-75375000D02*
X181050000Y-75375000D01*
X182785012Y-74549990D02*
X181960002Y-75375000D01*
X183000000Y-74549990D02*
X182785012Y-74549990D01*
X176000000Y-60500000D02*
X175500000Y-60000000D01*
X176000000Y-64550000D02*
X176000000Y-60500000D01*
X185000000Y-69335002D02*
X185000000Y-72000000D01*
X173500000Y-58500000D02*
X174000000Y-58000000D01*
X174000000Y-58000000D02*
X177000000Y-58000000D01*
X173500000Y-60000000D02*
X173500000Y-58500000D01*
X179000000Y-60000000D02*
X179000000Y-63335002D01*
X177000000Y-58000000D02*
X179000000Y-60000000D01*
X179000000Y-63335002D02*
X185000000Y-69335002D01*
X185000000Y-72000000D02*
X185000000Y-75000000D01*
X185375000Y-75375000D02*
X186950000Y-75375000D01*
X185000000Y-75000000D02*
X185375000Y-75375000D01*
X187175000Y-71555000D02*
X188025001Y-72405001D01*
X187175000Y-59175000D02*
X187175000Y-71555000D01*
X171500000Y-60000000D02*
X171500000Y-59725000D01*
X188025001Y-74174999D02*
X187475000Y-74725000D01*
X188025001Y-72405001D02*
X188025001Y-74174999D01*
X171000000Y-58000000D02*
X172000000Y-57000000D01*
X185000000Y-57000000D02*
X187175000Y-59175000D01*
X187475000Y-74725000D02*
X186950000Y-74725000D01*
X171500000Y-59725000D02*
X171000000Y-59225000D01*
X172000000Y-57000000D02*
X185000000Y-57000000D01*
X171000000Y-59225000D02*
X171000000Y-58000000D01*
X173000000Y-92000000D02*
X175000000Y-92000000D01*
X174000000Y-97000000D02*
X172000000Y-95000000D01*
X172000000Y-95000000D02*
X172000000Y-93000000D01*
X172000000Y-93000000D02*
X173000000Y-92000000D01*
X176850000Y-97500000D02*
X174500000Y-97500000D01*
X174500000Y-97500000D02*
X174000000Y-97000000D01*
X179000000Y-92000000D02*
X177000000Y-92000000D01*
X176850000Y-95150000D02*
X177000000Y-95000000D01*
X176850000Y-97000000D02*
X176850000Y-95150000D01*
X188322500Y-79275000D02*
X186950000Y-79275000D01*
X190000000Y-83000000D02*
X190000000Y-80952500D01*
X190000000Y-80952500D02*
X188322500Y-79275000D01*
X190000000Y-86885000D02*
X191000000Y-87885000D01*
X190000000Y-86000000D02*
X190000000Y-86885000D01*
X191000000Y-87885000D02*
X192115000Y-87885000D01*
X193000000Y-87000000D02*
X193000000Y-81000000D01*
X192115000Y-87885000D02*
X193000000Y-87000000D01*
X193000000Y-81000000D02*
X191175000Y-79175000D01*
X190625000Y-78625000D02*
X191175000Y-79175000D01*
X186950000Y-78625000D02*
X190625000Y-78625000D01*
D37*
X156000000Y-94200000D02*
X157800000Y-94200000D01*
X157800000Y-94200000D02*
X160000000Y-92000000D01*
X160000000Y-92000000D02*
X160000000Y-87000000D01*
X161325000Y-85675000D02*
X164000000Y-85675000D01*
X160000000Y-87000000D02*
X161325000Y-85675000D01*
X164175000Y-85500000D02*
X164000000Y-85675000D01*
X165900000Y-85675000D02*
X166575000Y-85000000D01*
X164000000Y-85675000D02*
X165900000Y-85675000D01*
X166575000Y-85000000D02*
X168000000Y-85000000D01*
X168000000Y-85000000D02*
X170000000Y-83000000D01*
X170000000Y-83000000D02*
X170000000Y-80000000D01*
X170905000Y-79095000D02*
X173175000Y-79095000D01*
X170000000Y-80000000D02*
X170905000Y-79095000D01*
X170000000Y-80000000D02*
X170000000Y-78000000D01*
X165000000Y-79000000D02*
X164000000Y-79000000D01*
X164000000Y-79000000D02*
X164000000Y-77500000D01*
D38*
X176450000Y-71000000D02*
X176000000Y-70550000D01*
X179000000Y-71000000D02*
X176450000Y-71000000D01*
X179725000Y-74725000D02*
X179000000Y-74000000D01*
X181050000Y-74725000D02*
X179725000Y-74725000D01*
X179000000Y-78000000D02*
X179000000Y-77999954D01*
X179024954Y-77975000D02*
X179000000Y-77999954D01*
X181050000Y-77975000D02*
X179024954Y-77975000D01*
X168910000Y-93070000D02*
X169270000Y-92710000D01*
X169270000Y-92710000D02*
X169270000Y-92310000D01*
X169100000Y-105600000D02*
X168910000Y-105410000D01*
X161365000Y-80365000D02*
X166825000Y-80365000D01*
X160500000Y-75000000D02*
X160500000Y-79500000D01*
X160500000Y-79500000D02*
X161365000Y-80365000D01*
X166000000Y-75000000D02*
X165500000Y-74500000D01*
X165500000Y-74500000D02*
X164000000Y-74500000D01*
X166000000Y-79091500D02*
X166000000Y-75000000D01*
X166825000Y-79095000D02*
X166003500Y-79095000D01*
X166003500Y-79095000D02*
X166000000Y-79091500D01*
X178175221Y-105824779D02*
X169000000Y-115000000D01*
X163000000Y-113280000D02*
X163000000Y-113030000D01*
X164720000Y-115000000D02*
X163000000Y-113280000D01*
X169000000Y-115000000D02*
X164720000Y-115000000D01*
X181000000Y-105824779D02*
X178175221Y-105824779D01*
X176550000Y-68000000D02*
X176000000Y-67450000D01*
X179000000Y-68000000D02*
X176550000Y-68000000D01*
X184000000Y-76000000D02*
X187000000Y-76000000D01*
X185000000Y-68000000D02*
X186000000Y-69000000D01*
X182325000Y-76675000D02*
X181050000Y-76675000D01*
X183000000Y-76000000D02*
X182325000Y-76675000D01*
X185000000Y-68000000D02*
X185000000Y-66450000D01*
D37*
X165000000Y-107800000D02*
X164000000Y-106800000D01*
D36*
X165000000Y-113030000D02*
X165000000Y-107800000D01*
D38*
X186550000Y-93550000D02*
X188000000Y-93550000D01*
X184000000Y-93000000D02*
X186000000Y-93000000D01*
X186000000Y-93000000D02*
X186550000Y-93550000D01*
X182000000Y-95000000D02*
X184000000Y-93000000D01*
X174000000Y-100500000D02*
X176500000Y-100500000D01*
X176500000Y-100500000D02*
X177000000Y-101000000D01*
X182000000Y-95000000D02*
X182000000Y-96000000D01*
X182000000Y-96000000D02*
X181000000Y-97000000D01*
X174000000Y-103500000D02*
X174000000Y-105000000D01*
X174000000Y-105000000D02*
X175000000Y-106000000D01*
X175000000Y-106000000D02*
X176000000Y-106000000D01*
X176000000Y-106000000D02*
X179000000Y-103000000D01*
X179000000Y-103000000D02*
X179075221Y-102924779D01*
X183500000Y-97500000D02*
X181150000Y-97500000D01*
X184000000Y-98000000D02*
X183500000Y-97500000D01*
X181000000Y-102924779D02*
X179075221Y-102924779D01*
X179075221Y-102924779D02*
X181075221Y-102924779D01*
X181075221Y-102924779D02*
X181000000Y-102924779D01*
X183000000Y-101000000D02*
X181075221Y-102924779D01*
X192430000Y-92840000D02*
X194000000Y-91270000D01*
X192000000Y-70850000D02*
X192000000Y-70000000D01*
X194000000Y-72850000D02*
X192000000Y-70850000D01*
X194000000Y-91270000D02*
X194000000Y-72850000D01*
M02*
