%TF.GenerationSoftware,KiCad,Pcbnew,5.0.0*%
%TF.CreationDate,2018-10-12T22:56:55+01:00*%
%TF.ProjectId,ESP8266_home_battery_controller,455350383236365F686F6D655F626174,rev?*%
%TF.SameCoordinates,Original*%
%TF.FileFunction,Legend,Bot*%
%TF.FilePolarity,Positive*%
%FSLAX46Y46*%
G04 Gerber Fmt 4.6, Leading zero omitted, Abs format (unit mm)*
G04 Created by KiCad (PCBNEW 5.0.0) date Fri Oct 12 22:56:55 2018*
%MOMM*%
%LPD*%
G01*
G04 APERTURE LIST*
%ADD10C,0.300000*%
%ADD11C,0.150000*%
G04 APERTURE END LIST*
D10*
X164596428Y-102071428D02*
X166096428Y-102071428D01*
X164667857Y-102071428D02*
X164596428Y-102214285D01*
X164596428Y-102500000D01*
X164667857Y-102642857D01*
X164739285Y-102714285D01*
X164882142Y-102785714D01*
X165310714Y-102785714D01*
X165453571Y-102714285D01*
X165525000Y-102642857D01*
X165596428Y-102500000D01*
X165596428Y-102214285D01*
X165525000Y-102071428D01*
X164596428Y-101357142D02*
X165596428Y-101357142D01*
X166096428Y-101357142D02*
X166025000Y-101428571D01*
X165953571Y-101357142D01*
X166025000Y-101285714D01*
X166096428Y-101357142D01*
X165953571Y-101357142D01*
X165596428Y-100785714D02*
X164596428Y-100428571D01*
X165596428Y-100071428D02*
X164596428Y-100428571D01*
X164239285Y-100571428D01*
X164167857Y-100642857D01*
X164096428Y-100785714D01*
X165382142Y-99000000D02*
X165310714Y-98785714D01*
X165239285Y-98714285D01*
X165096428Y-98642857D01*
X164882142Y-98642857D01*
X164739285Y-98714285D01*
X164667857Y-98785714D01*
X164596428Y-98928571D01*
X164596428Y-99500000D01*
X166096428Y-99500000D01*
X166096428Y-99000000D01*
X166025000Y-98857142D01*
X165953571Y-98785714D01*
X165810714Y-98714285D01*
X165667857Y-98714285D01*
X165525000Y-98785714D01*
X165453571Y-98857142D01*
X165382142Y-99000000D01*
X165382142Y-99500000D01*
X164596428Y-98000000D02*
X166096428Y-98000000D01*
X165025000Y-97500000D01*
X166096428Y-97000000D01*
X164596428Y-97000000D01*
X164667857Y-96357142D02*
X164596428Y-96142857D01*
X164596428Y-95785714D01*
X164667857Y-95642857D01*
X164739285Y-95571428D01*
X164882142Y-95500000D01*
X165025000Y-95500000D01*
X165167857Y-95571428D01*
X165239285Y-95642857D01*
X165310714Y-95785714D01*
X165382142Y-96071428D01*
X165453571Y-96214285D01*
X165525000Y-96285714D01*
X165667857Y-96357142D01*
X165810714Y-96357142D01*
X165953571Y-96285714D01*
X166025000Y-96214285D01*
X166096428Y-96071428D01*
X166096428Y-95714285D01*
X166025000Y-95500000D01*
X164739285Y-92857142D02*
X164667857Y-92928571D01*
X164596428Y-93142857D01*
X164596428Y-93285714D01*
X164667857Y-93500000D01*
X164810714Y-93642857D01*
X164953571Y-93714285D01*
X165239285Y-93785714D01*
X165453571Y-93785714D01*
X165739285Y-93714285D01*
X165882142Y-93642857D01*
X166025000Y-93500000D01*
X166096428Y-93285714D01*
X166096428Y-93142857D01*
X166025000Y-92928571D01*
X165953571Y-92857142D01*
X164596428Y-92000000D02*
X164667857Y-92142857D01*
X164739285Y-92214285D01*
X164882142Y-92285714D01*
X165310714Y-92285714D01*
X165453571Y-92214285D01*
X165525000Y-92142857D01*
X165596428Y-92000000D01*
X165596428Y-91785714D01*
X165525000Y-91642857D01*
X165453571Y-91571428D01*
X165310714Y-91500000D01*
X164882142Y-91500000D01*
X164739285Y-91571428D01*
X164667857Y-91642857D01*
X164596428Y-91785714D01*
X164596428Y-92000000D01*
X165596428Y-90857142D02*
X164596428Y-90857142D01*
X165453571Y-90857142D02*
X165525000Y-90785714D01*
X165596428Y-90642857D01*
X165596428Y-90428571D01*
X165525000Y-90285714D01*
X165382142Y-90214285D01*
X164596428Y-90214285D01*
X165596428Y-89714285D02*
X165596428Y-89142857D01*
X166096428Y-89500000D02*
X164810714Y-89500000D01*
X164667857Y-89428571D01*
X164596428Y-89285714D01*
X164596428Y-89142857D01*
X164596428Y-88642857D02*
X165596428Y-88642857D01*
X165310714Y-88642857D02*
X165453571Y-88571428D01*
X165525000Y-88500000D01*
X165596428Y-88357142D01*
X165596428Y-88214285D01*
X164596428Y-87500000D02*
X164667857Y-87642857D01*
X164739285Y-87714285D01*
X164882142Y-87785714D01*
X165310714Y-87785714D01*
X165453571Y-87714285D01*
X165525000Y-87642857D01*
X165596428Y-87500000D01*
X165596428Y-87285714D01*
X165525000Y-87142857D01*
X165453571Y-87071428D01*
X165310714Y-87000000D01*
X164882142Y-87000000D01*
X164739285Y-87071428D01*
X164667857Y-87142857D01*
X164596428Y-87285714D01*
X164596428Y-87500000D01*
X164596428Y-86142857D02*
X164667857Y-86285714D01*
X164810714Y-86357142D01*
X166096428Y-86357142D01*
X164596428Y-85357142D02*
X164667857Y-85500000D01*
X164810714Y-85571428D01*
X166096428Y-85571428D01*
X164667857Y-84214285D02*
X164596428Y-84357142D01*
X164596428Y-84642857D01*
X164667857Y-84785714D01*
X164810714Y-84857142D01*
X165382142Y-84857142D01*
X165525000Y-84785714D01*
X165596428Y-84642857D01*
X165596428Y-84357142D01*
X165525000Y-84214285D01*
X165382142Y-84142857D01*
X165239285Y-84142857D01*
X165096428Y-84857142D01*
X164596428Y-83500000D02*
X165596428Y-83500000D01*
X165310714Y-83500000D02*
X165453571Y-83428571D01*
X165525000Y-83357142D01*
X165596428Y-83214285D01*
X165596428Y-83071428D01*
X162046428Y-108928571D02*
X163546428Y-108928571D01*
X163546428Y-108571428D01*
X163475000Y-108357142D01*
X163332142Y-108214285D01*
X163189285Y-108142857D01*
X162903571Y-108071428D01*
X162689285Y-108071428D01*
X162403571Y-108142857D01*
X162260714Y-108214285D01*
X162117857Y-108357142D01*
X162046428Y-108571428D01*
X162046428Y-108928571D01*
X162117857Y-106857142D02*
X162046428Y-107000000D01*
X162046428Y-107285714D01*
X162117857Y-107428571D01*
X162260714Y-107500000D01*
X162832142Y-107500000D01*
X162975000Y-107428571D01*
X163046428Y-107285714D01*
X163046428Y-107000000D01*
X162975000Y-106857142D01*
X162832142Y-106785714D01*
X162689285Y-106785714D01*
X162546428Y-107500000D01*
X162046428Y-106142857D02*
X163046428Y-106142857D01*
X162760714Y-106142857D02*
X162903571Y-106071428D01*
X162975000Y-106000000D01*
X163046428Y-105857142D01*
X163046428Y-105714285D01*
X162117857Y-104642857D02*
X162046428Y-104785714D01*
X162046428Y-105071428D01*
X162117857Y-105214285D01*
X162260714Y-105285714D01*
X162832142Y-105285714D01*
X162975000Y-105214285D01*
X163046428Y-105071428D01*
X163046428Y-104785714D01*
X162975000Y-104642857D01*
X162832142Y-104571428D01*
X162689285Y-104571428D01*
X162546428Y-105285714D01*
X162046428Y-103928571D02*
X163546428Y-103928571D01*
X162617857Y-103785714D02*
X162046428Y-103357142D01*
X163046428Y-103357142D02*
X162475000Y-103928571D01*
X163546428Y-101142857D02*
X162475000Y-101142857D01*
X162260714Y-101214285D01*
X162117857Y-101357142D01*
X162046428Y-101571428D01*
X162046428Y-101714285D01*
X162117857Y-99857142D02*
X162046428Y-100000000D01*
X162046428Y-100285714D01*
X162117857Y-100428571D01*
X162260714Y-100500000D01*
X162832142Y-100500000D01*
X162975000Y-100428571D01*
X163046428Y-100285714D01*
X163046428Y-100000000D01*
X162975000Y-99857142D01*
X162832142Y-99785714D01*
X162689285Y-99785714D01*
X162546428Y-100500000D01*
X163046428Y-99142857D02*
X162046428Y-99142857D01*
X162903571Y-99142857D02*
X162975000Y-99071428D01*
X163046428Y-98928571D01*
X163046428Y-98714285D01*
X162975000Y-98571428D01*
X162832142Y-98500000D01*
X162046428Y-98500000D01*
X163046428Y-97785714D02*
X162046428Y-97785714D01*
X162903571Y-97785714D02*
X162975000Y-97714285D01*
X163046428Y-97571428D01*
X163046428Y-97357142D01*
X162975000Y-97214285D01*
X162832142Y-97142857D01*
X162046428Y-97142857D01*
X162046428Y-96428571D02*
X163046428Y-96428571D01*
X163546428Y-96428571D02*
X163475000Y-96500000D01*
X163403571Y-96428571D01*
X163475000Y-96357142D01*
X163546428Y-96428571D01*
X163403571Y-96428571D01*
X163046428Y-95714285D02*
X162046428Y-95714285D01*
X162903571Y-95714285D02*
X162975000Y-95642857D01*
X163046428Y-95500000D01*
X163046428Y-95285714D01*
X162975000Y-95142857D01*
X162832142Y-95071428D01*
X162046428Y-95071428D01*
X163046428Y-93714285D02*
X161832142Y-93714285D01*
X161689285Y-93785714D01*
X161617857Y-93857142D01*
X161546428Y-94000000D01*
X161546428Y-94214285D01*
X161617857Y-94357142D01*
X162117857Y-93714285D02*
X162046428Y-93857142D01*
X162046428Y-94142857D01*
X162117857Y-94285714D01*
X162189285Y-94357142D01*
X162332142Y-94428571D01*
X162760714Y-94428571D01*
X162903571Y-94357142D01*
X162975000Y-94285714D01*
X163046428Y-94142857D01*
X163046428Y-93857142D01*
X162975000Y-93714285D01*
X162117857Y-93071428D02*
X162046428Y-92928571D01*
X162046428Y-92642857D01*
X162117857Y-92500000D01*
X162260714Y-92428571D01*
X162332142Y-92428571D01*
X162475000Y-92500000D01*
X162546428Y-92642857D01*
X162546428Y-92857142D01*
X162617857Y-93000000D01*
X162760714Y-93071428D01*
X162832142Y-93071428D01*
X162975000Y-93000000D01*
X163046428Y-92857142D01*
X163046428Y-92642857D01*
X162975000Y-92500000D01*
X163546428Y-90357142D02*
X163546428Y-90071428D01*
X163475000Y-89928571D01*
X163332142Y-89785714D01*
X163046428Y-89714285D01*
X162546428Y-89714285D01*
X162260714Y-89785714D01*
X162117857Y-89928571D01*
X162046428Y-90071428D01*
X162046428Y-90357142D01*
X162117857Y-90500000D01*
X162260714Y-90642857D01*
X162546428Y-90714285D01*
X163046428Y-90714285D01*
X163332142Y-90642857D01*
X163475000Y-90500000D01*
X163546428Y-90357142D01*
X162117857Y-88428571D02*
X162046428Y-88571428D01*
X162046428Y-88857142D01*
X162117857Y-89000000D01*
X162189285Y-89071428D01*
X162332142Y-89142857D01*
X162760714Y-89142857D01*
X162903571Y-89071428D01*
X162975000Y-89000000D01*
X163046428Y-88857142D01*
X163046428Y-88571428D01*
X162975000Y-88428571D01*
X163046428Y-88000000D02*
X163046428Y-87428571D01*
X163546428Y-87785714D02*
X162260714Y-87785714D01*
X162117857Y-87714285D01*
X162046428Y-87571428D01*
X162046428Y-87428571D01*
X163546428Y-86857142D02*
X163260714Y-87000000D01*
X162046428Y-85428571D02*
X162046428Y-86285714D01*
X162046428Y-85857142D02*
X163546428Y-85857142D01*
X163332142Y-86000000D01*
X163189285Y-86142857D01*
X163117857Y-86285714D01*
X162903571Y-84571428D02*
X162975000Y-84714285D01*
X163046428Y-84785714D01*
X163189285Y-84857142D01*
X163260714Y-84857142D01*
X163403571Y-84785714D01*
X163475000Y-84714285D01*
X163546428Y-84571428D01*
X163546428Y-84285714D01*
X163475000Y-84142857D01*
X163403571Y-84071428D01*
X163260714Y-84000000D01*
X163189285Y-84000000D01*
X163046428Y-84071428D01*
X162975000Y-84142857D01*
X162903571Y-84285714D01*
X162903571Y-84571428D01*
X162832142Y-84714285D01*
X162760714Y-84785714D01*
X162617857Y-84857142D01*
X162332142Y-84857142D01*
X162189285Y-84785714D01*
X162117857Y-84714285D01*
X162046428Y-84571428D01*
X162046428Y-84285714D01*
X162117857Y-84142857D01*
X162189285Y-84071428D01*
X162332142Y-84000000D01*
X162617857Y-84000000D01*
X162760714Y-84071428D01*
X162832142Y-84142857D01*
X162903571Y-84285714D01*
X163046428Y-82357142D02*
X162046428Y-82000000D01*
X163046428Y-81642857D01*
X163546428Y-79642857D02*
X163546428Y-79500000D01*
X163475000Y-79357142D01*
X163403571Y-79285714D01*
X163260714Y-79214285D01*
X162975000Y-79142857D01*
X162617857Y-79142857D01*
X162332142Y-79214285D01*
X162189285Y-79285714D01*
X162117857Y-79357142D01*
X162046428Y-79500000D01*
X162046428Y-79642857D01*
X162117857Y-79785714D01*
X162189285Y-79857142D01*
X162332142Y-79928571D01*
X162617857Y-80000000D01*
X162975000Y-80000000D01*
X163260714Y-79928571D01*
X163403571Y-79857142D01*
X163475000Y-79785714D01*
X163546428Y-79642857D01*
X162189285Y-78500000D02*
X162117857Y-78428571D01*
X162046428Y-78500000D01*
X162117857Y-78571428D01*
X162189285Y-78500000D01*
X162046428Y-78500000D01*
X163403571Y-77857142D02*
X163475000Y-77785714D01*
X163546428Y-77642857D01*
X163546428Y-77285714D01*
X163475000Y-77142857D01*
X163403571Y-77071428D01*
X163260714Y-77000000D01*
X163117857Y-77000000D01*
X162903571Y-77071428D01*
X162046428Y-77928571D01*
X162046428Y-77000000D01*
D11*
X150000000Y-55000000D02*
X195000000Y-55000000D01*
X150000000Y-120000000D02*
X150000000Y-55000000D01*
X195000000Y-120000000D02*
X150000000Y-120000000D01*
X195000000Y-55000000D02*
X195000000Y-120000000D01*
X174650000Y-106810000D02*
X174650000Y-92840000D01*
X174650000Y-92840000D02*
X187350000Y-92840000D01*
X187350000Y-92840000D02*
X187350000Y-106810000D01*
X187350000Y-106810000D02*
X174650000Y-106810000D01*
X172110000Y-108080000D02*
X189890000Y-108080000D01*
X189890000Y-108080000D02*
X189890000Y-85220000D01*
X189890000Y-85220000D02*
X172110000Y-85220000D01*
X172110000Y-85220000D02*
X172110000Y-108080000D01*
M02*
