%TF.GenerationSoftware,KiCad,Pcbnew,5.1.1*%
%TF.CreationDate,2019-04-24T12:59:08+01:00*%
%TF.ProjectId,ESP8266_home_battery_controller,45535038-3236-4365-9f68-6f6d655f6261,0.6*%
%TF.SameCoordinates,Original*%
%TF.FileFunction,Soldermask,Bot*%
%TF.FilePolarity,Negative*%
%FSLAX46Y46*%
G04 Gerber Fmt 4.6, Leading zero omitted, Abs format (unit mm)*
G04 Created by KiCad (PCBNEW 5.1.1) date 2019-04-24 12:59:08*
%MOMM*%
%LPD*%
G04 APERTURE LIST*
%ADD10C,0.150000*%
%ADD11O,1.600000X2.150000*%
%ADD12C,0.100000*%
%ADD13C,1.600000*%
%ADD14C,2.200000*%
%ADD15C,3.900000*%
%ADD16O,3.410000X1.910000*%
%ADD17C,2.400000*%
%ADD18R,2.400000X2.400000*%
%ADD19R,2.000000X2.000000*%
%ADD20O,2.000000X2.000000*%
G04 APERTURE END LIST*
D10*
X150000000Y-55000000D02*
X195000000Y-55000000D01*
X150000000Y-120000000D02*
X150000000Y-55000000D01*
X195000000Y-120000000D02*
X150000000Y-120000000D01*
X195000000Y-55000000D02*
X195000000Y-120000000D01*
D11*
X171000000Y-61500000D03*
X173000000Y-61500000D03*
D12*
G36*
X175499340Y-60426605D02*
G01*
X175531698Y-60431405D01*
X175563429Y-60439353D01*
X175594229Y-60450373D01*
X175623800Y-60464359D01*
X175651857Y-60481177D01*
X175678132Y-60500663D01*
X175702369Y-60522631D01*
X175724337Y-60546868D01*
X175743823Y-60573143D01*
X175760641Y-60601200D01*
X175774627Y-60630771D01*
X175785647Y-60661571D01*
X175793595Y-60693302D01*
X175798395Y-60725660D01*
X175800000Y-60758332D01*
X175800000Y-62241668D01*
X175798395Y-62274340D01*
X175793595Y-62306698D01*
X175785647Y-62338429D01*
X175774627Y-62369229D01*
X175760641Y-62398800D01*
X175743823Y-62426857D01*
X175724337Y-62453132D01*
X175702369Y-62477369D01*
X175678132Y-62499337D01*
X175651857Y-62518823D01*
X175623800Y-62535641D01*
X175594229Y-62549627D01*
X175563429Y-62560647D01*
X175531698Y-62568595D01*
X175499340Y-62573395D01*
X175466668Y-62575000D01*
X174533332Y-62575000D01*
X174500660Y-62573395D01*
X174468302Y-62568595D01*
X174436571Y-62560647D01*
X174405771Y-62549627D01*
X174376200Y-62535641D01*
X174348143Y-62518823D01*
X174321868Y-62499337D01*
X174297631Y-62477369D01*
X174275663Y-62453132D01*
X174256177Y-62426857D01*
X174239359Y-62398800D01*
X174225373Y-62369229D01*
X174214353Y-62338429D01*
X174206405Y-62306698D01*
X174201605Y-62274340D01*
X174200000Y-62241668D01*
X174200000Y-60758332D01*
X174201605Y-60725660D01*
X174206405Y-60693302D01*
X174214353Y-60661571D01*
X174225373Y-60630771D01*
X174239359Y-60601200D01*
X174256177Y-60573143D01*
X174275663Y-60546868D01*
X174297631Y-60522631D01*
X174321868Y-60500663D01*
X174348143Y-60481177D01*
X174376200Y-60464359D01*
X174405771Y-60450373D01*
X174436571Y-60439353D01*
X174468302Y-60431405D01*
X174500660Y-60426605D01*
X174533332Y-60425000D01*
X175466668Y-60425000D01*
X175499340Y-60426605D01*
X175499340Y-60426605D01*
G37*
D13*
X175000000Y-61500000D03*
D14*
X169570000Y-92840000D03*
X169570000Y-95380000D03*
X169570000Y-97920000D03*
X169570000Y-100460000D03*
X169570000Y-103000000D03*
X169570000Y-105540000D03*
X169570000Y-108080000D03*
X169570000Y-110620000D03*
X192430000Y-110620000D03*
X192430000Y-108080000D03*
X192430000Y-105540000D03*
X192430000Y-103000000D03*
X192430000Y-100460000D03*
X192430000Y-97920000D03*
X192430000Y-95380000D03*
X192430000Y-92840000D03*
D15*
X191000000Y-116000000D03*
D16*
X155500000Y-75000000D03*
X155500000Y-72460000D03*
D15*
X154000000Y-59000000D03*
X191000000Y-59000000D03*
X154000000Y-116000000D03*
D12*
G36*
X165499340Y-60426605D02*
G01*
X165531698Y-60431405D01*
X165563429Y-60439353D01*
X165594229Y-60450373D01*
X165623800Y-60464359D01*
X165651857Y-60481177D01*
X165678132Y-60500663D01*
X165702369Y-60522631D01*
X165724337Y-60546868D01*
X165743823Y-60573143D01*
X165760641Y-60601200D01*
X165774627Y-60630771D01*
X165785647Y-60661571D01*
X165793595Y-60693302D01*
X165798395Y-60725660D01*
X165800000Y-60758332D01*
X165800000Y-62241668D01*
X165798395Y-62274340D01*
X165793595Y-62306698D01*
X165785647Y-62338429D01*
X165774627Y-62369229D01*
X165760641Y-62398800D01*
X165743823Y-62426857D01*
X165724337Y-62453132D01*
X165702369Y-62477369D01*
X165678132Y-62499337D01*
X165651857Y-62518823D01*
X165623800Y-62535641D01*
X165594229Y-62549627D01*
X165563429Y-62560647D01*
X165531698Y-62568595D01*
X165499340Y-62573395D01*
X165466668Y-62575000D01*
X164533332Y-62575000D01*
X164500660Y-62573395D01*
X164468302Y-62568595D01*
X164436571Y-62560647D01*
X164405771Y-62549627D01*
X164376200Y-62535641D01*
X164348143Y-62518823D01*
X164321868Y-62499337D01*
X164297631Y-62477369D01*
X164275663Y-62453132D01*
X164256177Y-62426857D01*
X164239359Y-62398800D01*
X164225373Y-62369229D01*
X164214353Y-62338429D01*
X164206405Y-62306698D01*
X164201605Y-62274340D01*
X164200000Y-62241668D01*
X164200000Y-60758332D01*
X164201605Y-60725660D01*
X164206405Y-60693302D01*
X164214353Y-60661571D01*
X164225373Y-60630771D01*
X164239359Y-60601200D01*
X164256177Y-60573143D01*
X164275663Y-60546868D01*
X164297631Y-60522631D01*
X164321868Y-60500663D01*
X164348143Y-60481177D01*
X164376200Y-60464359D01*
X164405771Y-60450373D01*
X164436571Y-60439353D01*
X164468302Y-60431405D01*
X164500660Y-60426605D01*
X164533332Y-60425000D01*
X165466668Y-60425000D01*
X165499340Y-60426605D01*
X165499340Y-60426605D01*
G37*
D13*
X165000000Y-61500000D03*
D11*
X163000000Y-61500000D03*
X161000000Y-61500000D03*
X159000000Y-61500000D03*
X175000000Y-115000000D03*
X173000000Y-115000000D03*
D12*
G36*
X171499340Y-113926605D02*
G01*
X171531698Y-113931405D01*
X171563429Y-113939353D01*
X171594229Y-113950373D01*
X171623800Y-113964359D01*
X171651857Y-113981177D01*
X171678132Y-114000663D01*
X171702369Y-114022631D01*
X171724337Y-114046868D01*
X171743823Y-114073143D01*
X171760641Y-114101200D01*
X171774627Y-114130771D01*
X171785647Y-114161571D01*
X171793595Y-114193302D01*
X171798395Y-114225660D01*
X171800000Y-114258332D01*
X171800000Y-115741668D01*
X171798395Y-115774340D01*
X171793595Y-115806698D01*
X171785647Y-115838429D01*
X171774627Y-115869229D01*
X171760641Y-115898800D01*
X171743823Y-115926857D01*
X171724337Y-115953132D01*
X171702369Y-115977369D01*
X171678132Y-115999337D01*
X171651857Y-116018823D01*
X171623800Y-116035641D01*
X171594229Y-116049627D01*
X171563429Y-116060647D01*
X171531698Y-116068595D01*
X171499340Y-116073395D01*
X171466668Y-116075000D01*
X170533332Y-116075000D01*
X170500660Y-116073395D01*
X170468302Y-116068595D01*
X170436571Y-116060647D01*
X170405771Y-116049627D01*
X170376200Y-116035641D01*
X170348143Y-116018823D01*
X170321868Y-115999337D01*
X170297631Y-115977369D01*
X170275663Y-115953132D01*
X170256177Y-115926857D01*
X170239359Y-115898800D01*
X170225373Y-115869229D01*
X170214353Y-115838429D01*
X170206405Y-115806698D01*
X170201605Y-115774340D01*
X170200000Y-115741668D01*
X170200000Y-114258332D01*
X170201605Y-114225660D01*
X170206405Y-114193302D01*
X170214353Y-114161571D01*
X170225373Y-114130771D01*
X170239359Y-114101200D01*
X170256177Y-114073143D01*
X170275663Y-114046868D01*
X170297631Y-114022631D01*
X170321868Y-114000663D01*
X170348143Y-113981177D01*
X170376200Y-113964359D01*
X170405771Y-113950373D01*
X170436571Y-113939353D01*
X170468302Y-113931405D01*
X170500660Y-113926605D01*
X170533332Y-113925000D01*
X171466668Y-113925000D01*
X171499340Y-113926605D01*
X171499340Y-113926605D01*
G37*
D13*
X171000000Y-115000000D03*
D12*
G36*
X185499340Y-60426605D02*
G01*
X185531698Y-60431405D01*
X185563429Y-60439353D01*
X185594229Y-60450373D01*
X185623800Y-60464359D01*
X185651857Y-60481177D01*
X185678132Y-60500663D01*
X185702369Y-60522631D01*
X185724337Y-60546868D01*
X185743823Y-60573143D01*
X185760641Y-60601200D01*
X185774627Y-60630771D01*
X185785647Y-60661571D01*
X185793595Y-60693302D01*
X185798395Y-60725660D01*
X185800000Y-60758332D01*
X185800000Y-62241668D01*
X185798395Y-62274340D01*
X185793595Y-62306698D01*
X185785647Y-62338429D01*
X185774627Y-62369229D01*
X185760641Y-62398800D01*
X185743823Y-62426857D01*
X185724337Y-62453132D01*
X185702369Y-62477369D01*
X185678132Y-62499337D01*
X185651857Y-62518823D01*
X185623800Y-62535641D01*
X185594229Y-62549627D01*
X185563429Y-62560647D01*
X185531698Y-62568595D01*
X185499340Y-62573395D01*
X185466668Y-62575000D01*
X184533332Y-62575000D01*
X184500660Y-62573395D01*
X184468302Y-62568595D01*
X184436571Y-62560647D01*
X184405771Y-62549627D01*
X184376200Y-62535641D01*
X184348143Y-62518823D01*
X184321868Y-62499337D01*
X184297631Y-62477369D01*
X184275663Y-62453132D01*
X184256177Y-62426857D01*
X184239359Y-62398800D01*
X184225373Y-62369229D01*
X184214353Y-62338429D01*
X184206405Y-62306698D01*
X184201605Y-62274340D01*
X184200000Y-62241668D01*
X184200000Y-60758332D01*
X184201605Y-60725660D01*
X184206405Y-60693302D01*
X184214353Y-60661571D01*
X184225373Y-60630771D01*
X184239359Y-60601200D01*
X184256177Y-60573143D01*
X184275663Y-60546868D01*
X184297631Y-60522631D01*
X184321868Y-60500663D01*
X184348143Y-60481177D01*
X184376200Y-60464359D01*
X184405771Y-60450373D01*
X184436571Y-60439353D01*
X184468302Y-60431405D01*
X184500660Y-60426605D01*
X184533332Y-60425000D01*
X185466668Y-60425000D01*
X185499340Y-60426605D01*
X185499340Y-60426605D01*
G37*
D13*
X185000000Y-61500000D03*
D11*
X183000000Y-61500000D03*
X181000000Y-61500000D03*
D12*
G36*
X181499340Y-113926605D02*
G01*
X181531698Y-113931405D01*
X181563429Y-113939353D01*
X181594229Y-113950373D01*
X181623800Y-113964359D01*
X181651857Y-113981177D01*
X181678132Y-114000663D01*
X181702369Y-114022631D01*
X181724337Y-114046868D01*
X181743823Y-114073143D01*
X181760641Y-114101200D01*
X181774627Y-114130771D01*
X181785647Y-114161571D01*
X181793595Y-114193302D01*
X181798395Y-114225660D01*
X181800000Y-114258332D01*
X181800000Y-115741668D01*
X181798395Y-115774340D01*
X181793595Y-115806698D01*
X181785647Y-115838429D01*
X181774627Y-115869229D01*
X181760641Y-115898800D01*
X181743823Y-115926857D01*
X181724337Y-115953132D01*
X181702369Y-115977369D01*
X181678132Y-115999337D01*
X181651857Y-116018823D01*
X181623800Y-116035641D01*
X181594229Y-116049627D01*
X181563429Y-116060647D01*
X181531698Y-116068595D01*
X181499340Y-116073395D01*
X181466668Y-116075000D01*
X180533332Y-116075000D01*
X180500660Y-116073395D01*
X180468302Y-116068595D01*
X180436571Y-116060647D01*
X180405771Y-116049627D01*
X180376200Y-116035641D01*
X180348143Y-116018823D01*
X180321868Y-115999337D01*
X180297631Y-115977369D01*
X180275663Y-115953132D01*
X180256177Y-115926857D01*
X180239359Y-115898800D01*
X180225373Y-115869229D01*
X180214353Y-115838429D01*
X180206405Y-115806698D01*
X180201605Y-115774340D01*
X180200000Y-115741668D01*
X180200000Y-114258332D01*
X180201605Y-114225660D01*
X180206405Y-114193302D01*
X180214353Y-114161571D01*
X180225373Y-114130771D01*
X180239359Y-114101200D01*
X180256177Y-114073143D01*
X180275663Y-114046868D01*
X180297631Y-114022631D01*
X180321868Y-114000663D01*
X180348143Y-113981177D01*
X180376200Y-113964359D01*
X180405771Y-113950373D01*
X180436571Y-113939353D01*
X180468302Y-113931405D01*
X180500660Y-113926605D01*
X180533332Y-113925000D01*
X181466668Y-113925000D01*
X181499340Y-113926605D01*
X181499340Y-113926605D01*
G37*
D13*
X181000000Y-115000000D03*
D11*
X183000000Y-115000000D03*
X185000000Y-115000000D03*
D12*
G36*
X160499340Y-113926605D02*
G01*
X160531698Y-113931405D01*
X160563429Y-113939353D01*
X160594229Y-113950373D01*
X160623800Y-113964359D01*
X160651857Y-113981177D01*
X160678132Y-114000663D01*
X160702369Y-114022631D01*
X160724337Y-114046868D01*
X160743823Y-114073143D01*
X160760641Y-114101200D01*
X160774627Y-114130771D01*
X160785647Y-114161571D01*
X160793595Y-114193302D01*
X160798395Y-114225660D01*
X160800000Y-114258332D01*
X160800000Y-115741668D01*
X160798395Y-115774340D01*
X160793595Y-115806698D01*
X160785647Y-115838429D01*
X160774627Y-115869229D01*
X160760641Y-115898800D01*
X160743823Y-115926857D01*
X160724337Y-115953132D01*
X160702369Y-115977369D01*
X160678132Y-115999337D01*
X160651857Y-116018823D01*
X160623800Y-116035641D01*
X160594229Y-116049627D01*
X160563429Y-116060647D01*
X160531698Y-116068595D01*
X160499340Y-116073395D01*
X160466668Y-116075000D01*
X159533332Y-116075000D01*
X159500660Y-116073395D01*
X159468302Y-116068595D01*
X159436571Y-116060647D01*
X159405771Y-116049627D01*
X159376200Y-116035641D01*
X159348143Y-116018823D01*
X159321868Y-115999337D01*
X159297631Y-115977369D01*
X159275663Y-115953132D01*
X159256177Y-115926857D01*
X159239359Y-115898800D01*
X159225373Y-115869229D01*
X159214353Y-115838429D01*
X159206405Y-115806698D01*
X159201605Y-115774340D01*
X159200000Y-115741668D01*
X159200000Y-114258332D01*
X159201605Y-114225660D01*
X159206405Y-114193302D01*
X159214353Y-114161571D01*
X159225373Y-114130771D01*
X159239359Y-114101200D01*
X159256177Y-114073143D01*
X159275663Y-114046868D01*
X159297631Y-114022631D01*
X159321868Y-114000663D01*
X159348143Y-113981177D01*
X159376200Y-113964359D01*
X159405771Y-113950373D01*
X159436571Y-113939353D01*
X159468302Y-113931405D01*
X159500660Y-113926605D01*
X159533332Y-113925000D01*
X160466668Y-113925000D01*
X160499340Y-113926605D01*
X160499340Y-113926605D01*
G37*
D13*
X160000000Y-115000000D03*
D11*
X162000000Y-115000000D03*
X164000000Y-115000000D03*
X166000000Y-115000000D03*
D17*
X161000000Y-107000000D03*
D18*
X161000000Y-102000000D03*
D19*
X187500000Y-78500000D03*
D20*
X187500000Y-70880000D03*
M02*
