M48
; DRILL file {KiCad 5.1.1} date Wed 24 Apr 2019 12:59:01 BST
; FORMAT={-:-/ absolute / inch / decimal}
; #@! TF.CreationDate,2019-04-24T12:59:01+01:00
; #@! TF.GenerationSoftware,Kicad,Pcbnew,5.1.1
; #@! TF.FileFunction,Plated,1,2,PTH
FMAT,2
INCH
T1C0.0157
T2C0.0295
T3C0.0315
T4C0.0394
T5C0.0400
T6C0.1378
%
G90
G05
T1
X6.0433Y-3.7205
X6.1024Y-3.1496
X6.2795Y-3.6614
X6.2835Y-3.7638
X6.378Y-2.5197
X6.378Y-3.563
X6.5157Y-3.6614
X6.5157Y-3.7638
X6.5354Y-3.0906
X6.5551Y-2.7953
X6.5748Y-3.5827
X6.5748Y-4.2717
X6.6142Y-2.7165
X6.7126Y-3.3071
X6.7717Y-3.4055
X6.811Y-3.5827
X6.811Y-3.8583
X6.8898Y-2.8346
X6.8898Y-3.5039
X6.9685Y-3.7402
X6.9685Y-3.9764
X6.9882Y-3.5433
X7.0866Y-3.3661
X7.126Y-3.7598
X7.126Y-3.9764
X7.1457Y-3.7008
X7.2026Y-3.8632
X7.2441Y-3.8583
X7.2441Y-4.252
X7.2835Y-3.2283
X7.3228Y-3.8583
X7.4409Y-4.2126
X7.4803Y-3.3268
X7.4803Y-4.0157
T2
X6.7323Y-2.4213
X6.811Y-2.4213
X6.8898Y-2.4213
X7.126Y-2.4213
X7.2047Y-2.4213
X7.2835Y-2.4213
X6.7323Y-4.5276
X6.811Y-4.5276
X6.8898Y-4.5276
X7.126Y-4.5276
X7.2047Y-4.5276
X7.2835Y-4.5276
X6.2992Y-4.5276
X6.378Y-4.5276
X6.4567Y-4.5276
X6.5354Y-4.5276
X6.2598Y-2.4213
X6.3386Y-2.4213
X6.4173Y-2.4213
X6.4961Y-2.4213
T3
X7.3819Y-2.7906
X7.3819Y-3.0906
T4
X6.3386Y-4.0157
X6.3386Y-4.2126
X6.122Y-2.8528
X6.122Y-2.9528
T5
X6.676Y-3.6551
X6.676Y-3.7551
X6.676Y-3.8551
X6.676Y-3.9551
X6.676Y-4.0551
X6.676Y-4.1551
X6.676Y-4.2551
X6.676Y-4.3551
X7.576Y-3.6551
X7.576Y-3.7551
X7.576Y-3.8551
X7.576Y-3.9551
X7.576Y-4.0551
X7.576Y-4.1551
X7.576Y-4.2551
X7.576Y-4.3551
T6
X6.063Y-4.5669
X6.063Y-2.3228
X7.5197Y-2.3228
X7.5197Y-4.5669
T0
M30
